<?xml version="1.0" standalone="no"?>
<!DOCTYPE svg PUBLIC "-//W3C//DTD SVG 1.1//EN" "http://www.w3.org/Graphics/SVG/1.1/DTD/svg11.dtd" >
<svg xmlns="http://www.w3.org/2000/svg" xmlns:xlink="http://www.w3.org/1999/xlink" version="1.1">
<metadata>
Created by FontForge 20201107 at Tue Jan  4 02:35:03 2022
 By 
Copyright (c) 2021 by 177Studio.com. All rights reserved.
</metadata>
<defs>
<font id="against-Regular" horiz-adv-x="806" >
  <font-face 
    font-family="against"
    font-weight="400"
    font-stretch="normal"
    units-per-em="1000"
    panose-1="2 0 5 5 9 0 0 2 0 4"
    ascent="800"
    descent="-200"
    x-height="679"
    cap-height="851"
    bbox="-166 -258 2184 1114"
    underline-thickness="0"
    underline-position="0"
    unicode-range="U+000A-FB02"
  />
<missing-glyph horiz-adv-x="499" 
d="M463 700v-700h-427v700h427zM249 371l186 309h-371zM57 650v-601l180 301zM65 21h370l-185 308zM443 47v605l-181 -302z" />
    <glyph glyph-name="uniF401" unicode="ab" horiz-adv-x="1595" 
d="M36 197q0 47 20 81.5t54 58.5t79 39t95 23q-46 9 -75.5 33.5t-41.5 55.5t-7.5 65t25.5 62t57.5 46.5t88.5 18.5q62 0 116.5 -11.5t96.5 -37.5t68.5 -68.5t31.5 -104.5q1 -6 1 -12.5t1 -13.5q-35 5 -67.5 6t-61.5 1q-3 50 -13.5 91.5t-32.5 72t-57 48t-85 18.5
q-60 0 -98.5 -26t-52.5 -64q-12 -30 -8 -61t23.5 -55.5t53.5 -40.5t81 -17q41 5 80.5 6.5t77.5 2.5h6q100 0 200 -16.5t189 -65.5v426q-1 20 -3.5 35.5t-9.5 26t-19 16.5t-31 8v10q21 2 46.5 6t51 10t50 13.5t45.5 16.5v-463q9 58 33 103t57.5 76t75.5 47.5t87 16.5
q73 0 128 -24.5t92 -69.5t56 -108.5t19 -141.5q0 -79 -22 -141.5t-61.5 -105.5t-93.5 -65.5t-117 -22.5q-39 -1 -75 11.5t-66.5 34.5t-54.5 52t-39 66q-25 54 -67.5 94t-94 67.5t-109 43.5t-113.5 24v-195q0 -36 0.5 -69.5t6.5 -60t20 -42.5t42 -16v-10q-52 0 -89 8
t-61 26.5t-35.5 50t-11.5 79.5q-28 -78 -88 -121t-152 -44q-59 -1 -104.5 12.5t-76 39.5t-46 62.5t-15.5 82.5zM1011 340q0 -41 4 -82t21 -79q2 -7 6 -14l2 -5q15 -32 38 -59.5t51.5 -47.5t62 -31t69.5 -10q46 0 78 25t51.5 68.5t28 103t8.5 127.5q0 54 -5.5 113t-23.5 108
t-51 80.5t-87 31.5q-38 0 -73.5 -12t-66.5 -36t-55 -59t-37 -80q-6 -16 -10 -35t-6 -38t-3.5 -37t-1.5 -32zM165 189q0 -77 34 -120t110 -43q43 0 81.5 13.5t66.5 43.5t44.5 78t16.5 117v124q-2 1 -5 1h-4q-31 1 -69 -0.5t-76 -8t-74 -19.5t-64 -37t-44.5 -60.5t-16.5 -88.5
zM813 11q21 0 34.5 9.5t20.5 26t10 38.5t3 48v154q40 -24 73 -56t57 -76v-154h-198v10zM486 402l23 1h-12t-11 -1z" />
    <glyph glyph-name="uniF402" unicode="ae" horiz-adv-x="1503" 
d="M36 197q0 47 20 81.5t53.5 58.5t78.5 39t95 23q-3 1 -6.5 1.5t-8.5 2.5q-42 11 -67.5 36t-35.5 56t-4 63.5t27 59.5t56.5 44.5t86.5 17.5q62 0 116.5 -11.5t96.5 -37.5t68.5 -68.5t31.5 -104.5q2 -16 2 -31.5v-32.5q-32 0 -64 1t-64 3v16q-1 55 -10.5 101t-31.5 80
t-57.5 53.5t-89.5 20.5q-32 0 -60.5 -9.5t-51 -26.5t-35.5 -43t-13 -59q2 -39 26.5 -71t72.5 -46q6 -2 7 -2q91 -23 181.5 -34t184.5 -11h5q43 1 85.5 3t85.5 7q1 8 1.5 15t2.5 14q9 54 34 104t66.5 87.5t99.5 60t133 22.5q58 0 107.5 -14.5t89 -41.5t69 -64.5t47.5 -82.5
q-12 -2 -37 -6.5t-58.5 -10.5t-74.5 -13.5t-85 -15.5q66 -2 113.5 -20t78 -46.5t44 -64.5t11 -74t-20 -74t-49.5 -65q-45 -40 -104.5 -63t-133.5 -23q-83 0 -145.5 29.5t-104.5 77.5t-63.5 109t-21.5 125q32 4 65 8t66 10q-1 -60 9 -121.5t34 -112t64 -82.5t100 -32
q71 0 128 22.5t99 60.5q24 22 40 48.5t22.5 55t3.5 57t-16 54.5q-16 32 -40 53t-53.5 33.5t-63.5 17.5t-70 5t-71.5 -4t-69 -9.5t-63 -11.5t-52.5 -10q-75 -12 -150 -19t-152 -9v-157q0 -36 0.5 -70t6.5 -60t20 -42t42 -16v-10q-52 0 -89 8t-61 26.5t-35.5 50t-11.5 79.5
q-28 -79 -88 -121.5t-152 -44.5q-119 -1 -180.5 52.5t-61.5 145.5zM330 387q-76 -17 -120.5 -67.5t-44.5 -131.5q0 -76 34 -119t110 -43q43 0 81.5 13t66.5 43t44.5 78t16.5 118v82q-93 7 -188 27zM952 425q-1 -8 -1.5 -15t-1.5 -14q26 5 54 9.5t58 9.5l22 4l22 4
q65 11 128 22.5t115 20.5q-8 39 -22.5 75.5t-37.5 65t-56.5 46t-78.5 17.5q-51 0 -87 -22t-59.5 -57t-36.5 -79t-18 -87z" />
    <glyph glyph-name="uniF403" unicode="ag" horiz-adv-x="1486" 
d="M36 197q0 47 20 81.5t54 58.5t79 39t95 23q-46 9 -75.5 33.5t-41.5 55.5t-7.5 65t25.5 62t57.5 46.5t88.5 18.5q62 0 116.5 -11.5t96.5 -37.5t68.5 -68.5t31.5 -104.5q2 -17 2 -35v-35v-189v-59t4 -54q12 -93 47.5 -155.5t86.5 -100.5t113.5 -54.5t127.5 -16.5
q29 0 64.5 4.5t71.5 14t70 23.5t60.5 32.5t42.5 41.5t16 51q0 30 -20 50.5t-52.5 34t-73.5 21.5t-83.5 12.5t-83 8.5t-71.5 9q-35 6 -55 16t-30 22t-12 25t0 25q3 20 22 34.5t46.5 25t59 16.5t60.5 8q-54 6 -99.5 22.5t-78 44t-50.5 66.5t-18 89q0 59 26 102t67.5 71
t93.5 41.5t104 13.5q26 0 54.5 -5.5t54.5 -10.5q41 49 88.5 79t107.5 30q23 0 43 -4l-40 -138h-7q-5 30 -31 50t-61 20q-21 0 -43.5 -9.5t-42.5 -31.5q33 -12 64 -30.5t54.5 -44t37.5 -58.5t14 -73q0 -63 -25 -106.5t-68 -70.5t-101.5 -40.5t-124.5 -16.5q-101 -8 -101 -41
q0 -9 9 -16q16 -12 56.5 -17.5t92 -11t107 -14.5t101.5 -27.5t76 -51t30 -84.5q0 -40 -20 -71t-54 -54.5t-77.5 -40t-90.5 -27t-93.5 -15t-86.5 -4.5q-48 0 -104.5 7.5t-113 26t-108.5 49t-92.5 76.5t-64.5 109.5t-24 147.5q-28 -78 -88 -121t-152 -44q-59 -1 -104.5 12.5
t-76 39.5t-46 62.5t-15.5 82.5zM925 455q0 -46 10 -85.5t32.5 -68t58 -44.5t86.5 -16q47 0 79 19.5t51.5 51.5t28 73t8.5 84q0 44 -11 81t-33 64t-54 42t-75 15q-41 0 -74 -16t-57 -44.5t-37 -68.5t-13 -87zM165 189q0 -77 34 -120t110 -43q43 0 81.5 13.5t66.5 43.5
t44.5 78t16.5 117v124q-31 1 -69 0.5t-77.5 -6.5t-76.5 -19t-66 -37t-46.5 -61t-17.5 -90zM169 531q2 -50 41.5 -87t117.5 -39q42 5 82 7t78 2h30q-1 55 -10.5 101t-31.5 80t-57.5 53.5t-89.5 20.5q-32 0 -60.5 -9t-51 -27t-35.5 -43.5t-13 -58.5z" />
    <glyph glyph-name="uniF404" unicode="ai" horiz-adv-x="1120" 
d="M278 0q-59 -1 -104.5 12.5t-76 39.5t-46 62.5t-15.5 82.5q0 51 22.5 86t58 58.5t79.5 37t87 20.5h1q-46 9 -75 33t-41.5 55.5t-8 65.5t25 62t57.5 46.5t89 18.5q60 0 114 -11t95.5 -35.5t68.5 -65t34 -98.5q-32 -11 -63.5 -18.5t-62.5 -13.5q-3 50 -13.5 92t-32.5 72.5
t-56.5 48t-85.5 18.5q-60 -1 -98.5 -26.5t-52.5 -63.5q-9 -23 -8.5 -47t10.5 -45.5t28.5 -39t45.5 -28.5l24 -7q27 -8 60.5 -11t71.5 -1q53 2 113.5 13.5t121.5 31.5t119.5 49t107.5 66.5t84.5 83.5t52.5 101q-20 -22 -53 -22q-31 0 -51.5 20t-20.5 57q0 33 20 56t52 23
q33 0 53 -24t20 -55q0 -10 -5 -34.5t-14 -46.5v-609q1 -26 3.5 -44.5t10 -30.5t22 -18t38.5 -6v-10q-30 2 -68.5 3t-82.5 1q-30 0 -62.5 -1t-64.5 -3v10q25 0 39.5 6.5t22 19t10 32t2.5 46.5v267q0 31 -0.5 54.5t-6 39.5t-17.5 25.5t-35 11.5q-41 -25 -85 -44.5t-91 -34.5
q0 -8 0.5 -16t0.5 -30v-66v-123q0 -36 0.5 -70t6.5 -60t20 -42t42 -16v-10q-52 0 -89 8t-61 26.5t-35.5 50t-11.5 79.5q-28 -78 -88 -121t-152 -44zM165 189q0 -77 34 -120t110 -43q43 0 81.5 13.5t66.5 43.5t44.5 78t16.5 117v124q-19 -4 -37 -6l-36 -4q-27 -2 -53 -3
t-50 1q-35 -8 -67 -22t-56.5 -37.5t-39 -58.5t-14.5 -83z" />
    <glyph glyph-name="uniF405" unicode="aj" horiz-adv-x="1131" 
d="M36 197q0 50 22.5 85.5t58.5 59.5t80 37.5t86 19.5h1q-46 9 -75 33t-41.5 55.5t-8 65.5t25 62t57.5 46.5t89 18.5q60 0 114 -11t95.5 -35.5t68.5 -65t34 -98.5q-32 -11 -63.5 -18.5t-62.5 -13.5q-3 50 -13.5 92t-32.5 72.5t-56.5 48t-85.5 18.5q-60 -1 -98.5 -26.5
t-52.5 -63.5q-10 -26 -8.5 -52.5t14.5 -49t36.5 -40t57.5 -25.5q27 -8 60.5 -11t71.5 -1q53 2 113.5 13.5t121.5 31.5t119.5 49t107.5 66.5t84.5 83.5t52.5 101q-20 -22 -53 -22q-31 0 -51.5 20t-20.5 57q0 33 20 56t52 23q33 0 53 -24t20 -55q0 -10 -5 -34.5t-14 -46.5
v-569q0 -176 -61 -258.5t-188 -86.5q-38 -2 -78.5 4.5t-79.5 15.5l42 162h8q6 -29 14.5 -59t22.5 -54.5t34.5 -40t50.5 -15.5q41 0 62.5 20t31 53.5t10.5 76.5t2 90q0 52 -0.5 109t-0.5 105v110q0 31 -0.5 54.5t-6 39.5t-17.5 25.5t-35 11.5q-41 -25 -85 -44.5t-91 -34.5
q0 -8 0.5 -16t0.5 -30v-66v-123q0 -36 0.5 -70t6.5 -60t20 -42t42 -16v-10q-52 0 -89 8t-61 26.5t-35.5 50t-11.5 79.5q-28 -78 -88 -121t-152 -44q-59 -1 -104.5 12.5t-76 39.5t-46 62.5t-15.5 82.5zM342 390q-35 -8 -67 -22t-56.5 -37.5t-39 -58.5t-14.5 -83
q0 -77 34 -120t110 -43q43 0 81.5 13.5t66.5 43.5t44.5 78t16.5 117v124q-19 -4 -37 -6l-36 -4q-27 -2 -53 -3t-50 1z" />
    <glyph glyph-name="uniF406" unicode="am" horiz-adv-x="2220" 
d="M36 197q0 51 22.5 86t58 58t79.5 36.5t87 21.5h1q-46 9 -75 33t-41.5 55.5t-8 65.5t25 62t57.5 46.5t89 18.5q60 0 114 -11t95.5 -36t68.5 -65t34 -98q-32 -11 -63.5 -18.5t-62.5 -13.5q-3 50 -13.5 92t-32.5 72.5t-56.5 48t-85.5 18.5q-60 -1 -98.5 -26.5t-52.5 -63.5
q-10 -26 -8.5 -52.5t14.5 -49.5t36.5 -40.5t57.5 -25.5q56 -14 132 -11q51 2 111.5 13t123.5 32q58 19 114 46t104 63t86 83.5t61 107.5v-307q9 47 26 90.5t43.5 76.5t63 53.5t83.5 21.5q68 3 124 -16t97.5 -55t68 -88.5t36.5 -116.5q6 52 22 101t43 87.5t66 62t90 25.5
q77 3 138 -20.5t103.5 -69t65.5 -110.5t25 -144v-221q1 -53 15.5 -78.5t63.5 -25.5v-10q-35 2 -69.5 3t-66.5 1t-59.5 -0.5t-47.5 -1.5q-24 -1 -43 -2v10q27 0 42.5 6t23.5 18.5t10.5 32.5t2.5 47v210q0 67 -9 130t-32 111.5t-62.5 76.5t-101.5 27q-59 -2 -99.5 -36
t-66 -84.5t-37 -108t-11.5 -105.5v-221q1 -53 15.5 -78.5t63.5 -25.5v-10q-35 2 -69.5 3t-66.5 1t-59.5 -0.5t-47.5 -1.5q-24 -1 -43 -2v10q27 0 42.5 6t23.5 18.5t10.5 32.5t2.5 47v210q0 67 -9 130t-32 111.5t-62.5 76.5t-101.5 27q-54 -2 -94 -32t-66 -77t-40 -105
t-15 -116v-231q1 -25 3.5 -43.5t10 -30.5t22 -18t38.5 -6v-10q-30 2 -68.5 3t-82.5 1q-30 0 -62.5 -1t-64.5 -3v10q25 0 39.5 6.5t22 19t10 32t2.5 46.5v267q0 31 -0.5 54.5t-6 39.5t-17.5 25.5t-35 11.5q-41 -25 -85 -44.5t-91 -34.5q0 -8 0.5 -16t0.5 -30v-66v-123
q0 -36 0.5 -70t6.5 -60t20 -42t42 -16v-10q-52 0 -89 8t-61 26.5t-35.5 50t-11.5 79.5q-28 -79 -88 -121.5t-152 -44.5q-49 0 -93 10.5t-77 34t-52.5 61.5t-19.5 92zM165 188q0 -76 34 -119t110 -43q43 0 81.5 13t66.5 43t44.5 78t16.5 118v123q-38 -6 -73 -9
q-27 -3 -53 -3.5t-50 1.5q-35 -8 -67 -22t-56.5 -38t-39 -58.5t-14.5 -83.5z" />
    <glyph glyph-name="uniF407" unicode="an" horiz-adv-x="1673" 
d="M264 0q-47 1 -88.5 12.5t-72.5 35.5t-49 61t-18 88t22.5 86t58 58t79.5 36.5t87 21.5h1q-46 9 -75 33t-41.5 55.5t-8 65.5t25 62t57.5 46.5t89 18.5q60 0 114 -11t95.5 -36t68.5 -65t34 -98q-32 -11 -63.5 -18.5t-62.5 -13.5q-3 50 -13.5 92t-32.5 72.5t-56.5 48
t-85.5 18.5q-60 -1 -98.5 -26.5t-52.5 -63.5q-10 -26 -8.5 -52.5t14.5 -49.5t36.5 -40.5t57.5 -25.5q56 -14 132 -11q51 2 111.5 13t123.5 32q58 19 114 46t104 63t86 83.5t61 107.5v-307q9 47 26 90.5t43.5 76.5t63 53.5t83.5 21.5q77 3 137.5 -20.5t103.5 -69t66 -110.5
t25 -144v-221q1 -53 15.5 -78.5t63.5 -25.5v-10q-35 2 -69.5 3t-66.5 1t-59.5 -0.5t-47.5 -1.5q-24 -1 -43 -2v10q27 0 42.5 6t23.5 18.5t10.5 32.5t2.5 47v210q0 67 -9 130t-32 111.5t-62.5 76.5t-101.5 27q-54 -2 -94 -32t-66 -77t-40 -105t-15 -116v-231q1 -25 3.5 -43.5
t10 -30.5t22 -18t38.5 -6v-10q-30 2 -68.5 3t-82.5 1q-30 0 -62.5 -1t-64.5 -3v10q25 0 39.5 6.5t22 19t10 32t2.5 46.5v267q0 31 -0.5 54.5t-6 39.5t-17.5 25.5t-35 11.5q-41 -25 -85 -44.5t-91 -34.5q0 -8 0.5 -16t0.5 -30v-66v-123q0 -36 0.5 -70t6.5 -60t20 -42t42 -16
v-10q-52 0 -89 8t-61 26.5t-35.5 50t-11.5 79.5q-28 -79 -88 -121.5t-152 -44.5q-10 0 -14 1zM342 390q-35 -8 -67 -22t-56.5 -38t-39 -58.5t-14.5 -83.5q0 -76 34 -119t110 -43q43 0 81.5 13t66.5 43t44.5 78t16.5 118v123q-38 -6 -73 -9q-27 -3 -53 -3.5t-50 1.5z" />
    <glyph glyph-name="uniF408" unicode="ao" horiz-adv-x="1527" 
d="M278 0q-119 -1 -180.5 52.5t-61.5 145.5q0 47 20 81t53.5 58t78 39t94.5 23q-48 13 -77 39t-40 57.5t-4.5 64t28 59.5t57.5 44t85 17q62 0 116.5 -11.5t96.5 -37.5t68.5 -68.5t31.5 -103.5q2 -17 2 -34v-34q-65 3 -128 9v15q-1 55 -10.5 101t-31.5 80t-57.5 53.5
t-89.5 20.5q-39 0 -69.5 -12t-50.5 -31.5t-30.5 -44.5t-9.5 -51q2 -37 24.5 -68t67.5 -46q62 -20 127.5 -29t129.5 -14q32 -2 64 -3.5t64 -3.5q44 -2 86 -3.5t84 -4.5q0 6 0.5 12.5t0.5 12.5q6 63 32.5 117t70 94t103 62.5t131.5 22.5q77 0 139.5 -26t106.5 -71.5
t67.5 -107.5t23.5 -134q0 -73 -23.5 -135.5t-68 -108t-107.5 -71t-141 -25.5h-19.5t-18.5 2q-66 6 -119.5 33t-91.5 69.5t-60 98t-26 119.5q9 -1 18 -1.5t17 -1.5q27 -2 51 -4.5t46 -5.5q2 -44 11.5 -93t29.5 -91.5t53 -73t82 -38.5q13 2 23 6q18 7 30.5 20.5t21 31t12 37
t2.5 39.5q-2 48 -25.5 80.5t-60 54.5t-83.5 34t-97 19q-23 3 -45.5 5.5t-45.5 4.5q-10 1 -20 1.5t-20 0.5q-42 3 -84 4.5t-86 3.5v-156q0 -36 0.5 -70t6.5 -60t20 -42t42 -16v-11q-52 0 -89 8t-61 26.5t-35.5 50.5t-11.5 80q-28 -79 -88 -122t-152 -44zM947 346
q57 -8 106.5 -21.5t86.5 -37t59 -57.5t25 -82q2 -43 -15.5 -81.5t-53.5 -54.5q64 0 104 34t62 84t30 108.5t8 106.5t-8.5 104.5t-31 105.5t-63 81.5t-103.5 32.5t-103 -32t-63 -80t-31.5 -105t-8.5 -106zM165 189q0 -76 34 -119.5t110 -43.5q43 0 81.5 13.5t66.5 43.5
t44.5 78t16.5 118v84q-49 4 -96.5 9.5t-92.5 15.5q-77 -19 -120.5 -67t-43.5 -132z" />
    <glyph glyph-name="uniF409" unicode="ap" horiz-adv-x="1595" 
d="M36 197q0 51 22.5 86t58 58.5t79.5 37t87 20.5h1q-46 9 -75 33t-41.5 55.5t-8 65.5t25 62t57.5 46.5t89 18.5q60 0 114 -11t95.5 -35.5t68.5 -65t34 -98.5q-32 -11 -63.5 -18.5t-62.5 -13.5q-3 50 -13.5 92t-32.5 72.5t-56.5 48t-85.5 18.5q-60 -1 -98.5 -26.5
t-52.5 -63.5q-10 -26 -8.5 -52.5t14.5 -49t36.5 -40t57.5 -25.5q27 -8 60.5 -11t71.5 -1q54 2 113 13t118 30.5t115 47t105 62.5t87.5 78.5t62.5 94.5v-289q7 49 27.5 93t53 77.5t76 53t96.5 19.5q73 0 128 -24.5t92 -69.5t56 -108.5t19 -141.5q0 -79 -22 -141.5
t-61.5 -105.5t-93 -65.5t-116.5 -22.5q-47 -1 -89.5 16.5t-76.5 48.5t-57 72.5t-32 88.5v-354q0 -25 3 -47t10 -38t20 -25t34 -9v-11q-42 3 -69.5 4.5t-52.5 1.5q-28 0 -59.5 -1.5t-82.5 -4.5v11q21 0 34 9.5t20 25.5t10 38t3 48v517q0 28 -1 49.5t-7 36.5t-18 24t-34 11
q-41 -25 -85 -44.5t-91 -34.5q0 -8 0.5 -16t0.5 -30v-66v-123q0 -36 0.5 -70t6.5 -60t20 -42t42 -16v-10q-52 0 -89 8t-61 26.5t-35.5 50t-11.5 79.5q-28 -78 -88 -121t-152 -44q-8 -2 -14 0q-47 1 -88.5 12.5t-72.5 35.5t-49 61t-18 88zM1011 340q0 -32 3 -75.5t22 -85.5
q14 -36 37 -67t53 -53.5t65.5 -35t74.5 -11.5q46 0 77.5 25t51 68.5t28 103t8.5 127.5q0 54 -5.5 113t-23.5 108t-51 80.5t-87 31.5q-38 0 -73.5 -12t-66.5 -36t-55 -59t-37 -81q-6 -16 -9.5 -35t-6 -38t-4 -37t-1.5 -31zM342 390q-35 -8 -67 -22t-56.5 -37.5t-39 -58.5
t-14.5 -83q0 -77 34 -120t110 -43q43 0 81.5 13.5t66.5 43.5t44.5 78t16.5 117v124q-19 -4 -37 -6l-36 -4q-27 -2 -53 -3t-50 1z" />
    <glyph glyph-name="uniF410" unicode="ar" horiz-adv-x="1317" 
d="M278 0q-52 -1 -96.5 10.5t-76.5 35.5t-50.5 61.5t-18.5 89.5q0 51 22.5 86t58 58.5t79.5 37t87 20.5h1q-46 9 -75 33t-41.5 55.5t-8 65.5t25 62t57.5 46.5t89 18.5q60 0 114 -11t95.5 -35.5t68.5 -65t34 -98.5q-32 -11 -63.5 -18.5t-62.5 -13.5q-3 50 -13.5 92
t-32.5 72.5t-56.5 48t-85.5 18.5q-60 -1 -98.5 -26.5t-52.5 -63.5q-10 -26 -8.5 -52.5t14.5 -49t36.5 -40t57.5 -25.5q27 -8 60.5 -11t71.5 -1q51 2 111.5 13t123.5 32q58 19 114 46t104 63t86 83.5t61 107.5v-298q7 49 27.5 93t57 76t89 49.5t123.5 13.5l-3 -131
q-46 10 -91 10q-44 0 -81 -11t-64 -33t-42.5 -55.5t-15.5 -79.5v-269q1 -26 3.5 -44.5t10 -30.5t22 -18t38.5 -6v-10q-30 2 -68.5 3t-82.5 1q-30 0 -62.5 -1t-64.5 -3v10q25 0 39.5 6.5t22 19t10 32t2.5 46.5v267q0 31 -0.5 54.5t-6 39.5t-17.5 25.5t-35 11.5
q-41 -25 -85 -44.5t-91 -34.5q0 -8 0.5 -16t0.5 -30v-66v-123q0 -36 0.5 -70t6.5 -60t20 -42t42 -16v-10q-52 0 -89 8t-61 26.5t-35.5 50t-11.5 79.5q-28 -78 -88 -121t-152 -44zM165 189q0 -77 34 -120t110 -43q43 0 81.5 13.5t66.5 43.5t44.5 78t16.5 117v124
q-19 -4 -37 -6l-36 -4q-27 -2 -53 -3t-50 1q-35 -8 -67 -22t-56.5 -37.5t-39 -58.5t-14.5 -83z" />
    <glyph glyph-name="uniF411" unicode="at" horiz-adv-x="1114" 
d="M36 197q0 51 22.5 86.5t58.5 58.5t80 36.5t87 20.5q-46 9 -75 33t-41.5 55.5t-8 65.5t25 62t57.5 46.5t89 18.5q60 0 114 -11t95.5 -35.5t68.5 -65t34 -98.5q-32 -11 -63.5 -18.5t-62.5 -13.5q-3 50 -13.5 92t-32.5 72.5t-56.5 48t-85.5 18.5q-60 -1 -98.5 -26.5
t-52.5 -63.5q-10 -26 -8.5 -52.5t14.5 -49.5t36.5 -40.5t57.5 -25.5q56 -14 132 -11q51 2 111.5 13t123.5 32q63 20 124.5 59.5t111 92t81.5 116t37 132.5h11v-166h68v-10h-68v-471v-69.5t6 -60t20 -42t42 -15.5v-10q-52 0 -89.5 8t-61.5 26.5t-35.5 50t-11.5 79.5v243
q0 27 -1 47.5t-7 35t-18 23t-33 10.5q-39 -27 -80 -51t-96 -39q0 -8 0.5 -16t0.5 -30v-66v-123q0 -36 0.5 -70t6.5 -60t20 -42t42 -16v-10q-52 0 -89 8t-61 26.5t-35.5 50t-11.5 79.5q-28 -79 -88 -121.5t-152 -44.5q-52 0 -96.5 11.5t-76.5 35.5t-50.5 61.5t-18.5 89.5z
M342 390q-35 -8 -67 -22t-56.5 -38t-39 -58.5t-14.5 -83.5q0 -76 34 -119t110 -43q43 0 81.5 13.5t66.5 43.5t44.5 78t16.5 117v123q-38 -6 -73 -9q-27 -3 -53 -3.5t-50 1.5z" />
    <glyph glyph-name="uniF412" unicode="ce" horiz-adv-x="1384" 
d="M384 0q-76 -5 -140 19t-110 70t-72 110t-26 139q0 73 23.5 135.5t67 108.5t105 71.5t136.5 25.5q133 0 241 -75l-38 -132h-5q-8 39 -24.5 74.5t-41.5 62.5t-57.5 43t-72.5 16q-59 0 -98.5 -27t-64 -71t-35 -100.5t-10.5 -114.5q0 -62 11 -123.5t37 -110.5t68.5 -79.5
t104.5 -30.5q46 4 80.5 19t61 37.5t47.5 50.5t41 58.5t40.5 61.5t46.5 59q-8 69 8.5 137t58.5 122.5t109 88.5t160 34q58 0 107.5 -15t89 -42t69 -64.5t46.5 -82.5q-12 -2 -37 -6.5t-58.5 -10.5t-74.5 -13t-85 -15q66 -1 113.5 -19.5t78 -47t44 -65t11 -74t-20 -74
t-49.5 -64.5q-45 -40 -104 -63.5t-134 -23.5q-69 0 -124 21t-96 56.5t-67 82.5t-38 99q25 30 55.5 53.5t66.5 38.5q-1 -59 9.5 -119.5t34.5 -109t63.5 -80t98.5 -31.5q72 1 128.5 23.5t99.5 60.5q49 44 62 103t-13 112q-16 31 -41.5 52t-57 34t-67.5 18t-73 5
q-39 0 -76.5 -4.5t-70 -11t-58 -13.5t-39.5 -13q-69 -29 -113.5 -78.5t-83.5 -111.5q-26 -39 -49.5 -71t-51 -56t-63 -39t-84.5 -20zM1034 668q-57 0 -94.5 -26.5t-61 -67.5t-34.5 -91t-14 -96q19 7 47.5 15t74.5 17.5t113.5 21t163.5 26.5q-8 39 -22.5 75.5t-37.5 64
t-56.5 44.5t-78.5 17z" />
    <glyph glyph-name="uniF413" unicode="ch" horiz-adv-x="1591" 
d="M383 0q-75 -2 -139 22.5t-110 70t-72 108t-26 137.5q0 73 23.5 135.5t67 108.5t105 71.5t136.5 25.5q133 0 241 -75l-38 -132h-5q-8 39 -24.5 74.5t-41.5 62.5t-57.5 43t-72.5 16q-59 0 -98.5 -27t-64 -71t-35 -100.5t-10.5 -114.5q0 -62 11 -123.5t37 -110.5t68.5 -79.5
t104.5 -30.5q72 2 131 31.5t109 76t92.5 106t82.5 121.5v366q0 31 -0.5 55t-6.5 40t-19 25t-38 11v11q44 4 98 16t96 30v-362q47 60 98.5 98.5t116.5 43.5q77 3 138 -20.5t103.5 -69t65.5 -110.5t25 -144v-221q0 -27 3.5 -46.5t12 -32t24 -19t40.5 -6.5v-10q-35 2 -70 3
t-67 1t-59.5 -0.5t-47.5 -1.5q-24 -1 -43 -2v10q27 0 42.5 6t23.5 18.5t10.5 32t2.5 46.5v211q0 67 -9 130t-31.5 111t-62 76.5t-100.5 27.5q-26 -2 -49 -10t-45 -21q-37 -23 -73 -61t-68 -81.5t-60.5 -88.5t-50.5 -82q-37 -57 -78.5 -114.5t-91.5 -103.5t-110 -75.5
t-135 -32.5zM719 11q49 0 63.5 25.5t15.5 78.5v163q15 23 29.5 45t28.5 45q18 29 36 56t36 53v-86.5v-48v-23.5v-12.5v-14v-28.5v-57v-98q1 -50 16 -74t63 -24v-10q-21 1 -54.5 2t-72.5 1t-81 -1t-80 -2v10z" />
    <glyph glyph-name="uniF414" unicode="cm" horiz-adv-x="2138" 
d="M36 338q0 74 23.5 136.5t67 108t105 71t136.5 25.5q132 0 241 -74l-38 -133h-5q-8 40 -24.5 75.5t-41.5 62.5t-57.5 42.5t-72.5 15.5q-59 0 -98.5 -27t-64 -70.5t-35 -100t-10.5 -114.5q0 -62 11 -123.5t37 -110.5t68.5 -79.5t104.5 -30.5q72 2 131 31t109 76t92.5 106
t82.5 121v192q0 31 -0.5 55t-6.5 40t-19 25t-38 11v11q44 4 98 16t96 30v-188q47 60 98.5 98.5t116.5 43.5q69 3 124.5 -15.5t97.5 -55t68.5 -88.5t36.5 -117q6 52 22 101t43 87.5t65.5 62t89.5 25.5q77 3 138 -20.5t104 -69t66 -110.5t24 -144v-221q0 -27 3.5 -46.5t12 -32
t24 -19t40.5 -6.5v-10q-35 2 -70 3t-67 1t-59.5 -0.5t-47.5 -1.5q-24 -1 -43 -2v10q27 0 42.5 6t23.5 18.5t10.5 32.5t2.5 47v210q0 67 -9 130t-31.5 111.5t-62.5 76.5t-101 27q-59 -2 -100 -36t-66.5 -84t-37 -108t-11.5 -106v-221q0 -27 3.5 -46.5t12 -32t24 -19
t40.5 -6.5v-10q-35 2 -70 3t-67 1t-59.5 -0.5t-47.5 -1.5q-24 -1 -43 -2v10q27 0 42.5 6t23.5 18.5t10.5 32.5t2.5 47v210q0 67 -9 130t-31.5 111.5t-62 76.5t-100.5 27q-26 -2 -49 -10t-45 -21q-36 -21 -72 -59.5t-69 -83t-61.5 -89.5t-49.5 -81q-36 -56 -78 -113.5
t-92.5 -104t-111 -76.5t-133.5 -31q-75 -2 -139 22.5t-110 69.5t-72 107.5t-26 137.5zM719 11q49 0 63.5 25.5t15.5 79.5v162q15 23 29.5 45.5t28.5 45.5q18 28 36 55t36 53v-86v-48v-24v-12v-13.5v-29v-57v-97.5q1 -51 16 -75t63 -24v-10q-21 2 -54 2.5t-73 0.5
q-39 0 -81 -0.5t-80 -2.5v10z" />
    <glyph glyph-name="uniF415" unicode="cn" horiz-adv-x="1591" 
d="M36 338q0 73 23.5 135.5t67 108.5t105 71.5t136.5 25.5q133 0 241 -75l-38 -132h-5q-8 39 -24.5 74.5t-41.5 62.5t-57.5 43t-72.5 16q-59 0 -98.5 -27t-64 -71t-35 -100.5t-10.5 -114.5q0 -62 11 -123.5t37 -110.5t68.5 -79.5t104.5 -30.5q72 2 131 31.5t109 76t92.5 106
t82.5 121.5v191q0 31 -0.5 55t-6.5 40.5t-19 25.5t-38 11v10q44 4 98 16t96 30v-187q47 60 98.5 98.5t116.5 43.5q76 3 136 -20t102.5 -66.5t66.5 -106t27 -138.5v-234q0 -27 3.5 -46.5t12 -32t24 -19t40.5 -6.5v-10q-35 2 -70 3t-67 1t-59.5 -0.5t-47.5 -1.5q-24 -1 -43 -2
v10q27 0 42.5 6t23.5 18.5t10.5 32t2.5 46.5v211q0 67 -9 130t-31.5 111t-62 76.5t-100.5 27.5q-26 -2 -49 -10t-45 -21q-37 -23 -73 -61t-68 -81.5t-60.5 -88.5t-50.5 -82q-37 -57 -78.5 -114.5t-91.5 -103.5t-110 -75.5t-135 -32.5q-75 -2 -139 22.5t-110 70t-72 108
t-26 137.5zM719 11q49 0 63.5 25.5t15.5 78.5v163q15 23 29.5 45t28.5 45q18 29 36 56t36 53v-86.5v-48v-23.5v-12.5v-14v-28.5v-57v-98q1 -50 16 -74t63 -24v-10q-21 1 -54.5 2t-72.5 1t-81 -1t-80 -2v10z" />
    <glyph glyph-name="uniF416" unicode="co" horiz-adv-x="1409" 
d="M383 2q-76 0 -139.5 24.5t-109.5 69t-72 106.5t-26 137q0 73 23.5 135.5t67 108.5t105 71.5t136.5 25.5q133 0 241 -75l-38 -132h-5q-8 40 -24.5 75.5t-41.5 62.5t-57.5 42.5t-72.5 15.5q-59 0 -98.5 -27t-64 -71t-35 -100.5t-10.5 -114.5q0 -62 11 -123.5t37 -110.5
t68.5 -79.5t104.5 -30.5q46 0 91.5 16t89 42.5t85 59.5t79.5 66q-30 67 -30 152q0 70 24 130.5t68 105.5t106.5 70.5t139.5 25.5t139.5 -26t106.5 -72t67.5 -107.5t23.5 -133.5q0 -73 -23.5 -135.5t-68 -108t-107.5 -71t-141 -25.5q-100 0 -174 44t-116 119q17 15 29.5 26.5
t23 20t20 15.5t21.5 15q6 -38 18 -75t31.5 -68t47.5 -53.5t66 -29.5q31 10 56.5 39.5t38.5 66.5t9 75.5t-31 65.5q-24 24 -52.5 35.5t-59.5 11.5q-32 0 -64 -11t-63 -30q-14 -8 -24.5 -16t-21.5 -17.5t-24 -21.5t-32 -28q-38 -33 -79.5 -65.5t-85.5 -59t-90 -42.5t-94 -16z
M1035 669q-63 0 -103.5 -32.5t-63 -81.5t-31 -105t-8.5 -104q0 -32 3 -66q34 21 65.5 30t60.5 9q38 0 69 -13.5t53 -35.5q28 -28 33.5 -66t-5 -75.5t-34 -69t-53.5 -47.5q4 0 8 -0.5t8 -0.5q64 0 104 34t62.5 84.5t30.5 109t8 106.5t-8.5 104.5t-31.5 105.5t-63.5 81.5
t-103.5 32.5z" />
    <glyph glyph-name="uniF417" unicode="ib" horiz-adv-x="1282" 
d="M33 797q-16 -32 -12 -61t22 -51.5t46 -36t60 -13.5h7q45 1 110 19t139 51.5t150 82.5t143 112v-463q9 58 33 103t58 76t75.5 47.5t86.5 16.5q73 0 128 -24.5t92 -69.5t56 -108.5t19 -141.5q0 -79 -22 -141.5t-61 -105.5t-93 -65.5t-117 -22.5q-47 -1 -89.5 17t-76.5 48.5
t-57 72t-32 88.5v-226h-197v10q21 0 34 9.5t20.5 26t10 38.5t2.5 48v526q-1 41 -12 61.5t-50 24.5q-40 -23 -82 -42.5t-87 -36.5v-557q1 -50 16.5 -74t62.5 -24v-10q-30 2 -70.5 3t-86.5 1q-32 0 -65.5 -1t-65.5 -3v10q25 0 40.5 6.5t24 19t12 32t3.5 46.5v377q0 31 -0.5 55
t-6.5 40t-19 25t-38 11q-2 1 -21 2.5t-48 17.5q-43 24 -59 67.5t8 90.5q23 47 71 67.5t102 20.5q22 0 47.5 -3t47 -12t35.5 -26.5t14 -46.5q0 -32 -20.5 -54.5t-52.5 -22.5t-52.5 20t-20.5 57q0 26 12.5 46t34.5 28q-23 3 -46 3q-51 0 -95.5 -18t-67.5 -63zM699 340
q-1 -32 2.5 -75t21.5 -86q14 -36 37 -67t53 -53.5t65.5 -35t74.5 -11.5q46 0 77.5 25t51 68.5t28 103t8.5 127.5q0 54 -5.5 113t-23.5 108t-51 80.5t-87 31.5q-38 0 -73.5 -12t-66.5 -36t-55 -59t-37 -81q-6 -16 -9.5 -35t-6 -38t-3.5 -37t-1 -31z" />
    <glyph glyph-name="uniF418" unicode="ih" horiz-adv-x="1361" 
d="M33 796q-16 -32 -12 -61t22 -51.5t46 -36t60 -13.5q46 0 101.5 15t111.5 38t109 51.5t94 55.5q35 23 68 49.5t65 56.5v-463q9 47 26 90.5t43.5 77t63 53.5t83.5 22q77 3 138 -21t103.5 -69.5t65.5 -110t25 -143.5v-221q1 -53 15.5 -78.5t63.5 -25.5v-10q-35 2 -69.5 3
t-66.5 1t-59.5 -0.5t-47.5 -1.5q-24 -1 -43 -2v10q27 0 42.5 6t23.5 18.5t10.5 32t2.5 46.5v211q0 67 -9 130t-32 111.5t-62.5 76.5t-101.5 27q-55 -2 -95 -32.5t-66 -78.5t-39.5 -107.5t-14.5 -117.5v-225q1 -50 16.5 -74t62.5 -24v-10q-21 1 -54.5 2t-72.5 1t-81 -1
t-80 -2v10q25 0 40 6.5t23.5 19t12 32t3.5 46.5v551q-2 36 -13.5 55.5t-48.5 22.5q-40 -23 -82 -42.5t-87 -35.5v-557q1 -51 16.5 -75t62.5 -24v-10q-30 2 -70.5 3t-86.5 1q-32 0 -65.5 -1t-65.5 -3v10q25 0 40.5 6.5t24 19t12 32.5t3.5 47v376q0 31 -0.5 55t-6.5 40.5
t-19 25.5t-38 11q-2 0 -21 2t-48 18q-43 24 -59 67t8 91q23 47 70.5 67t101.5 20q22 0 47.5 -3t47.5 -12t36 -26.5t14 -46.5q0 -31 -20.5 -54t-52.5 -23t-52.5 20.5t-20.5 56.5q0 26 12.5 46.5t34.5 28.5q-30 4 -61.5 2.5t-59.5 -10.5t-51 -26.5t-37 -44.5z" />
    <glyph glyph-name="uniF419" unicode="ik" horiz-adv-x="1203" 
d="M33 797q-16 -32 -12 -61t22 -51.5t46 -36t60 -13.5q46 0 101.5 14.5t111.5 38t109 51.5t94 55q69 46 133 106v-621q12 44 35.5 73.5t52.5 52.5t61.5 42t63 41.5t56.5 52t43 72.5q7 20 -0.5 36t-35.5 22l1 8q26 -2 44 -2.5t36 -0.5q17 0 35.5 0.5t47.5 2.5h3v-8
q-29 -3 -48.5 -9t-33.5 -17t-26.5 -28t-28.5 -42q-20 -36 -46.5 -61t-55.5 -45t-58.5 -37.5t-55.5 -38.5q11 3 21 4t21 1q26 0 49.5 -7t40.5 -18q28 -17 50 -45t41 -62t37.5 -70.5t39.5 -71t46.5 -64t58.5 -49.5v-10q-30 1 -49.5 1h-37.5t-37.5 -0.5t-49.5 -0.5
q-15 26 -30.5 62.5t-31.5 76.5t-32.5 80.5t-33.5 74t-34.5 56.5t-35.5 29q-5 2 -10.5 3t-10.5 1q-21 0 -41 -18q-26 -27 -42.5 -64.5t-18.5 -93.5v-98q1 -51 16.5 -75t62.5 -24v-10q-21 2 -54 2.5t-73 0.5q-39 0 -81 -0.5t-80 -2.5v10q25 0 40 6.5t23.5 19t12 32.5t3.5 47
v550q-2 37 -13.5 56.5t-48.5 22.5q-40 -23 -82 -42.5t-87 -36.5v-557q1 -50 16.5 -74t62.5 -24v-10q-30 2 -70.5 3t-86.5 1q-32 0 -65.5 -1t-65.5 -3v10q25 0 40.5 6.5t24 19t12 32t3.5 46.5v377q0 31 -0.5 55t-6.5 40t-19 25t-38 11q-2 1 -21 2.5t-48 17.5q-43 24 -59 67.5
t8 90.5q23 47 71 67.5t102 20.5q22 0 47.5 -3t47 -12t35.5 -26.5t14 -46.5q0 -32 -20.5 -54.5t-52.5 -22.5t-52.5 20t-20.5 57q0 26 12.5 46t34.5 28q-21 3 -43 3q-51 1 -97 -17.5t-69 -63.5z" />
    <glyph glyph-name="uniF420" unicode="il" horiz-adv-x="813" 
d="M33 797q-16 -32 -12 -61t22 -51.5t46 -36t60 -13.5q46 0 101.5 14.5t111.5 38t109 51.5t94 55q69 46 133 106v-790q1 -51 16.5 -75t62.5 -24v-10q-21 2 -54 2.5t-73 0.5q-39 0 -81 -0.5t-80 -2.5v10q25 0 40 6.5t23.5 19t12 32.5t3.5 47v550q-2 37 -13.5 56.5t-48.5 22.5
q-40 -23 -82 -42.5t-87 -36.5v-557q1 -50 16.5 -74t62.5 -24v-10q-30 2 -70.5 3t-86.5 1q-32 0 -65.5 -1t-65.5 -3v10q25 0 40.5 6.5t24 19t12 32t3.5 46.5v377q0 31 -0.5 55t-6.5 40t-19 25t-38 11q-2 1 -21 2.5t-48 17.5q-43 24 -59 67.5t8 90.5q23 47 71 67.5t102 20.5
q22 0 47.5 -3t47 -12t35.5 -26.5t14 -46.5q0 -32 -20.5 -54.5t-52.5 -22.5t-52.5 20t-20.5 57q0 26 12.5 46t34.5 28q-21 3 -43 3q-51 1 -97 -17.5t-69 -63.5z" />
    <glyph glyph-name="uniF421" unicode="in" horiz-adv-x="1361" 
d="M33 658q-16 -32 -12 -61t22 -51.5t46 -36t60 -13.5q46 0 101.5 14.5t111.5 38t109 52t94 55.5q35 23 68 49.5t65 55.5v-324q9 48 26 91.5t43.5 76.5t63 53.5t83.5 21.5q77 3 138 -20.5t103.5 -69t65.5 -110.5t25 -144v-221q1 -53 15.5 -78.5t63.5 -25.5v-10
q-35 2 -69.5 3t-66.5 1t-59.5 -0.5t-47.5 -1.5q-24 -1 -43 -2v10q27 0 42.5 6t23.5 18.5t10.5 32.5t2.5 47v210q0 67 -9 130t-32 111.5t-62.5 76.5t-101.5 27q-55 -2 -95 -32.5t-66 -78.5t-39.5 -107t-14.5 -117v-225q1 -51 16.5 -75t62.5 -24v-10q-21 2 -54 2.5t-73 0.5
q-39 0 -81 -0.5t-80 -2.5v10q25 0 40 6.5t23.5 19t12 32.5t3.5 47v411q-2 37 -13.5 56.5t-48.5 22.5q-78 -46 -169 -78v-419q1 -50 16.5 -74t62.5 -24v-10q-30 2 -70.5 3t-86.5 1q-32 0 -65.5 -1t-65.5 -3v10q25 0 40.5 6.5t24 19t12 32t3.5 46.5v238q0 31 -0.5 55
t-6.5 40.5t-19 25.5t-38 11q-2 0 -21 1.5t-48 18.5q-43 24 -59 67t8 91q23 46 71 66.5t102 20.5q22 0 47.5 -3t47 -12t35.5 -26.5t14 -46.5q0 -32 -20.5 -54.5t-52.5 -22.5t-52.5 20t-20.5 57q0 26 12.5 46t34.5 28q-23 3 -46 3q-51 0 -95.5 -18t-67.5 -63z" />
    <glyph glyph-name="uniF422" unicode="im" horiz-adv-x="1909" 
d="M33 658q-16 -32 -12 -61t22 -51.5t46 -36t60 -13.5q46 0 101.5 14.5t111.5 38t109 52t94 55.5q35 23 68 49.5t65 55.5v-324q9 48 26 91.5t43.5 76.5t63 53.5t83.5 21.5q69 3 125 -16t97.5 -55.5t68 -89.5t36.5 -118q6 53 22 102.5t43 88t65.5 62.5t90.5 25
q77 3 138 -20.5t103.5 -69t65.5 -110.5t25 -144v-220q1 -54 15.5 -79t63.5 -25v-11q-35 2 -70 3t-67 1t-59.5 -0.5t-47.5 -1.5q-24 -1 -43 -2v11q27 0 42.5 6t24 18.5t11 32t2.5 46.5v211q0 67 -9 130t-32 111t-62.5 76.5t-101.5 26.5q-54 -1 -94 -31t-66.5 -77.5t-40 -106
t-14.5 -116.5v-223q1 -53 15.5 -78.5t63.5 -25.5v-10q-35 2 -69.5 3t-66.5 1t-59.5 -0.5t-47.5 -1.5q-24 -1 -43 -2v10q27 0 42.5 6t23.5 18.5t10.5 32.5t2.5 47v210q0 67 -9 130t-32 111.5t-62.5 76.5t-101.5 27q-55 -2 -95 -32.5t-66 -78.5t-39.5 -107t-14.5 -117v-225
q1 -51 16.5 -75t62.5 -24v-10q-21 2 -54 2.5t-73 0.5q-39 0 -81 -0.5t-80 -2.5v10q25 0 40 6.5t23.5 19t12 32.5t3.5 47v411q-2 37 -13.5 56.5t-48.5 22.5q-78 -46 -169 -78v-419q1 -50 16.5 -74t62.5 -24v-10q-30 2 -70.5 3t-86.5 1q-32 0 -65.5 -1t-65.5 -3v10
q25 0 40.5 6.5t24 19t12 32t3.5 46.5v238q0 31 -0.5 55t-6.5 40.5t-19 25.5t-38 11q-2 0 -21 1.5t-48 18.5q-43 24 -59 67t8 91q23 46 71 66.5t102 20.5q22 0 47.5 -3t47 -12t35.5 -26.5t14 -46.5q0 -32 -20.5 -54.5t-52.5 -22.5t-52.5 20t-20.5 57q0 26 12.5 46t34.5 28
q-23 3 -46 3q-51 0 -95.5 -18t-67.5 -63z" />
    <glyph glyph-name="uniF423" unicode="ir" horiz-adv-x="1005" 
d="M34 658q-16 -32 -12 -61t22 -51.5t46 -36t60 -13.5q46 0 101.5 14.5t111.5 38t109 52t94 55.5q35 23 68 49.5t65 55.5v-313q7 49 27.5 92.5t56.5 75.5t88.5 49.5t123.5 13.5l-2 -130q-23 5 -45.5 7.5t-43.5 2.5q-44 0 -81.5 -11t-65 -33.5t-43 -56.5t-15.5 -80v-268
q1 -51 16.5 -75t62.5 -24v-10q-21 2 -54 2.5t-73 0.5q-39 0 -81 -0.5t-80 -2.5v10q49 0 63.5 25.5t15.5 79.5v411q-2 37 -13.5 56.5t-48.5 22.5q-78 -46 -169 -78v-419q1 -50 16.5 -74t62.5 -24v-10q-30 2 -70.5 3t-86.5 1q-32 0 -65.5 -1t-65.5 -3v10q25 0 40.5 6.5t24 19
t12 32t3.5 46.5v238q0 31 -0.5 55t-6.5 40.5t-19 25.5t-38 11q-2 0 -21 1.5t-48 18.5q-44 24 -59.5 67.5t8.5 90.5q23 46 71 66.5t102 20.5q22 0 47.5 -3t47 -12t35.5 -26.5t14 -46.5q0 -32 -20.5 -54.5t-52.5 -22.5t-52.5 20t-20.5 57q0 26 12.5 46t34.5 28q-23 3 -46 3
q-51 0 -95.5 -18t-67.5 -63z" />
    <glyph glyph-name="uniF424" unicode="it" horiz-adv-x="803" 
d="M33 743q-16 -32 -12 -61t22 -51.5t46 -36t60 -13.5q46 0 101.5 15t111.5 38t109 51.5t94 55.5q35 23 68 49.5t65 56.5v-168h69v-10h-69v-540q1 -25 3.5 -46.5t10 -37.5t20.5 -25t34 -9v-10q-51 0 -88 7.5t-61 25.5t-36 48.5t-13 76.5v454q-2 36 -13.5 55.5t-48.5 23.5
q-40 -23 -82 -43t-87 -36v-504q1 -50 16.5 -74t62.5 -24v-10q-30 2 -70.5 3t-86.5 1q-32 0 -65.5 -1t-65.5 -3v10q25 0 40.5 6.5t24 19t12 32t3.5 46.5v323q0 52 -4 83.5t-31 42.5q-12 5 -29 6q-2 1 -21 2.5t-48 17.5q-43 24 -59 67t8 91q23 47 70.5 67t101.5 20
q22 0 47.5 -3t47.5 -12t36 -26.5t14 -46.5q0 -31 -20.5 -54t-52.5 -23t-52.5 20.5t-20.5 56.5q0 26 12.5 46.5t34.5 28.5q-21 3 -43 3q-51 1 -97 -18t-69 -64z" />
    <glyph glyph-name="uniF425" unicode="jb" horiz-adv-x="1285" 
d="M91 -188q-38 -2 -78.5 4.5t-79.5 15.5l42 161h8q6 -29 14.5 -59t22.5 -54t34.5 -39.5t50.5 -15.5q41 0 62.5 19.5t31 51.5t10.5 74.5t2 89.5v432q0 31 -0.5 55t-6.5 40.5t-19 25.5t-38 11q-2 0 -21 2t-48 18q-43 24 -59 67t8 91q23 47 70.5 67t101.5 20q22 0 47.5 -3
t47.5 -12t36 -26.5t14 -46.5q0 -31 -20.5 -54t-52.5 -23t-52.5 20.5t-20.5 56.5q0 26 12.5 46.5t34.5 28.5q-30 4 -61.5 2.5t-59.5 -10.5t-51 -26.5t-37 -44.5q-16 -32 -11.5 -61t22 -51.5t45.5 -36t60 -13.5h7q45 1 110 19t139 51.5t150 82.5t143 113v-463q9 58 33 103
t58 76t75.5 47t86.5 16q73 0 128 -24t92 -69t56 -108.5t19 -142.5t-22 -141t-61 -105t-93 -65.5t-117 -22.5q-47 -1 -89.5 16.5t-76.5 48.5t-57 72t-32 88v-226h-197v11q21 0 34 9.5t20.5 25.5t10 38t2.5 48v527q-1 40 -12 61t-50 24q-40 -23 -82 -42.5t-87 -35.5v-519
q-1 -173 -62 -253t-187 -83zM702 341q-1 -32 2.5 -75.5t21.5 -86.5q14 -36 37 -67t53 -53.5t65.5 -35t74.5 -11.5q46 0 77.5 25t51 68.5t28 103t8.5 127.5q0 54 -5.5 113t-23.5 108t-51 81t-87 32q-38 0 -73.5 -12t-66.5 -36t-55 -59t-37 -81q-6 -16 -9.5 -35t-6 -38
t-3.5 -37t-1 -31z" />
    <glyph glyph-name="uniF426" unicode="jh" horiz-adv-x="1370" 
d="M-19 -7h8q6 -29 14.5 -59t22.5 -54t34.5 -39.5t50.5 -15.5q41 0 62.5 19.5t31 51.5t10.5 74.5t2 89.5v432q0 31 -0.5 55t-6.5 40t-19 25t-38 11q-2 1 -21 2.5t-48 17.5q-43 24 -59 67.5t8 90.5q23 47 71 67.5t102 20.5q22 0 47.5 -3t47 -12t35.5 -26.5t14 -46.5
q0 -32 -20.5 -54.5t-52.5 -22.5t-52.5 20t-20.5 57q0 26 12.5 46t34.5 28q-23 3 -46 3q-51 0 -95.5 -18t-67.5 -63q-16 -32 -11.5 -61t22 -51.5t45.5 -36t60 -13.5q46 0 101.5 14.5t111.5 38t109 51.5t94 55q69 46 133 106v-463q7 43 23.5 86t43 78t63.5 57t86 22
q77 3 138 -20.5t103.5 -69t65.5 -110.5t25 -144v-221q1 -53 15.5 -78.5t63.5 -25.5v-10q-35 2 -69.5 3t-66.5 1t-59.5 -0.5t-47.5 -1.5q-24 -1 -43 -2v10q27 0 42.5 6t23.5 18.5t10.5 32.5t2.5 47v210q0 67 -9 130t-32 111.5t-62.5 76.5t-101.5 27q-55 -2 -95 -32.5
t-66 -78.5t-39.5 -107t-14.5 -117v-225q1 -51 16.5 -75t62.5 -24v-10q-20 2 -53.5 2.5t-72.5 0.5q-40 0 -82 -0.5t-80 -2.5v10q25 0 40 6.5t23.5 19t12 32.5t3.5 47v550q-2 37 -13.5 56.5t-48.5 22.5q-40 -23 -82 -42.5t-87 -36.5v-515q0 -175 -61 -255t-188 -84
q-38 -2 -78.5 4.5t-79.5 15.5z" />
    <glyph glyph-name="uniF427" unicode="jk" horiz-adv-x="1209" 
d="M-22 -7h8q6 -29 14.5 -59t22.5 -54t34.5 -39.5t50.5 -15.5q41 0 62.5 19.5t31 51.5t10.5 74.5t2 89.5v432q0 31 -0.5 55t-6.5 40.5t-19 25.5t-38 11q-2 0 -21 2t-48 18q-43 24 -59 67t8 91q23 47 70.5 67t101.5 20q22 0 47.5 -3t47.5 -12t36 -26.5t14 -46.5
q0 -31 -20.5 -54t-52.5 -23t-52.5 20.5t-20.5 56.5q0 26 12.5 46.5t34.5 28.5q-21 3 -43 3q-51 0 -97 -18.5t-69 -63.5q-16 -32 -11.5 -61t22 -51.5t45.5 -36t60 -13.5q62 0 138 24.5t152 63t144 86t115 92.5v-621q12 44 35.5 73.5t52.5 52t61.5 41.5t63 41.5t56.5 52
t43 72.5q7 21 -0.5 36.5t-35.5 21.5l1 9q26 -2 44 -3t36 -1q16 0 35 1t48 3h3v-9q-29 -3 -48.5 -9t-33.5 -17t-26.5 -28t-28.5 -42q-20 -36 -46.5 -60.5t-55.5 -44.5t-58.5 -38t-55.5 -39q11 3 21.5 4t20.5 1q35 0 67 -13.5t57 -38.5q32 -32 56.5 -78.5t50.5 -94.5t57 -91.5
t75 -70.5v-10q-30 1 -49.5 1h-37t-37.5 -0.5t-50 -0.5q-15 26 -30.5 62.5t-31.5 77t-32.5 80.5t-33.5 73.5t-34.5 56.5t-35.5 29q-11 4 -22 4q-21 0 -40 -17q-26 -28 -42.5 -65t-18.5 -93v-99q1 -50 16.5 -74t62.5 -24v-10q-21 1 -54 2t-72.5 1t-81.5 -1t-80 -2v10
q25 0 40 6.5t23.5 19t12 32t3.5 46.5v551q-2 36 -13.5 55.5t-48.5 22.5q-40 -23 -82 -42.5t-87 -35.5v-514q0 -88 -15 -151.5t-46 -105t-78 -62t-110 -22.5q-38 -2 -78.5 4.5t-79.5 15.5z" />
    <glyph glyph-name="uniF428" unicode="jl" horiz-adv-x="822" 
d="M-19 -7h8q6 -29 14.5 -59t22.5 -54t34.5 -39.5t49.5 -15.5q41 0 62.5 19.5t31.5 51.5t11 74.5t2 89.5v432q0 31 -0.5 55t-6.5 40.5t-19 25.5t-38 11q-2 0 -21 2t-48 18q-43 24 -59 67t8 91q23 47 70.5 67t101.5 20q22 0 47.5 -3t47.5 -12t36 -26.5t14 -46.5
q0 -31 -20.5 -54t-52.5 -23t-52.5 20.5t-20.5 56.5q0 26 12.5 46.5t34.5 28.5q-21 3 -43 3q-51 0 -97 -18.5t-69 -63.5q-16 -32 -11.5 -61t22 -51.5t45.5 -36t60 -13.5q62 0 138 24.5t152 63t144 86t115 92.5v-791q1 -50 16.5 -74t62.5 -24v-10q-21 1 -54 2t-72.5 1
t-81.5 -1t-80 -2v10q25 0 40 6.5t23.5 19t12 32t3.5 46.5v551q-2 36 -13.5 55.5t-48.5 22.5q-40 -23 -82 -42.5t-87 -35.5v-512q0 -89 -15 -152.5t-46 -105.5t-78 -62.5t-110 -22.5q-38 -2 -78.5 4.5t-79.5 15.5z" />
    <glyph glyph-name="uniF429" unicode="jn" horiz-adv-x="1364" 
d="M-25 -7h8q6 -29 14.5 -59t22.5 -54t34.5 -39.5t49.5 -15.5q41 0 62.5 19.5t31 51.5t11 74.5t1.5 89.5v293q0 31 -0.5 55t-6 40.5t-18.5 25.5t-38 11q-3 1 -21.5 2.5t-47.5 17.5q-43 24 -59 67t7 91q24 47 72 67.5t102 20.5q22 0 47.5 -3t46.5 -12t35 -26.5t14 -46.5
q0 -32 -20.5 -55t-52.5 -23q-31 0 -51.5 20.5t-20.5 57.5q0 26 12.5 46t34.5 28q-23 3 -46 3q-51 0 -96 -18.5t-67 -63.5q-16 -32 -12 -61t22 -51.5t46 -36t60 -13.5q46 0 101 15t111.5 38t109 51.5t93.5 55.5q35 23 68.5 49.5t65.5 56.5v-324q8 45 24 87.5t42 76.5t63 55.5
t87 23.5q77 3 138 -21t103.5 -69.5t65.5 -110t25 -143.5v-221q1 -53 15.5 -78.5t63.5 -25.5v-10q-35 2 -70 3t-67 1t-59.5 -0.5t-47.5 -1.5q-24 -1 -43 -2v10q27 0 42.5 6t24 18.5t11 32t2.5 46.5v211q0 67 -9 130t-32 111.5t-62.5 76.5t-101.5 27q-55 -2 -95 -32.5
t-66.5 -78.5t-39.5 -107.5t-14 -117.5v-225q1 -50 16 -74t63 -24v-10q-21 1 -54.5 2t-72.5 1t-81 -1t-80 -2v10q49 0 63.5 25.5t15.5 78.5v412q-2 37 -13.5 56t-48.5 23q-41 -23 -82.5 -43t-86.5 -36v-399q-2 -82 -18.5 -141t-47 -97.5t-76.5 -58t-107 -20.5
q-38 -2 -78.5 4.5t-79.5 15.5z" />
    <glyph glyph-name="uniF430" unicode="jm" horiz-adv-x="1915" 
d="M-22 -7h8q6 -29 14.5 -59t22.5 -54t34.5 -39.5t49.5 -15.5q41 0 62.5 19.5t31.5 51.5t11 74.5t2 89.5v293q0 31 -0.5 55t-6.5 40.5t-19 25.5t-38 11q-2 1 -21 2.5t-48 17.5q-43 24 -59 67t8 91q23 47 71 67.5t102 20.5q22 0 47.5 -3t47 -12t35.5 -26.5t14 -46.5
q0 -32 -20.5 -55t-52.5 -23t-52.5 20.5t-20.5 57.5q0 26 12.5 46t34.5 28q-23 3 -46 3q-51 0 -95.5 -18.5t-67.5 -63.5q-16 -32 -11.5 -61t22 -51.5t45.5 -36t60 -13.5q62 0 138 24.5t152 63t144 86t115 92.5v-324q9 47 26 90.5t43.5 77t63 53.5t83.5 22q69 3 125 -16
t97.5 -55.5t68 -89.5t36.5 -118q6 52 22 101.5t43 88.5t65.5 62.5t90.5 25.5q69 3 125 -16t97.5 -56t68 -89.5t36.5 -118.5q2 -16 3 -31.5t2 -32.5v-221q1 -53 15.5 -78.5t63.5 -25.5v-10q-35 2 -70 3t-67 1t-59.5 -0.5t-47.5 -1.5q-24 -1 -43 -2v10q27 0 43 6t24 18.5
t10.5 32.5t2.5 47v210q0 67 -9 130t-32 111.5t-62.5 76.5t-101.5 27q-54 -2 -94 -32t-66.5 -77.5t-40 -105.5t-14.5 -116v-223q1 -53 15.5 -78.5t63.5 -25.5v-10q-35 2 -69.5 3t-66.5 1t-59.5 -0.5t-47.5 -1.5q-24 -1 -43 -2v10q27 0 42.5 6t23.5 18.5t10.5 32t2.5 46.5v211
q0 67 -9 130t-32 111.5t-62.5 76.5t-101.5 27q-55 -2 -95 -32.5t-66 -78.5t-39.5 -107.5t-14.5 -117.5v-225q1 -50 16.5 -74t62.5 -24v-10q-21 1 -54 2t-72.5 1t-81.5 -1t-80 -2v10q49 0 64 25.5t15 78.5v412q-2 37 -13.5 56t-48.5 23q-40 -23 -82 -43t-87 -36v-373
q0 -89 -15 -152.5t-46 -105.5t-78 -62.5t-110 -22.5q-38 -2 -78.5 4.5t-79.5 15.5z" />
    <glyph glyph-name="uniF431" unicode="jr" horiz-adv-x="1010" 
d="M-22 -7h8q6 -29 14.5 -59t22.5 -54t34.5 -39.5t49.5 -15.5q41 0 62.5 19.5t31.5 51.5t11 74.5t2 89.5v293q0 31 -0.5 55t-6.5 40.5t-19 25.5t-38 11q-2 1 -21 2.5t-48 17.5q-44 25 -59 68t8 90t71 67.5t102 20.5q23 0 48.5 -3t46.5 -12.5t35 -27t14 -46.5
q0 -31 -20.5 -54t-52.5 -23t-52.5 20.5t-20.5 56.5q0 26 12.5 46.5t34.5 28.5q-23 3 -46 3q-51 0 -95.5 -18.5t-67.5 -63.5q-16 -32 -11.5 -61t22 -51.5t45.5 -36t60 -13.5q64 0 140.5 25t152.5 64t143.5 86t112.5 91v-313q7 49 27.5 92.5t56.5 75.5t88.5 49t123.5 13
l-2 -130q-23 5 -46 7.5t-44 2.5q-44 0 -81.5 -11t-64.5 -33.5t-42.5 -56t-15.5 -79.5v-269q1 -50 16.5 -74t62.5 -24v-10q-21 1 -54 2t-72.5 1t-81.5 -1t-80 -2v10q49 0 64 25.5t15 78.5v412q-2 37 -13.5 56t-48.5 23q-40 -23 -82 -43t-87 -36v-373q0 -89 -15 -152.5
t-46 -105.5t-78 -62.5t-110 -22.5q-38 -2 -78.5 4.5t-79.5 15.5z" />
    <glyph glyph-name="uniF432" unicode="jt" horiz-adv-x="809" 
d="M-22 -7h8q6 -29 14.5 -59t22.5 -54t34.5 -39.5t50.5 -15.5q41 0 62.5 19.5t31 51.5t10.5 74.5t2 89.5v379q0 52 -4 83t-31 42q-12 6 -29 6q-2 1 -21 2.5t-48 17.5q-43 24 -59 67.5t8 90.5q23 47 71 67.5t102 20.5q22 0 47.5 -3t47 -12t35.5 -26.5t14 -46.5
q0 -32 -20.5 -54.5t-52.5 -22.5t-52.5 20t-20.5 57q0 26 12.5 46t34.5 28q-11 2 -21.5 2.5t-21.5 1.5q-51 0 -97 -18.5t-69 -63.5q-22 -45 -7 -82.5t50 -59.5q32 -20 73 -20q46 0 101.5 14.5t111.5 38t109 51.5t94 55q35 23 68.5 50t64.5 56v-167h69v-10h-69v-541
q1 -25 3.5 -46.5t10 -37t20.5 -24.5t34 -9v-11q-51 0 -88 7.5t-61 25.5t-36 48.5t-13 76.5v454q-2 37 -13.5 56.5t-48.5 22.5q-78 -46 -169 -78v-460q0 -88 -15 -152t-46 -105.5t-78 -62t-110 -22.5q-38 -2 -78.5 4.5t-79.5 15.5z" />
    <glyph glyph-name="uniF433" unicode="et" horiz-adv-x="1095" 
d="M372 1q-83 0 -145 29t-104.5 77t-64 109t-22 124.5t20 124.5t63 109t106 77t149.5 29q74 0 133.5 -23.5t103.5 -65.5q-19 37 -29.5 75.5t-10 76t13 72.5t40.5 65q39 42 95 62.5t110 20.5q48 0 87.5 -15.5t58.5 -46.5q8 -12 10.5 -27t3.5 -32v-163h68v-10h-68v-472v-69.5
t6 -59.5t20 -41.5t42 -15.5v-10q-52 0 -89.5 8t-61.5 26.5t-35.5 50t-11.5 79.5v372q0 30 -0.5 54t-6 40.5t-18.5 26t-38 11.5v10q170 0 182 165q2 27 -9.5 47.5t-32 34t-48 20.5t-58.5 7q-53 0 -107 -20t-91 -60q-31 -34 -42.5 -73.5t-7.5 -81.5t20.5 -84.5t42.5 -82.5
q25 -33 41 -75q-12 -2 -37 -6.5t-58.5 -10.5t-74.5 -13t-85 -15q66 -2 113.5 -20t78 -46.5t44 -65t11 -74t-20 -74t-49.5 -64.5q-45 -40 -104 -63t-134 -23zM170 384q-4 -61 4 -126.5t32 -120t65 -90t104 -36.5q72 1 128.5 23.5t99.5 60.5q49 44 62 103t-13 112
q-16 32 -40 53t-53.5 33.5t-63.5 17.5t-70 5t-71.5 -4t-68.5 -9.5t-62.5 -11.5t-52.5 -10zM374 669q-56 0 -93.5 -25.5t-61 -65.5t-35 -88.5t-14.5 -94.5q35 6 74.5 13t81.5 15q65 11 128.5 22.5t115.5 20.5q-8 39 -22.5 75.5t-38 65t-57 45.5t-78.5 17z" />
    <glyph glyph-name="uniF434" unicode="ot" horiz-adv-x="1093" 
d="M371 1q-77 0 -139 27t-105.5 73.5t-67 110t-23.5 135.5q0 70 24 131t68 106t106.5 70.5t139.5 25.5q73 0 132 -23t103 -64q-19 37 -29.5 75t-9.5 75t13.5 72t40.5 65q39 42 95 62.5t110 20.5q48 0 87.5 -15.5t58.5 -46.5q8 -12 10.5 -27t3.5 -32v-163h68v-10h-68v-471
v-69.5t6 -60t20 -42t42 -15.5v-10q-52 0 -89.5 8t-61.5 26.5t-35.5 50t-11.5 79.5v373q0 30 -0.5 53.5t-6 40t-19 26t-38.5 11.5v10q171 0 183 166q2 27 -9.5 47t-31.5 33.5t-48 20.5t-59 7q-53 0 -107 -20t-91 -60q-30 -33 -42 -72t-9 -79.5t19 -82t40 -80.5
q35 -44 53 -99.5t18 -118.5q0 -73 -23.5 -135.5t-68 -108t-107.5 -71t-141 -25.5zM373 669q-42 0 -74 -15t-54.5 -40.5t-37.5 -58.5t-24 -69t-12.5 -72.5t-3.5 -67.5q0 -32 3.5 -69.5t12.5 -74.5t24 -71.5t38.5 -61t55 -42.5t74.5 -16q64 0 104 34t62.5 84.5t30.5 109
t8 106.5t-8.5 104.5t-31.5 105.5t-63.5 81.5t-103.5 32.5z" />
    <glyph glyph-name="uniF435" unicode="ss" horiz-adv-x="1347" 
d="M119 370q-28 22 -42 52.5t-13.5 63t15.5 65t45.5 59.5t76 45.5t107.5 23.5q9 1 18.5 1.5t19.5 0.5q37 0 68.5 -10t58.5 -27q35 -23 64 -56.5t53.5 -74t46 -85.5t42.5 -90t42 -89t44.5 -82.5t50.5 -70t59 -52.5q22 -14 46.5 -22t53.5 -10q5 -1 11 -1h12q75 0 120.5 28
t65 66.5t14.5 77.5t-30 61q-23 20 -67 31.5t-95 22.5t-102.5 27t-88.5 45q-30 23 -44.5 55t-13 66.5t18.5 68.5t51.5 60.5t85.5 43t121 16.5q37 0 68 -3.5t58 -9.5t52.5 -14t51.5 -17l-37 -144h-8q-5 39 -19.5 71.5t-37.5 56t-53 37t-67 13.5q-67 0 -109.5 -24t-61 -56.5
t-13 -66.5t34.5 -55q17 -12 43.5 -21t58.5 -16.5t67.5 -15t69.5 -17t64 -21.5t52 -29q31 -24 47.5 -59.5t15.5 -74t-20 -76.5t-58.5 -68.5t-100 -49.5t-144.5 -19q-62 0 -109 28.5t-84.5 76t-67.5 107.5t-58.5 122.5t-59 122.5t-68 107.5t-85 76t-110.5 28.5
q-67 0 -109.5 -24t-61 -56.5t-13.5 -66.5t34 -55q25 -18 71.5 -29.5t98.5 -23t102.5 -27t83.5 -40.5q31 -24 47.5 -59.5t15.5 -74t-20 -76.5t-58.5 -68.5t-100.5 -49.5t-145 -19q-71 0 -131 14.5t-124 46.5l41 147h5q5 -45 23 -81.5t46.5 -62.5t67 -40t83.5 -14q75 0 120 28
t64.5 66.5t15 77.5t-29.5 61q-23 20 -67.5 31.5t-95.5 22.5t-102 27t-88 45z" />
    <glyph glyph-name="uniF436" unicode="so" horiz-adv-x="1462" 
d="M119 370q-28 22 -42 52.5t-13.5 63.5t15.5 65.5t45.5 59.5t76 45.5t107.5 23.5q9 1 18.5 1h19.5q38 0 70 -9.5t60 -26.5q33 -20 59.5 -49.5t50 -65t44 -75.5t40.5 -81q31 -62 64 -122t76 -110q-29 43 -44 95t-15 111q0 70 24 130.5t68 105.5t106.5 70.5t139.5 25.5
q78 0 140 -26t106 -71.5t67.5 -107t23.5 -133.5q0 -73 -23.5 -135.5t-68 -108t-107.5 -71.5t-141 -26q-15 0 -29.5 1.5t-28.5 3.5h-2q-2 0 -3.5 0.5t-3.5 0.5t-4 0.5t-4 0.5q-4 2 -7 2q-69 15 -120.5 51.5t-91.5 85.5t-71.5 107t-60.5 116t-58.5 112t-65.5 96t-82 67
t-108 25q-67 0 -109.5 -24t-61 -56.5t-13.5 -66.5t34 -55q25 -18 71.5 -29.5t98.5 -23t102.5 -27t83.5 -40.5q31 -24 47.5 -59t15.5 -73.5t-20 -77t-58.5 -69t-100.5 -49.5t-145 -19q-71 0 -131 14.5t-124 47.5l41 147h5q5 -45 23 -81.5t46.5 -63t67 -40.5t83.5 -14
q75 0 120 28t64.5 66.5t15 77.5t-29.5 61q-23 20 -67.5 31.5t-95.5 23t-102 27t-88 44.5zM1088 670q-42 0 -74 -15t-54.5 -40.5t-37.5 -58.5t-24 -69t-12.5 -72.5t-3.5 -67.5q0 -32 3.5 -69.5t12.5 -74.5t24 -71.5t38.5 -61t55 -42.5t74.5 -16q64 0 104 34t62.5 84.5
t30.5 108.5t8 107q0 32 -3.5 68t-12.5 72t-24 69.5t-38 59t-55 40.5t-74 15z" />
    <glyph glyph-name="uniF437" unicode="st" horiz-adv-x="987" 
d="M119 371q-30 23 -44.5 55t-13.5 66.5t18.5 68t51.5 60t85.5 43t121.5 16.5q34 0 59.5 -2t46 -5t37.5 -7.5t34 -10.5q1 54 10 109t32 99.5t64.5 73t106.5 28.5q28 0 56 -7t50 -21.5t35.5 -38t13.5 -56.5v-162h68v-11h-68v-471v-69.5t6 -60t20 -42t42 -15.5v-10
q-52 0 -89.5 8t-61.5 26.5t-35.5 50t-11.5 79.5v373q0 30 -0.5 53.5t-6 40t-19 26t-38.5 11.5v11q86 0 134.5 41t48.5 124q0 26 -11 46.5t-30.5 34.5t-45.5 21t-56 7q-67 0 -107 -30t-61.5 -77.5t-28.5 -104.5t-7 -111l5 -138h-8q-5 39 -19.5 71.5t-37 56t-52.5 37t-67 13.5
q-67 0 -109.5 -24t-61 -56.5t-13.5 -67t34 -55.5q25 -18 71.5 -29.5t98.5 -23t102.5 -27t83.5 -40.5q31 -24 47.5 -59t15.5 -73.5t-20 -77t-58.5 -69t-100.5 -49.5t-145 -19q-71 0 -130.5 14.5t-124.5 47.5l41 147h5q5 -45 23 -81.5t46.5 -62.5t67 -40.5t83.5 -14.5
q75 0 120 28.5t64.5 67t15 77.5t-29.5 61q-23 20 -67.5 31.5t-95.5 22.5t-102 27t-88 45z" />
    <glyph glyph-name="uniF438" unicode="ve" horiz-adv-x="1233" 
d="M10 679q33 -2 65.5 -3t64.5 -1t65 1t65 3v-10q-19 -2 -31.5 -17.5t-13.5 -34.5q-2 -19 4 -37t14 -35q32 -78 65 -154t66 -153q43 103 115 152t184 57h1q32 5 65 5.5t65 0.5h265q-7 40 -21 79t-37.5 70t-58 49.5t-81.5 18.5q-44 0 -76.5 -16.5t-56 -44.5t-38 -63.5
t-22.5 -73.5q-33 -2 -65.5 -7.5t-63.5 -17.5q13 48 40 90.5t67.5 74t94.5 50t122 18.5q63 0 116 -17.5t94.5 -49t70.5 -75.5t43 -96h-249q31 -5 62.5 -14t59 -24t51 -37t38.5 -52q13 -26 16.5 -55t-1.5 -58q-11 -47 -40.5 -84.5t-71.5 -63.5t-92 -39.5t-101 -13.5
q-93 0 -160.5 37t-109 95.5t-56.5 130.5t-3 143q-4 -2 -7 -3t-7 -3q-53 -27 -87.5 -71t-55 -97.5t-29 -113t-8.5 -118.5h-9l-6 12q-55 129 -109 256t-109 256q-13 29 -26 57t-33 53q-20 24 -44 44zM667 384q-4 -61 4 -126.5t32 -120t65 -90t104 -35.5q72 0 128.5 22.5
t99.5 60.5q24 22 40 48.5t22.5 55t3.5 57t-16 54.5q-36 71 -125.5 101.5t-220.5 30.5q-33 0 -66 -1t-66 -3v-2q-2 -13 -3 -26z" />
    <glyph glyph-name="uniF439" unicode="vi" horiz-adv-x="896" 
d="M11 680q40 -3 70.5 -4t60.5 -1q28 0 58.5 1t69.5 3v-10q-18 -3 -28.5 -12.5t-14.5 -24t-2 -32.5t9 -36q21 -49 44 -103t45 -104t39.5 -92t28.5 -66q20 47 44.5 87t52.5 75.5t58 68.5t62 66q40 42 80 86t78 98h15v-571q1 -50 16.5 -74t62.5 -24v-10q-30 2 -70.5 3t-86.5 1
q-32 0 -65.5 -1t-65.5 -3v10q25 0 40 6.5t23.5 19t12 32t3.5 46.5v216q0 31 -0.5 54.5t-6 40t-17.5 26t-36 11.5q-41 -44 -79.5 -89.5t-70.5 -99.5t-57 -120.5t-39 -152.5h-8q-1 2 -4 9t-8 19q-14 32 -40.5 93.5t-59 137.5t-68.5 159.5t-69 160.5q-22 47 -40.5 66t-37.5 26z
M727 726q-31 0 -51.5 20t-20.5 57q0 33 20 56t52 23q34 0 54 -23.5t20 -55.5t-20.5 -54.5t-53.5 -22.5z" />
    <glyph glyph-name="uniF440" unicode="vj" horiz-adv-x="904" 
d="M88 580q-22 47 -40.5 66t-37.5 26l1 8q40 -3 70.5 -4t60.5 -1q28 0 58.5 1t69.5 3v-10q-18 -3 -28.5 -12.5t-14.5 -24t-2 -32.5t9 -36q21 -49 44 -103t45 -104t39.5 -92t28.5 -66q20 47 44.5 87t52.5 75.5t58 68.5t62 66q40 42 80 86t78 98h15v-551q-4 -164 -65.5 -239
t-183.5 -79q-38 -1 -78.5 5.5t-79.5 14.5l42 162h8q6 -29 14.5 -59t22.5 -54t34.5 -39.5t50.5 -15.5q41 0 62.5 19.5t30.5 51.5t10.5 74.5t1.5 89.5v271q0 31 -0.5 54.5t-6 40t-17.5 26t-36 11.5q-41 -44 -79.5 -89.5t-70.5 -99.5t-57 -120.5t-39 -152.5h-8q-1 2 -12 28
l-75 175q-18 42 -38.5 89t-41.5 95.5l-42 97t-40 94.5zM727 726q-31 0 -51.5 20.5t-20.5 56.5q0 33 20 56t52 23q34 0 54 -23.5t20 -55.5q0 -31 -20.5 -54t-53.5 -23z" />
    <glyph glyph-name="uniF441" unicode="we" horiz-adv-x="1635" 
d="M11 680q39 -2 69.5 -3.5t59.5 -1.5t60.5 1.5l73.5 3.5v-8q-42 -17 -48 -43t8 -65q39 -89 73 -168q15 -34 29.5 -68.5t28 -66t24.5 -57.5t18 -42q36 59 80 114t89 106q-15 36 -30.5 71.5t-30.5 71.5q-13 29 -26 57t-33 53q-10 12 -20.5 23t-23.5 21q33 -2 65.5 -3t64.5 -1
t65 1t65 3v-10q-19 -2 -31 -17.5t-14 -34.5t4 -37t14 -35q33 -78 66 -154t65 -153q43 103 115.5 151.5t183.5 57.5h1q32 4 65 5t65 1h266q-7 40 -21.5 79t-38 70t-57.5 49.5t-81 18.5q-44 0 -77 -16.5t-56 -44.5t-37.5 -63.5t-22.5 -73.5q-34 -2 -66.5 -7.5t-63.5 -17.5
q14 48 41 90.5t67.5 74t94 50t121.5 18.5q63 0 116 -17.5t94.5 -49t70.5 -75.5t43 -96h-249q31 -5 62.5 -14t59 -24t51 -37t38.5 -52q14 -26 17 -55t-2 -58q-11 -48 -41.5 -85.5t-72.5 -63t-91.5 -39t-98.5 -13.5q-93 0 -161 37t-109.5 95.5t-56.5 130.5t-3 143q-4 -2 -7 -3
t-7 -3q-53 -27 -87.5 -71t-54.5 -97.5t-28.5 -113t-9.5 -118.5h-9l-159 370q-36 -41 -72.5 -86t-68 -91.5t-56.5 -95t-38 -97.5h-8q-2 5 -14 32.5t-31 72t-43.5 101t-51.5 119.5t-55 128t-54 126q-22 47 -40.5 66t-37.5 26zM1069 385q-4 -62 4 -127.5t32 -120t65.5 -90
t104.5 -35.5q71 0 128 22.5t99 60.5q24 22 40 48.5t22.5 55t3.5 57t-16 54.5q-35 71 -125 101.5t-221 30.5q-33 0 -65.5 -1t-66.5 -3v-2q-2 -13 -3 -26t-2 -25z" />
    <glyph glyph-name="uniF442" unicode="wi" horiz-adv-x="1298" 
d="M11 680q39 -2 69.5 -3.5t59.5 -1.5t60.5 1.5l73.5 3.5v-8q-42 -17 -48 -43t8 -65q39 -89 73 -168q15 -34 29.5 -68.5t28 -66t24.5 -57.5t18 -42q36 59 79.5 113.5t88.5 105.5q-22 51 -43.5 101t-42.5 98q-21 47 -40 66t-38 26l1 8q40 -3 71 -4t61 -1q28 0 58 1t69 3v-10
q-18 -3 -28.5 -12.5t-14 -24t-1.5 -32.5t9 -36q21 -49 44 -103t44.5 -104t39.5 -92t28 -66q21 47 45.5 87t52.5 75.5t58 68.5t61 66q40 42 80 86t79 98h15v-571q1 -50 16 -74t63 -24v-10q-30 2 -71 3t-87 1q-32 0 -65 -1t-65 -3v10q49 0 63.5 25.5t15.5 78.5v216
q0 31 -0.5 54.5t-6 40t-18 26t-35.5 11.5q-42 -44 -80 -89.5t-70.5 -99.5t-57 -120.5t-38.5 -152.5h-8q-2 3 -13 28q-9 22 -24.5 57.5t-34.5 80t-41.5 96.5t-45.5 107q-36 -41 -72.5 -85.5t-68 -91.5t-56.5 -95t-38 -97h-8q-2 5 -14 32.5t-31 72t-43.5 101t-51.5 119.5
t-55 128t-54 126q-22 47 -40.5 66t-37.5 26zM1129 726q-31 0 -52 20.5t-21 56.5q0 33 20 56t53 23t53 -23.5t20 -55.5q0 -31 -20.5 -54t-52.5 -23z" />
    <glyph glyph-name="uniF443" unicode="wj" horiz-adv-x="1295" 
d="M11 680q39 -2 69.5 -3.5t59.5 -1.5t60.5 1.5l73.5 3.5v-8q-42 -17 -48 -43t8 -65q39 -89 73 -168q15 -34 29.5 -68.5t28 -66t24.5 -57.5t18 -42q36 59 79.5 113.5t88.5 105.5q-22 51 -44 101t-42 98q-21 47 -40 66t-38 26l1 8q40 -3 71 -4t61 -1q28 0 58 1t69 3v-10
q-18 -3 -28.5 -12.5t-14.5 -24t-2 -32.5t9 -36q21 -49 44.5 -103t45 -104t39.5 -92t28 -66q21 47 45.5 87t52.5 75.5t58 68.5t61 66q40 42 80 86t79 98h14v-551q-2 -82 -18 -141t-47 -98t-77 -58t-107 -21q-38 -1 -78.5 5.5t-79.5 14.5l43 162h7q6 -29 14.5 -59t22.5 -54
t34.5 -39.5t50.5 -15.5q41 0 62.5 19.5t31 51.5t10.5 74.5t2 89.5v272q0 31 -0.5 54.5t-6 39.5t-18 25.5t-35.5 11.5q-42 -44 -80 -89.5t-70.5 -99.5t-57 -120.5t-38.5 -152.5h-8q-2 2 -5 9.5t-8 18.5l-75 175q-17 38 -34.5 80t-36.5 86q-36 -41 -72.5 -85.5t-68 -91.5
t-56.5 -95t-38 -97h-8q-2 5 -14 32.5t-31 72t-43.5 101t-51.5 119.5t-55 128t-54 126q-22 47 -40.5 66t-37.5 26zM1056 803q0 33 20 56t53 23t53 -23.5t20 -55.5q0 -31 -20.5 -54t-52.5 -23t-52.5 20.5t-20.5 56.5z" />
    <glyph glyph-name=".notdef" horiz-adv-x="499" 
d="M463 700v-700h-427v700h427zM249 371l186 309h-371zM57 650v-601l180 301zM65 21h370l-185 308zM443 47v605l-181 -302z" />
    <glyph glyph-name="uni0000" horiz-adv-x="0" 
 />
    <glyph glyph-name="uni0000" horiz-adv-x="0" 
 />
    <glyph glyph-name="uni000D" unicode="&#xd;" horiz-adv-x="0" 
 />
    <glyph glyph-name="uni000A" unicode="&#xa;" horiz-adv-x="0" 
 />
    <glyph glyph-name="space" unicode=" " horiz-adv-x="443" 
 />
    <glyph glyph-name="exclam" unicode="!" horiz-adv-x="181" 
d="M59 477q-21 163 -21 210q0 12 1 33.5t6.5 41.5t16 35t29.5 15q17 0 27.5 -13.5t16 -32t7 -38t1.5 -31.5q0 -25 -4.5 -79t-15.5 -138q-10 -85 -16.5 -156.5t-8.5 -132.5h-14q-2 61 -8 132t-17 154zM90 1q-26 0 -40 17.5t-14 41.5q0 23 15 41t39 18q22 0 39 -17
q16 -19 16 -42t-15.5 -41t-39.5 -18z" />
    <glyph glyph-name="quotedbl" unicode="&#x22;" horiz-adv-x="334" 
d="M210 772q-1 7 -1 11.5v7.5q0 23 9.5 41t35.5 18t35 -17.5t9 -40.5v-13q0 -7 -1 -11l-36 -264h-16l-34 264q0 2 -1 4zM37 784q-1 3 -1 8q0 22 9.5 40t34.5 18q26 0 36 -17.5t10 -40.5q0 -2 -0.5 -7t-1.5 -12q-1 -2 -1 -5l-34 -264h-17l-34 264q0 5 -0.5 9t-0.5 7z" />
    <glyph glyph-name="numbersign" unicode="#" horiz-adv-x="791" 
d="M59 344h169l53 165h-183l22 68h183l88 273h70l-89 -273h152l88 273h69l-87 -273h161l-21 -68h-163l-53 -165h175l-23 -67h-173l-88 -272h-70l88 272h-151l-88 -272h-69l88 272h-171zM449 344l54 165h-153l-53 -165h152z" />
    <glyph glyph-name="dollar" unicode="$" horiz-adv-x="583" 
d="M78 304h5q7 -41 24 -76.5t42.5 -62t60 -42t76.5 -15.5t72.5 14t50 37t27.5 52t4 59q-5 41 -34 63.5t-69 38.5t-85.5 29t-84 34.5t-64 55.5t-25.5 91q0 46 18 81.5t48.5 61t71.5 40.5t87 18v71h10v-71q55 -2 106 -14t99 -35l-36 -124l-6 1q-6 42 -22 73t-38.5 50.5t-49 29
t-53.5 9.5q-29 0 -55.5 -10t-47 -29.5t-32.5 -47.5t-11 -64q1 -31 18 -52t44 -35.5t61 -25t69.5 -21.5t69 -25t60 -35.5t42.5 -52t16 -75.5t-19 -81.5t-51.5 -63t-75 -42.5t-88.5 -21v-89h-10v89q-75 1 -139.5 19t-127.5 53z" />
    <glyph glyph-name="percent" unicode="%" horiz-adv-x="719" 
d="M524 31q-40 0 -70 15t-49.5 41.5t-29.5 61.5t-10 76q0 40 10 75t29.5 61.5t49.5 41.5t70 15t69.5 -15.5t49.5 -41.5t30 -61.5t10 -74.5q0 -40 -10 -75t-30.5 -61.5t-50 -42t-68.5 -15.5zM36 603q0 40 10 75t29.5 61.5t49.5 41.5t70 15q39 0 69 -15.5t49.5 -41.5t29.5 -61
t10 -75t-10 -75t-30 -61.5t-49.5 -41.5t-68.5 -15q-40 0 -70 15t-49.5 41t-29.5 61t-10 76zM524 408q-30 0 -48.5 -17.5t-28 -44.5t-13 -59t-3.5 -62t3.5 -62.5t13 -59t28 -44t48.5 -17.5t48 17.5t28 44t13.5 59t3.5 62.5q0 29 -3.5 61.5t-13.5 59.5t-28.5 44.5t-47.5 17.5z
M195 784q-30 0 -48.5 -17t-28.5 -43t-13.5 -58t-3.5 -62t3.5 -62.5t13.5 -59t28.5 -44t48.5 -17.5t48 17.5t28 44.5t13.5 59t3.5 62q0 29 -3.5 61t-13.5 58.5t-28.5 43.5t-47.5 17zM109 31v9l489 756h10v-8l-489 -757h-10z" />
    <glyph glyph-name="ampersand" unicode="&#x26;" horiz-adv-x="771" 
d="M270 0q-48 0 -90.5 14t-74.5 39.5t-50.5 60t-18.5 76.5q0 39 14.5 70.5t38.5 56.5t56.5 45t68.5 36q-27 39 -45.5 80t-24 80.5t5.5 76.5t43 70q26 26 58 38.5t64 12.5q29 0 56.5 -9.5t48.5 -27.5t34 -43.5t13 -58.5q0 -34 -15 -63t-39.5 -53t-55 -44t-60.5 -35
q24 -30 55 -64t64.5 -68.5t67 -67t61.5 -58.5q25 45 26.5 86.5t-13 73.5t-42 52t-61.5 22v8h184q-5 -81 -28 -143t-55 -105q42 -37 85.5 -69.5t93.5 -61.5v-9q-52 1 -75 1.5t-30 0.5h-16t-26 1l-87 71q-55 -48 -114.5 -70t-116.5 -22zM134 238q0 -44 17.5 -80.5t46 -63
t65.5 -41.5t77 -15q39 0 77.5 15.5t71.5 48.5q-32 29 -67 63t-70 71t-68 75.5t-61 75.5q-41 -27 -65 -63.5t-24 -85.5zM223 711q-23 -26 -23.5 -62t12 -74.5t34.5 -76t43 -65.5q32 18 52.5 38.5t32.5 43.5t16.5 47t4.5 48q0 31 -9.5 55t-25 40.5t-35 24.5t-39.5 8
q-17 0 -33.5 -6.5t-29.5 -20.5z" />
    <glyph glyph-name="quotesingle" unicode="'" horiz-adv-x="162" 
d="M37 780q-1 3 -1 13q0 29 12 44q10 15 32 15q26 0 36 -17.5t10 -40.5q0 -2 -0.5 -7t-1.5 -12q-1 -2 -1 -5l-34 -264h-17l-35 264v10v0z" />
    <glyph glyph-name="parenleft" unicode="(" horiz-adv-x="294" 
d="M36 433q0 73 15 138.5t42 126.5t65.5 118.5t86.5 115.5h13q-36 -51 -58.5 -112t-35 -126.5t-17 -132t-4.5 -128.5q0 -65 4.5 -130.5t17 -129.5t35 -124.5t58.5 -114.5h-13q-47 58 -85.5 115t-66 117.5t-42.5 126t-15 140.5z" />
    <glyph glyph-name="parenright" unicode=")" horiz-adv-x="294" 
d="M36 -96q37 55 59.5 115t35.5 124t17.5 129.5t4.5 130.5q0 63 -4.5 129.5t-17.5 132t-36 126t-59 111.5h13q47 -57 85.5 -114t66 -117.5t42.5 -126.5t15 -141t-14.5 -140t-41.5 -125t-66 -117.5t-87 -116.5h-13z" />
    <glyph glyph-name="asterisk" unicode="*" horiz-adv-x="584" 
d="M36 588v12h241l-175 175l9 8l175 -174v247h12v-247l171 170l8 -9l-169 -170h240v-12h-241l166 -166l-9 -9l-166 166v-235h-12v235l-170 -171l-9 9l170 171h-241z" />
    <glyph glyph-name="plus" unicode="+" horiz-adv-x="584" 
d="M36 415v12h250v256h12v-256h250v-12h-250v-244h-12v244h-250z" />
    <glyph glyph-name="comma" unicode="," horiz-adv-x="186" 
d="M133 11q-12 -2 -28.5 -2t-31.5 4.5t-26 16.5t-11 35q0 26 16.5 42.5t39.5 16.5q32 0 45 -22.5t13 -53.5q0 -51 -22.5 -97t-66.5 -85l-7 6q12 11 25 26.5t24 33.5t19 38.5t11 40.5z" />
    <glyph glyph-name="hyphen" unicode="-" horiz-adv-x="438" 
d="M36 367v16h366v-16h-366z" />
    <glyph glyph-name="period" unicode="." horiz-adv-x="181" 
d="M36 62q0 23 15 41t39 18t39.5 -18t15.5 -41t-15.5 -40.5t-39.5 -17.5q-25 0 -39.5 17t-14.5 41z" />
    <glyph glyph-name="slash" unicode="/" horiz-adv-x="651" 
d="M615 872v-10l-566 -892h-13v10l566 892h13z" />
    <glyph glyph-name="zero" unicode="0" horiz-adv-x="772" 
d="M386 0q-82 0 -147 35t-110 94t-69 136t-24 160q0 84 23.5 161t68.5 136t110 94t148 35q82 0 147 -35t110 -93.5t69 -135t24 -160.5q0 -83 -24.5 -160.5t-70 -136.5t-110 -94.5t-145.5 -35.5zM164 425q0 -72 9.5 -145.5t34.5 -133.5t68.5 -97.5t110.5 -37.5q66 0 109 38
t67.5 98t34.5 133.5t10 144.5q0 72 -10 146t-34.5 133.5t-67.5 97.5t-109 38t-109 -38t-68.5 -98t-35.5 -134t-10 -145z" />
    <glyph glyph-name="one" unicode="1" horiz-adv-x="360" 
d="M36 6q49 0 63.5 25.5t15.5 79.5v672l-63 12v10l180 46h13v-746q0 -23 3.5 -41.5t12 -31t23.5 -19.5t40 -7v-10q-30 2 -71 3t-87 1q-32 0 -65 -1t-65 -3v10z" />
    <glyph glyph-name="two" unicode="2" horiz-adv-x="682" 
d="M36 1q12 55 32.5 100t50.5 82.5t69 69.5t88 61q43 26 86 56.5t77.5 67t56 80t21.5 96.5q0 45 -12.5 85.5t-37 72t-60 50t-81.5 18.5q-47 0 -83.5 -17t-64 -46t-46.5 -68.5t-29 -85.5h-9l-41 154q62 36 129 55t139 19q80 0 140.5 -20t101.5 -54.5t62 -80.5t21 -99
q0 -58 -20.5 -99.5t-55 -71t-79 -51t-92.5 -40t-95.5 -37.5t-88 -44.5t-70 -60t-41.5 -83.5h343q37 0 62 2.5t45.5 12.5t38.5 28.5t41 50.5l8 -3l-39 -205q-25 2 -52.5 3t-53 1t-46 0.5t-30.5 0.5h-385v0z" />
    <glyph glyph-name="three" unicode="3" horiz-adv-x="731" 
d="M85 254h8q11 -52 32 -96.5t51.5 -77t72 -51t94.5 -18.5q52 0 94 19.5t70.5 51.5t44 74.5t15.5 88.5q0 106 -61.5 159t-168.5 53v9q100 0 146 45.5t46 145.5q0 37 -11.5 70t-34 58t-56 40t-76.5 15q-45 0 -82 -15.5t-65 -43.5t-47 -67t-28 -85h-7l-35 154q63 36 131 52
t141 16q52 0 104.5 -10.5t95 -33.5t69 -59.5t26.5 -88.5q0 -46 -22.5 -81t-59 -59t-82.5 -38t-92 -19q54 -6 107 -19.5t95.5 -38t68.5 -62t26 -91.5q0 -66 -30.5 -113t-80 -78t-113 -45.5t-129.5 -14.5q-81 0 -159.5 22.5t-146.5 64.5z" />
    <glyph glyph-name="four" unicode="4" horiz-adv-x="662" 
d="M36 213v10l488 628h9v-622q34 11 55 42t32 89h6v-147h-93v-98q1 -54 15.5 -79.5t63.5 -25.5v-10q-35 2 -73.5 3t-76.5 1t-71.5 -0.5t-59.5 -1.5q-30 -1 -56 -2v10q70 0 100 24.5t30 79.5v99h-369zM405 224v456q-54 -69 -115.5 -148t-115.5 -148l-124 -160h355z" />
    <glyph glyph-name="five" unicode="5" horiz-adv-x="682" 
d="M422 849h30t45.5 0.5t53 1t52.5 2.5l39 -205l-8 -3q-23 32 -41 51t-38.5 28.5t-45.5 12.5t-62 3h-343q12 -50 41.5 -84t70 -59.5t88 -44.5t95.5 -38t92.5 -40t79 -51t55 -71.5t20.5 -99.5q0 -53 -21 -99t-62 -80.5t-101.5 -54.5t-140.5 -20q-72 0 -139 19.5t-129 54.5
l41 155h9q10 -46 29 -85.5t46.5 -69t64 -46.5t83.5 -17q46 0 81.5 18.5t60 50t37 72.5t12.5 86q0 53 -21.5 96.5t-56 80t-77.5 66.5t-86 57q-49 29 -88 61t-69 69.5t-50.5 82.5t-32.5 100h386z" />
    <glyph glyph-name="six" unicode="6" horiz-adv-x="749" 
d="M397 0q-86 0 -153 31.5t-113.5 86.5t-70.5 130t-24 163q0 91 26 171.5t75.5 140.5t121 95t163.5 35q72 0 140.5 -22t124.5 -60l-46 -144h-8q-11 46 -27.5 85.5t-42 68.5t-60 45t-81.5 16q-62 0 -106 -25.5t-74 -69t-47 -100.5t-25 -119.5t-8 -126t4 -120.5q0 51 15 100
t43.5 87.5t69 63t91.5 26.5q72 3 132.5 -16t104 -54.5t67.5 -85.5t24 -108q0 -66 -24 -120.5t-66.5 -93t-100.5 -59.5t-125 -21zM177 280q0 -50 13.5 -98.5t40 -86.5t65 -61t88.5 -23q55 0 93.5 23t62.5 62t34.5 89.5t10.5 106.5q0 51 -11.5 97t-35 81t-60 56t-85.5 21
q-50 0 -90 -22.5t-68 -60t-43 -85.5t-15 -99z" />
    <glyph glyph-name="seven" unicode="7" horiz-adv-x="742" 
d="M36 682l40 175q43 -2 69 -2.5t41 -1t22.5 -0.5h14.5h483q-12 -65 -43.5 -116.5t-72.5 -102t-84.5 -106t-78.5 -129t-55.5 -170t-14.5 -229.5q-20 2 -34 3.5t-31 1.5q-14 0 -34 -1.5t-50 -3.5q1 106 32 191t76.5 154.5t99 125.5t99.5 104t78 90t36 83h-409h-60t-46.5 -5
t-37.5 -19t-33 -42h-7z" />
    <glyph glyph-name="eight" unicode="8" horiz-adv-x="738" 
d="M362 0q-57 0 -115.5 13t-105 39.5t-76 68t-29.5 98.5q0 48 19 82.5t50.5 59.5t73.5 40.5t88 25.5q-86 19 -134 71.5t-48 132.5q0 55 23.5 96.5t63 69t91.5 41t108 13.5q51 0 101.5 -10t90.5 -32t65 -57.5t25 -86.5q0 -39 -17 -67.5t-45 -49.5t-64 -35.5t-74 -24.5
q54 -13 99.5 -31.5t79 -46t52 -66t18.5 -91.5q0 -65 -28.5 -112.5t-76 -78.5t-108.5 -46.5t-127 -15.5zM289 422q-77 -24 -114 -69t-37 -126q0 -48 17.5 -88t48.5 -68.5t73.5 -44t91.5 -15.5q45 0 87 14t74 40t51 62t19 80q0 51 -28 85.5t-72.5 58.5t-100 40t-110.5 31z
M178 674q0 -43 25 -73t63 -50.5t84.5 -33.5t88.5 -23q63 21 94 60.5t31 105.5q0 41 -14 74.5t-39.5 57t-60.5 36.5t-77 13q-39 0 -74.5 -11.5t-62 -33.5t-42.5 -52.5t-16 -69.5z" />
    <glyph glyph-name="nine" unicode="9" horiz-adv-x="749" 
d="M36 560q0 66 24 120t66.5 92.5t100.5 59.5t125 21q86 0 153 -31.5t113.5 -86.5t70.5 -130t24 -163q0 -91 -26 -171.5t-75.5 -140.5t-121 -95t-163.5 -35q-72 0 -140.5 22t-124.5 60l46 144h8q11 -46 27.5 -85.5t42 -68t60 -44.5t81.5 -16q62 0 106 25.5t74 69t47 100
t25 119t8 126t-4 120.5q0 -51 -15 -100t-43.5 -87.5t-69 -62.5t-91.5 -26q-72 -3 -132.5 15.5t-104 54t-67.5 85.5t-24 109zM164 561q0 -51 11.5 -97t35 -81t59.5 -56t86 -21t90 22.5t68 60t43 85.5t15 99q0 50 -13.5 98.5t-40 86.5t-65 61t-88.5 23q-55 0 -93.5 -23
t-62.5 -62t-34.5 -90t-10.5 -106z" />
    <glyph glyph-name="colon" unicode=":" horiz-adv-x="181" 
d="M90 154q-25 0 -39.5 17t-14.5 41q0 23 15 41t39 18t39.5 -18t15.5 -41t-15.5 -40.5t-39.5 -17.5zM36 666q0 23 15 41t39 18t39.5 -18t15.5 -41t-16 -40.5t-39 -17.5q-25 0 -39.5 17t-14.5 41z" />
    <glyph glyph-name="semicolon" unicode=";" horiz-adv-x="186" 
d="M36 245q0 26 16.5 42.5t39.5 16.5q32 0 45 -22.5t13 -53.5q0 -102 -89 -182l-7 6q12 11 25 26.5t24 33.5t19 38.5t11 40.5q-12 -2 -28.5 -2t-31.5 4.5t-26 16.5t-11 35zM39 696q0 24 14.5 41.5t39.5 17.5q23 0 39 -18t16 -41q0 -22 -16 -40t-39 -18q-25 0 -39.5 17
t-14.5 41z" />
    <glyph glyph-name="less" unicode="&#x3c;" horiz-adv-x="620" 
d="M58 404l526 -235l-6 -14l-542 241v16l541 243l7 -15z" />
    <glyph glyph-name="equal" unicode="=" horiz-adv-x="703" 
d="M667 327v-16h-631v16h631zM667 497v-16h-631v16h631z" />
    <glyph glyph-name="greater" unicode="&#x3e;" horiz-adv-x="620" 
d="M584 411v-16l-541 -241l-7 15l526 234l-526 236l7 15z" />
    <glyph glyph-name="question" unicode="?" horiz-adv-x="558" 
d="M36 747q52 28 106.5 45t114.5 17q52 0 99.5 -12t84.5 -38.5t59 -67t22 -97.5q0 -47 -18.5 -81.5t-46.5 -62.5t-60.5 -53.5t-60.5 -53.5t-46.5 -62.5t-18.5 -81.5h-15v11q-2 37 8 68.5t26 60.5t35.5 57.5t36 59.5t28 67t11.5 80q0 42 -9 78t-27 61.5t-44.5 40t-62.5 14.5
q-38 0 -68 -16t-52 -42t-37 -61t-24 -72h-8zM269 3q-26 0 -40 16.5t-14 41.5q0 23 14.5 41t39.5 18q24 0 39.5 -18t15.5 -41q0 -25 -14.5 -41.5t-40.5 -16.5z" />
    <glyph glyph-name="at" unicode="@" horiz-adv-x="983" 
d="M522 -82q-114 0 -204 36.5t-153 100t-96 150t-33 186.5q0 109 39 205.5t108 168.5t162.5 114t201.5 42q93 0 167 -28.5t126 -80.5t79.5 -125.5t27.5 -162.5q0 -101 -29 -173t-72 -117.5t-92.5 -64.5t-91.5 -13q-46 7 -67 32.5t-21 79.5q-20 -55 -62 -85t-106 -31
q-84 -1 -127 36.5t-43 102.5q0 50 31 80t78 45.5t102.5 20.5t105.5 5l21 1q-1 39 -8 71.5t-22.5 56.5t-41.5 37t-65 13q-63 0 -102 -36t-49 -97h-4l-26 93q44 26 90 37t97 11q43 0 81.5 -8t68 -26.5t48 -48t21.5 -72.5q1 -13 1 -25v-24v-133q0 -25 -0.5 -48t3 -40t12.5 -27
t28 -8q36 4 75.5 28.5t73 69.5t55 109.5t21.5 147.5q0 86 -26.5 156.5t-76 120.5t-120.5 77t-161 27q-107 0 -197.5 -41t-156.5 -111.5t-103.5 -163.5t-37.5 -198q0 -99 32.5 -182.5t93.5 -144.5t148 -95.5t196 -34.5q94 0 177 32.5t158 92.5l10 -13q-76 -62 -161.5 -95
t-183.5 -33zM327 285q0 -54 23.5 -84t76.5 -30q30 0 57 9t47 30t31.5 55t11.5 83v87q-33 0 -75.5 -4.5t-80.5 -20t-64.5 -45.5t-26.5 -80z" />
    <glyph glyph-name="A" unicode="A" 
d="M10 8q29 16 48.5 41.5t35.5 61.5q78 194 140 352q27 67 52.5 132.5t46.5 119t35.5 89.5t17.5 45q1 1 1 2h8l319 -741q23 -53 42.5 -74t39.5 -28v-8q-39 3 -69.5 4t-59.5 1t-61 -1t-74 -4q-50 0 -82.5 25.5t-56 63t-41.5 81t-39 79.5t-50 58.5t-73 19.5
q-13 -34 -25.5 -65.5t-23 -58.5t-19 -48t-13.5 -34q-14 -37 -4.5 -68.5t52.5 -44.5v-8q-22 2 -38 3t-30 1q-19 0 -37 -1t-42 -3v8zM330 678q-8 -19 -22 -55.5t-32.5 -83t-39.5 -98.5t-41 -103q38 1 70 -18q33 -22 54.5 -60.5t40.5 -80.5q13 -29 27.5 -59t34.5 -54t47 -39.5
t63 -15.5q21 0 32.5 10t15.5 25.5t0.5 35t-11.5 40.5q-1 2 -1 3t-1 2t-1 2q-46 107 -78 182t-54.5 126.5t-36.5 85t-25 59t-20.5 47t-21.5 49.5z" />
    <glyph glyph-name="B" unicode="B" 
d="M36 10q25 0 41 7t24 21t11 35.5t3 50.5v621q0 22 -2 39.5t-9 30t-20 19.5t-35 7v10h403q52 0 97.5 -8.5t79 -30.5t52.5 -59.5t19 -94.5q0 -56 -26 -94t-63.5 -60.5t-80 -32t-75.5 -9.5q55 -19 109 -36t98 -42t73 -63.5t34 -100.5q5 -66 -16.5 -108.5t-63 -67t-99 -34.5
t-124.5 -10h-430v10zM284 554q-26 31 -41 74v-617h185q42 0 81 8.5t68 32t46.5 64t17.5 104.5q0 51 -17 84.5t-45.5 57t-65 41t-76.5 38t-79.5 46.5t-73.5 67zM243 678q6 -46 23.5 -79.5t44 -58t60 -42t70.5 -30.5q72 4 101.5 55.5t29.5 134.5q0 53 -14.5 88t-39 56
t-57 29.5t-68.5 8.5h-150v-162z" />
    <glyph glyph-name="C" unicode="C" horiz-adv-x="822" 
d="M36 429q0 93 31 171t87.5 134t135 87.5t174.5 31.5q81 0 157 -22t144 -70l-40 -150l-10 2q-13 49 -33 91.5t-49 73.5t-68 48.5t-90 17.5q-81 0 -139.5 -36t-96 -95t-55 -136.5t-17.5 -159.5q0 -78 20 -151.5t59 -131t96.5 -92t133.5 -34.5q54 0 97.5 21t75.5 56.5
t53 82.5t30 100l10 2l44 -159q-72 -58 -151.5 -85t-173.5 -27q-89 0 -166 30.5t-135 86.5t-91 135.5t-33 177.5z" />
    <glyph glyph-name="D" unicode="D" horiz-adv-x="807" 
d="M36 10q25 0 41 7t24 21t11 35.5t3 50.5v621q0 22 -2 39.5t-9 30t-20 19.5t-35 7v10h360q68 0 121.5 -20t93.5 -53t68 -76t45.5 -89t25 -91.5t7.5 -83.5q0 -45 -7.5 -94.5t-25 -98.5t-45.5 -93t-68 -78t-93.5 -54t-121.5 -20h-373v10zM370 11q77 0 129.5 36t84 95.5
t45 136.5t13.5 159q0 78 -15.5 150.5t-50 128.5t-88.5 89.5t-132 33.5h-113v-829h127z" />
    <glyph glyph-name="E" unicode="E" horiz-adv-x="758" 
d="M36 10q25 0 41 7t24 21t11 35.5t3 50.5v621q0 22 -2 39.5t-9 30t-20 19.5t-35 7v10h665v-3l34 -184l-8 -3q-37 51 -72 85.5t-76.5 55.5t-94 29.5t-122.5 8.5h-132v-351h41q68 0 113 7t74.5 22.5t46.5 42t29 65.5h6v-284h-6q-18 37 -36 63t-45.5 42.5t-70.5 24t-111 7.5
h-41v-468h108q68 0 123.5 8.5t102 30t86.5 58.5t78 93l7 -2l-34 -199h-678v10z" />
    <glyph glyph-name="F" unicode="F" horiz-adv-x="758" 
d="M36 10q25 0 41 7t24 21t11 35.5t3 50.5v621q0 22 -2 39.5t-9 30t-20 19.5t-35 7v10h665v-3l34 -184q-2 -1 -2.5 -1t-2.5 -1t-3 -1q-37 51 -72 85.5t-76.5 55.5t-94 29.5t-122.5 8.5h-132v-351h41q68 0 113 7t74.5 22.5t46.5 42t29 65.5h6v-284h-6q-18 37 -35.5 63
t-45.5 42.5t-70.5 24t-110.5 7.5h-42v-365q0 -27 3.5 -46.5t12 -32t24 -19t40.5 -6.5v-10q-50 3 -83 4t-62 1t-61 -1t-81 -4v10z" />
    <glyph glyph-name="G" unicode="G" horiz-adv-x="918" 
d="M36 430q0 93 31 171.5t87.5 134.5t135.5 87.5t174 31.5q81 0 157 -22.5t144 -70.5l-40 -150l-10 2q-13 49 -33 91.5t-49 73.5t-68 48.5t-90 17.5q-67 0 -117.5 -24t-87.5 -66q-16 -53 0 -100t51 -83.5t84.5 -59.5t101.5 -29q53 -5 107.5 -7.5t105.5 -2.5q48 0 89.5 2
t72.5 4v-11q-48 0 -63.5 -24t-16.5 -76v-255q-41 -7 -71 -18.5t-55 -24t-47 -25.5t-46.5 -23.5t-53.5 -17t-68 -6.5q-89 0 -166 30.5t-135 87t-91 136.5t-33 178zM254 736q-45 -61 -66 -143.5t-21 -173.5q0 -78 20 -152t59 -131.5t96.5 -92t133.5 -34.5q43 0 79.5 16
t62.5 43.5t41 64t15 76.5v155q0 27 -11.5 44.5t-34.5 30t-59 21t-87 16.5q-31 5 -60 16.5t-55 28.5q-60 37 -92 93t-21 122z" />
    <glyph glyph-name="H" unicode="H" horiz-adv-x="890" 
d="M36 10q41 0 57 17.5t20 53.5q2 9 2 19.5v23.5v621q0 22 -2 39.5t-9 30t-20 19.5t-35 7v10q45 -3 74.5 -4.5t55.5 -1.5q28 0 57 1.5t73 4.5v-10q-22 0 -35 -6.5t-20 -18.5t-9 -29.5t-2 -38.5v-259h403v256q0 22 -2 39.5t-9 30t-20 19.5t-35 7v10q46 -2 79.5 -3.5
t66.5 -1.5q25 0 52 1t62 4v-10q-22 0 -35 -6.5t-20 -18.5t-9 -29.5t-2 -38.5v-634q0 -27 3.5 -46.5t12 -32t24 -19t40.5 -6.5v-10q-50 2 -82 3.5t-59 1.5q-30 0 -62 -1.5t-84 -3.5v10q41 0 57 17.5t20 53.5q2 9 2 19.5v23.5v355h-403v-365q0 -27 3.5 -46.5t12 -32t24 -19
t40.5 -6.5v-10q-53 2 -85.5 3t-62.5 1q-27 0 -58.5 -1t-80.5 -3v10z" />
    <glyph glyph-name="I" unicode="I" horiz-adv-x="359" 
d="M186 4q-32 0 -59.5 -0.5t-47.5 -1.5q-24 -1 -43 -2v10q27 0 42.5 6t23.5 18.5t10.5 32.5t2.5 47v631q0 22 -2 39.5t-9 30t-20 19.5t-35 7v10q43 -3 71.5 -4.5t54.5 -1.5q28 0 58 1.5t76 4.5v-10q-22 0 -35 -6.5t-20 -18.5t-9 -29.5t-2 -38.5v-634q0 -27 3.5 -46.5t12 -32
t24 -19t40.5 -6.5v-10q-35 2 -70 3t-67 1z" />
    <glyph glyph-name="J" unicode="J" horiz-adv-x="583" 
d="M78 164h8q6 -29 17 -59t28 -54.5t40 -40t53 -15.5q44 0 69.5 19.5t38.5 52t16.5 75t4.5 89.5v514q0 22 -2 39.5t-9 30t-20 19.5t-35 7v10q44 -2 73 -2.5t54 -0.5q29 0 58 0.5t75 2.5v-10q-22 0 -35 -6.5t-20 -18.5t-9 -29.5t-2 -38.5v-423q-2 -170 -75 -256.5t-216 -86.5
q-69 0 -154 21z" />
    <glyph glyph-name="K" unicode="K" horiz-adv-x="846" 
d="M186 4q-32 0 -59.5 -0.5t-47.5 -1.5q-24 -1 -43 -2v10q41 0 57 17.5t20 53.5q2 9 2 20v23v621q0 22 -2 39.5t-9 30t-20 19.5t-35 7v10q43 -3 71.5 -4.5t54.5 -1.5q28 0 58 1.5t76 4.5v-10q-22 0 -35 -6.5t-20 -18.5t-9 -29.5t-2 -38.5v-463q7 32 17 58.5t23 49.5
q30 55 72 93.5t88 73.5t93 74.5t88 98.5q10 15 13 31.5t-2.5 32t-19 28t-34.5 18.5v8q22 -2 38 -3t30 -1q19 0 37 1t42 3v-8q-26 -15 -44 -40t-37 -55q-27 -43 -57.5 -75.5t-62 -59.5t-63.5 -50.5t-62 -48t-56.5 -52t-47.5 -62.5q20 17 50 30t66 13q25 0 51.5 -8t54.5 -26.5
t55.5 -50t54.5 -77.5q30 -51 59.5 -95.5t56.5 -80.5t50 -60.5t40 -34.5v-10q-12 0 -38 0.5t-54.5 0.5h-54t-36.5 -1q-25 38 -56 89.5t-68 114.5q-22 36 -43 72.5t-47 70.5q-23 29 -48 42t-48 13q-46 0 -65 -42q-14 -31 -22.5 -68.5t-12.5 -84.5v-93q0 -27 3.5 -46.5t12 -32
t24 -19t40.5 -6.5v-10q-35 2 -70 3t-67 1z" />
    <glyph glyph-name="L" unicode="L" horiz-adv-x="758" 
d="M115 727q0 29 -3 50.5t-11 35.5t-24 21t-41 7v10q49 -2 81 -3.5t61 -1.5t62 1.5t83 3.5v-10q-25 0 -40.5 -6.5t-24 -19t-12 -32t-3.5 -46.5v-726h132q70 0 122.5 8.5t94 29.5t76.5 55.5t72 85.5q1 0 3 -1t2.5 -1.5t2.5 -1.5l-34 -183v-3h-665v10q22 0 35 7t20 19.5t9 30
t2 39.5v621v0z" />
    <glyph glyph-name="M" unicode="M" horiz-adv-x="1035" 
d="M36 10q27 0 42.5 6t23.5 18.5t10.5 32.5t2.5 47v649l-37 88h139l314 -744q-4 29 -1 60q7 65 40 122t73 115q24 36 48.5 73.5t45 79t35 88.5t19.5 101q0 21 -2 38.5t-9 30t-20 19.5t-35 7v10q43 -3 71.5 -4.5t54.5 -1.5q28 0 58 1.5t76 4.5v-10q-22 0 -35 -6.5t-20 -18.5
t-9 -29.5t-2 -38.5v-634q0 -27 3.5 -46.5t12 -32t24 -19t40.5 -6.5v-10q-35 2 -70 3t-67 1t-59.5 -0.5t-47.5 -1.5q-24 -1 -43 -2v10q27 0 42.5 7.5t23.5 22t10.5 36t2.5 48.5v554q-16 -70 -46 -128t-64 -109t-66.5 -98t-52.5 -96t-22.5 -102t24.5 -115l12 -30h-139
l-311 737v-623q0 -32 2 -52t10.5 -31.5t24 -16t42.5 -4.5v-10q-26 1 -44.5 1.5t-36 0.5t-38 -0.5t-50.5 -1.5v10v0z" />
    <glyph glyph-name="N" unicode="N" horiz-adv-x="753" 
d="M36 10q27 0 42.5 6t23.5 18.5t10.5 32.5t2.5 47v652q-11 20 -19.5 35.5t-14.5 26.5q-7 13 -13 23h147q8 -15 33.5 -61t61.5 -111t79 -142.5l86 -155t82.5 -149.5t69.5 -125v630q0 27 -2.5 47t-10.5 32.5t-23.5 18.5t-42.5 6v10q30 -1 50.5 -1.5t38 -0.5t36 0.5t44.5 1.5
v-10q-27 0 -42.5 -5t-23.5 -17t-10.5 -32.5t-2.5 -50.5v-649q11 -20 20 -36t15 -27q7 -13 13 -24h-146q-12 22 -39.5 71.5t-64 115t-78.5 142t-84 152t-80.5 145t-67.5 121.5v-636q0 -29 2.5 -48.5t10.5 -31t23.5 -16.5t42.5 -5v-10q-26 1 -44.5 1.5t-36 0.5t-38 -0.5
t-50.5 -1.5v10v0z" />
    <glyph glyph-name="O" unicode="O" horiz-adv-x="911" 
d="M36 428q0 91 31.5 169t87.5 134t132.5 88t166.5 32q91 0 168.5 -32.5t133.5 -89t87.5 -134t31.5 -167.5q0 -89 -32.5 -167t-89 -136t-133 -91.5t-164.5 -33.5q-91 0 -168 33t-133 90.5t-87.5 136t-31.5 168.5zM455 840q-80 0 -135 -34.5t-90 -91.5t-50.5 -131.5
t-15.5 -155.5q0 -79 16.5 -154t51.5 -133t90.5 -93.5t133.5 -35.5q77 0 132 36t90.5 94.5t52 133t16.5 151.5q0 79 -16 153.5t-51 132.5t-90.5 93t-134.5 35z" />
    <glyph glyph-name="P" unicode="P" horiz-adv-x="753" 
d="M36 851h376q67 0 123 -9.5t96.5 -33.5t62.5 -64.5t22 -101.5q0 -55 -19 -87.5t-50.5 -51.5t-71.5 -28t-82 -16.5t-84 -17.5t-76.5 -30.5t-58.5 -55.5t-31 -92v-168q0 -19 3 -34.5t10 -27t20 -17.5t33 -6v-10q-25 2 -62 3.5t-76 1.5q-34 0 -65.5 -1.5t-56.5 -3.5v10
q22 0 35 7t20 19.5t9 30t2 39.5v621q0 29 -3 50.5t-11 35.5t-24 21t-41 7v10zM243 314q18 57 50.5 88t70 49.5t76.5 30t71.5 29t53.5 47.5t23 84q2 57 -15.5 95t-47.5 61t-69 32.5t-81 9.5h-132v-526z" />
    <glyph glyph-name="Q" unicode="Q" horiz-adv-x="958" 
d="M455 0q-91 0 -168 33t-133 90.5t-87.5 136t-31.5 168.5q0 91 31.5 169t87.5 134t132.5 88t166.5 32q91 0 168.5 -32.5t133.5 -89t87.5 -134t31.5 -167.5q0 -63 -16.5 -120.5t-46.5 -107t-72.5 -89t-93.5 -66.5q32 -14 72.5 -23t95.5 -11q25 0 44 6.5t31.5 27.5t18.5 59
t6 101h10q-2 -65 -3.5 -101t-2 -61.5t1 -51t4.5 -69.5h-10q0 24 -6 39t-18.5 23.5t-31.5 12t-44 4.5q-60 2 -103 12t-77 26q-41 -19 -85.5 -29t-92.5 -10zM454 840q-80 0 -135 -34.5t-90 -91.5t-50.5 -131.5t-15.5 -155.5q0 -48 6 -95t18.5 -89.5t31.5 -80.5t45 -68
q-16 29 -16.5 55.5t10.5 47t31.5 32.5t47.5 12q20 0 43 -8t47 -26q29 -21 52.5 -41.5t45.5 -38.5t42.5 -34.5t43.5 -29.5q35 28 60.5 68t42 88t24.5 100.5t8 106.5q0 79 -16 153.5t-51 132.5t-90.5 93t-134.5 35zM336 231q-28 0 -48 -15t-26.5 -40t3.5 -56t42 -64
q62 -45 148 -45q44 0 80.5 11.5t65.5 33.5q-44 27 -84.5 64t-96.5 79q-44 32 -84 32z" />
    <glyph glyph-name="R" unicode="R" horiz-adv-x="848" 
d="M36 851h376q67 0 123 -9.5t96.5 -33.5t62.5 -64.5t22 -101.5q0 -45 -13 -74.5t-35 -49t-51.5 -30.5t-63 -18t-68.5 -13t-69 -14q25 0 52 -8t54.5 -26.5t55.5 -50t55 -77.5q29 -51 59 -95.5t57 -80.5t50 -60.5t39 -34.5v-10q-12 0 -37.5 0.5t-54 0.5h-54t-37.5 -1
q-25 38 -56 89.5t-68 114.5q-21 36 -42.5 72.5t-47.5 70.5q-23 29 -47.5 42t-47.5 13q-25 0 -43 -14t-30.5 -35t-19.5 -45.5t-10 -44.5v-168q0 -19 3 -34.5t10 -27t20 -17.5t33 -6v-10q-46 2 -75 3t-57 1q-25 0 -54 -1t-74 -3v10q22 0 35 7t20 19.5t9 30t2 39.5v621
q0 29 -3 50.5t-11 35.5t-24 21t-41 7v10zM243 314q18 57 50.5 88t70 49.5t76.5 30t71.5 29t53.5 47.5t23 84q2 57 -15.5 95t-47.5 61t-69 32.5t-81 9.5h-132v-526z" />
    <glyph glyph-name="S" unicode="S" horiz-adv-x="741" 
d="M81 259l8 -1q8 -54 29 -99.5t54 -78.5t77.5 -51.5t99.5 -18.5q49 0 92.5 10.5t76 32.5t51.5 55.5t19 80.5q0 44 -23.5 73.5t-61.5 50.5t-87 36.5t-100.5 31t-100.5 34.5t-87 47t-61.5 67.5t-23.5 97.5q0 62 29.5 104.5t77 69t107.5 38.5t122 12q82 0 151 -17t140 -52
l-50 -173l-10 1q-2 49 -20.5 91.5t-49.5 73t-72.5 48t-89.5 17.5q-44 0 -84 -11.5t-71 -33.5t-49 -55t-18 -75q0 -41 23.5 -68.5t62 -46t88 -32.5t101 -28.5t101 -32.5t88 -45.5t62 -68t23.5 -99.5q0 -69 -29 -116t-78 -75.5t-113.5 -40.5t-134.5 -12q-86 0 -163.5 20
t-150.5 65z" />
    <glyph glyph-name="T" unicode="T" horiz-adv-x="941" 
d="M10 664q10 57 16.5 93t10.5 56.5t5.5 28.5t1.5 9h853v-3l34 -184q-2 -1 -2.5 -1t-2.5 -1t-3 -1q-32 49 -61 83.5t-63.5 55.5t-79 30.5t-107.5 9.5h-79v-726q1 -53 15.5 -78.5t63.5 -25.5v-10q-49 2 -81 3.5t-61 1.5q-29 1 -61.5 -0.5t-82.5 -4.5v10q25 0 41 7t24 21
t11 35.5t3 50.5v716h-76q-63 0 -107.5 -9.5t-79 -30.5t-64 -55.5t-60.5 -83.5q-1 0 -3 1t-3 1t-2 1z" />
    <glyph glyph-name="U" unicode="U" horiz-adv-x="863" 
d="M36 851q43 -3 71.5 -4.5t54.5 -1.5t52 1.5t62 3.5h8t8 1q56 3 98.5 -5.5t70.5 -36t40 -78t8 -130.5q-3 -70 7 -117.5t28.5 -76.5t43 -41.5t50.5 -12.5q18 0 37 5.5t34.5 17t26.5 29.5t14 44v296q0 22 -2 39.5t-9 30t-20 19.5t-35 7v10q31 -3 77 -3q34 0 66 3v-10
q-22 0 -35 -7t-20 -19.5t-9 -30t-2 -39.5v-468q0 -61 -17 -105t-45 -74.5t-63.5 -49.5t-72 -29.5t-71.5 -14t-61 -4.5q-64 -2 -123.5 13t-105 47t-73 81.5t-27.5 116.5v487q0 22 -2 39.5t-9 30t-20 19.5t-35 7v10zM230 258q0 -53 17.5 -97.5t48.5 -76.5t74.5 -50.5
t95.5 -18.5q11 0 23 1t24 3q107 18 171 78t66 170v143q-15 -33 -45.5 -50t-65.5 -18q-44 0 -72 23.5t-44 60.5t-21 83.5t-3 91.5q4 103 -16 154q-12 30 -31 47.5t-44 26.5t-55 11t-62 1q-40 -2 -50.5 -26.5t-10.5 -66.5v-490z" />
    <glyph glyph-name="V" unicode="V" 
d="M92 741q-23 53 -42.5 74t-39.5 28l1 8q42 -2 74.5 -4t64.5 -2q23 0 48.5 1t56.5 4q41 4 70.5 -12t51.5 -43t37 -60.5t26 -63.5q6 -17 12.5 -37.5t13 -41.5t14.5 -40.5t19 -33.5t26 -22t32 -8q15 0 30 7.5t27 24.5l91 231q14 37 -8 61t-85 31v8q26 -2 49 -3.5t44 -1.5
q25 0 47 1.5t44 3.5v-8q-17 -6 -28 -13t-19 -16t-14.5 -22t-14.5 -31q-2 -4 -15.5 -39t-35 -89.5t-48.5 -122.5t-55 -138q-65 -165 -147 -372h-8zM237 820q-15 -17 -13.5 -39t13.5 -52l239 -556l127 320q-21 -15 -45 -15q-19 0 -36.5 8.5t-30.5 25.5q-11 15 -19.5 35
t-15.5 41.5t-13.5 42t-12.5 36.5q-9 25 -21 51.5t-27.5 50.5t-36 42t-45.5 25q-17 5 -34 1t-29 -17z" />
    <glyph glyph-name="W" unicode="W" horiz-adv-x="1212" 
d="M92 741q-23 53 -42.5 74t-39.5 28l1 8q39 -2 69.5 -3.5t59.5 -1.5t60.5 1.5l73.5 3.5v-8q-44 -17 -49 -45t12 -69q58 -134 106 -247q21 -48 41.5 -96t38 -89t30.5 -71.5t19 -43.5q32 69 72 136t81 130l-126 294q-23 53 -43 74t-40 28l1 8q39 -2 69.5 -3.5t59.5 -1.5
t60.5 1.5l73.5 3.5q77 7 108 -11.5t29 -57t-31 -94.5t-72 -123q17 -41 36.5 -86t38 -88.5t35.5 -83t29.5 -69t20.5 -47.5t8 -19l230 582q29 76 -57 89v8q22 -2 38.5 -3t30.5 -1q18 0 36 1t42 3v-8q-17 -6 -28 -12.5t-18.5 -15.5t-14 -21t-14.5 -30q-2 -4 -15.5 -39
t-35 -89.5t-48.5 -123t-55 -138.5q-65 -165 -147 -374h-9l-187 435q-33 -52 -66 -106.5t-61.5 -110t-50.5 -110.5t-33 -109h-8zM681 841q-23 -4 -35 -14t-15.5 -25t0.5 -33t12 -39q6 -13 23.5 -54t42.5 -98q43 68 70 121.5t28 88.5q0 22 -11.5 33.5t-29.5 16.5t-40.5 5
t-44.5 -2z" />
    <glyph glyph-name="X" unicode="X" horiz-adv-x="812" 
d="M11 851q38 -2 67.5 -3.5t58.5 -1.5t60 1.5t71 3.5q37 2 64 -15t48 -44t36.5 -59t30 -59.5t29 -46t32.5 -18.5q17 0 37 20q31 40 58 74.5t49 63.5q24 31 7.5 49.5t-79.5 23.5v11q30 -2 53.5 -3t43.5 -1q25 0 45.5 1t43.5 3v-8q-17 -6 -30.5 -12.5t-24.5 -15t-22 -20
t-23 -28.5q-41 -52 -98.5 -126.5t-122.5 -156.5l254 -374q32 -48 57.5 -71.5t45.5 -30.5l-1 -8q-39 3 -69.5 4t-59.5 1t-60.5 -1t-73.5 -4v8q18 7 25.5 18.5t6 25.5t-9.5 30t-20 34q-35 53 -81 120.5t-96 141.5q-70 -90 -132.5 -170t-104.5 -134q-17 -26 -9.5 -42.5
t50.5 -23.5v-8q-22 2 -38 3t-30 1q-19 0 -37 -1t-42 -3v8q29 10 47 21.5t36 32.5l49 63t61 78t69 89t74 95q-33 49 -66.5 98.5t-65 96t-59.5 88.5t-51 76q-10 14 -21.5 29t-24.5 28t-27.5 23.5t-30.5 16.5zM275 840q-35 -2 -37 -23.5t19 -53.5q17 -26 47.5 -71t60.5 -90
q35 -52 74 -109q22 28 43 55t41 53q-8 -4 -19.5 -2.5t-22.5 9.5q-15 11 -27.5 32.5t-25.5 47t-27.5 53t-32.5 49.5t-40.5 36t-52.5 14z" />
    <glyph glyph-name="Y" unicode="Y" horiz-adv-x="790" 
d="M109 759q-8 10 -19.5 23t-25 26t-27.5 22.5t-27 12.5l1 8q39 -3 70 -4t61 -1q28 0 58 1t68 3q39 3 67.5 -13t51 -41t39.5 -55.5t33 -56.5t31.5 -43.5t35.5 -17.5t45 22l95 122q25 32 -1.5 52.5t-91.5 20.5v11q23 -2 46 -3t52 -1q22 0 48.5 1t60.5 3v-8q-6 -2 -8 -2
q-15 -6 -27 -12.5t-22.5 -15t-20.5 -19.5t-22 -27q-50 -63 -106 -135.5t-108 -138.5v-379q1 -53 15.5 -78.5t63.5 -25.5v-10q-49 2 -81 3.5t-61 1.5q-30 0 -62.5 -1t-82.5 -4v10q25 0 41 7t24.5 21t11.5 35.5t3 50.5v342l-10 12q-64 81 -121 155t-98 126zM274 840
q-37 -3 -39 -24t22 -53l203 -261l90 116q-16 -8 -31 -5q-14 2 -25.5 11.5t-22 22.5t-19.5 28t-17 30q-15 26 -31 50.5t-35 43.5t-42 30.5t-53 10.5z" />
    <glyph glyph-name="Z" unicode="Z" horiz-adv-x="771" 
d="M70 848v3h635q-121 -209 -221 -383q-43 -74 -85 -148t-78 -136.5t-62.5 -108.5t-36.5 -64h140q70 0 122 8.5t93.5 29.5t77 55.5t71.5 85.5q1 0 3 -1q2 -2 4 -2q1 0 2 -1l-34 -183v-3h-633q120 209 220 383q43 74 85.5 148t78.5 136.5t62 108.5t37 64h-142
q-71 0 -123 -8.5t-93.5 -29.5t-77 -55.5t-71.5 -85.5q-1 0 -3 1t-3 1t-2 1z" />
    <glyph glyph-name="bracketleft" unicode="[" horiz-adv-x="295" 
d="M36 748q0 46 17.5 79t47.5 54t70.5 31t87.5 10v-17q-33 -3 -52 -13.5t-28.5 -29t-12 -47t-2.5 -67.5v-651q0 -40 2.5 -68t12.5 -47t29 -28.5t51 -12.5v-17q-47 0 -87.5 9.5t-70.5 30.5t-47.5 54t-17.5 79v651v0z" />
    <glyph glyph-name="backslash" unicode="\" horiz-adv-x="657" 
d="M621 -10v-10h-19l-566 892v10h20z" />
    <glyph glyph-name="bracketright" unicode="]" horiz-adv-x="295" 
d="M36 -69q32 3 51 12.5t29 28.5t13 47t3 68v651q0 39 -2.5 67.5t-12 47t-28.5 29t-53 14.5v16q46 0 87 -10t71 -31t47.5 -54t17.5 -79v-651q0 -46 -17.5 -79t-47.5 -54t-71 -30.5t-87 -9.5v17z" />
    <glyph glyph-name="asciicircum" unicode="^" horiz-adv-x="634" 
d="M598 530l-12 -10l-268 320l-270 -320l-12 10l275 327h13z" />
    <glyph glyph-name="underscore" unicode="_" horiz-adv-x="611" 
d="M36 -17v16h539v-16h-539z" />
    <glyph glyph-name="grave" unicode="`" horiz-adv-x="220" 
d="M184 706h-17l-131 165l29 11z" />
    <glyph glyph-name="a" unicode="a" horiz-adv-x="751" 
d="M36 197q0 47 20 81.5t54 58.5t79 38.5t95 23.5q-46 9 -75.5 33t-41.5 55.5t-7.5 65t25.5 62t57.5 46.5t88.5 18q62 0 116.5 -11.5t96.5 -37.5t68.5 -68.5t31.5 -104.5q2 -17 2 -34.5v-35.5v-189q0 -36 0.5 -69.5t6.5 -59.5t20 -42t42 -16v-11q-52 0 -89 8t-61 26.5
t-35.5 50.5t-11.5 80q-28 -79 -88 -122t-152 -44q-119 -2 -180.5 52t-61.5 146zM165 188q0 -76 34 -119.5t110 -43.5q43 0 81.5 13.5t66.5 43.5t44.5 78t16.5 118v124q-31 0 -69 -0.5t-77.5 -6.5t-76.5 -19t-66 -37t-46.5 -61t-17.5 -90zM169 530q1 -22 11 -46
q21 -43 61.5 -61t86.5 -18q42 5 82 6.5t78 1.5h30q-1 55 -10.5 101.5t-31.5 80t-57.5 53t-89.5 20.5q-31 0 -60 -8.5t-51 -26t-35.5 -43.5t-13.5 -60z" />
    <glyph glyph-name="b" unicode="b" horiz-adv-x="817" 
d="M36 10q21 0 34 9.5t20.5 26t10 38.5t3.5 48v625q-1 20 -3.5 35.5t-9.5 26t-19 16.5t-32 8v10q44 4 98 16t95 30v-463q9 58 33 103t58 76t76 47.5t87 16.5q72 0 127 -24.5t92 -69.5t56 -108.5t19 -141.5q0 -79 -22 -141.5t-61 -105.5t-93 -65.5t-117 -22.5
q-47 -1 -89.5 17t-76.5 48.5t-57 72t-32 88.5v-226h-197v10zM234 339q-1 -32 2.5 -75t21.5 -86q14 -36 37 -67t53 -53.5t65.5 -35t74.5 -11.5q46 0 77.5 25t51 68.5t28 103t8.5 127.5q0 54 -5.5 113t-23 108t-50.5 80.5t-87 31.5q-38 0 -74 -12t-67 -36t-55 -59t-37 -81
q-6 -16 -9.5 -35t-6 -38t-3.5 -37t-1 -31z" />
    <glyph glyph-name="c" unicode="c" horiz-adv-x="649" 
d="M36 338q0 74 23.5 136.5t67 108t105 71t136.5 25.5q132 0 241 -74l-38 -133h-5q-8 40 -24.5 75.5t-41.5 62.5t-57.5 43t-72.5 16q-59 0 -98.5 -27t-64 -71t-35 -100.5t-10.5 -114.5q0 -62 11 -123.5t37 -110.5t68.5 -79.5t104.5 -30.5q81 6 135 53t85 121l10 -4
q-35 -85 -98 -133.5t-154 -48.5q-71 0 -131 26t-103 71.5t-67 107t-24 133.5z" />
    <glyph glyph-name="d" unicode="d" horiz-adv-x="817" 
d="M36 336q0 78 19 141.5t56 108.5t92 69.5t128 24.5q44 0 85.5 -16t76 -47t58.5 -76.5t33 -103.5v301q0 25 -1.5 43.5t-8 31.5t-19.5 20t-35 9v10q44 4 98 16t96 30v-765q0 -26 3 -48t10 -38t20 -25.5t34 -9.5v-11q-52 0 -89 8t-61 26.5t-35.5 50t-11.5 79.5v62
q-9 -47 -32 -88t-57 -72t-76.5 -49t-89.5 -17q-65 0 -119 23.5t-92.5 67t-60 105.5t-21.5 139zM164 336q0 -68 8.5 -127.5t28 -103t51 -68.5t77.5 -25q39 -1 74.5 11.5t65.5 35t53 53.5t37 67q19 43 22 86.5t3 74.5q0 14 -1.5 32t-4 37t-6 38t-9.5 35q-14 45 -37.5 80
t-54.5 59t-67 36.5t-73 12.5q-54 0 -87 -32t-51 -81t-23.5 -108t-5.5 -113z" />
    <glyph glyph-name="e" unicode="e" horiz-adv-x="724" 
d="M372 -1q-83 0 -145 29t-104.5 77t-64 109t-22 125t20 125t63 109t106 77t149.5 29q58 0 107.5 -15t89.5 -42t69 -64.5t47 -82.5q-12 -2 -37 -6.5t-58.5 -10.5t-74.5 -13t-85 -15q66 -1 113.5 -19.5t78 -47t44 -65t11 -74t-20 -74t-49.5 -64.5q-45 -40 -104 -63.5
t-134 -23.5zM170 383q-4 -61 4 -126.5t32 -120t65 -90t104 -36.5q72 1 128.5 23.5t99.5 60.5q49 44 62 103t-13 112q-16 32 -40 53t-53.5 33.5t-63.5 17.5t-69 5q-36 0 -71.5 -4t-69 -9.5t-63 -11.5t-52.5 -10zM170 394q35 6 74.5 13t81.5 15q65 11 128.5 22.5t115.5 20.5
q-8 39 -22.5 75.5t-38 65t-57 45.5t-78.5 17q-56 0 -93.5 -25.5t-61 -65.5t-35 -88.5t-14.5 -94.5z" />
    <glyph glyph-name="f" unicode="f" horiz-adv-x="530" 
d="M36 10q22 0 35 6.5t20 18.5t9 29.5t2 38.5v537v14t1 14h-67v11h69q6 43 25 83t52.5 70.5t82.5 48.5t114 18q61 0 141 -20l-42 -162h-8q-3 31 -12 61t-24.5 53.5t-40 37.5t-59.5 14q-38 0 -66.5 -14.5t-47.5 -37t-27.5 -48.5t-6 -48.5t16.5 -38.5t41 -17q31 2 48.5 -2
t27.5 -14q16 -16 17 -33.5t-7.5 -36t-23 -38t-30 -41.5t-28.5 -46t-18 -50v-312q0 -22 2 -39.5t9 -30t20 -19.5t35 -7v-10q-42 2 -70 3t-53 1q-29 0 -59.5 -1.5t-77.5 -2.5v10zM230 455q11 27 28 51t32.5 45.5t26.5 40.5t10 36q-1 16 -9.5 24.5t-20.5 12t-26.5 3.5h-27.5
q-3 1 -6.5 1t-6.5 1v-215z" />
    <glyph glyph-name="g" unicode="g" horiz-adv-x="737" 
d="M76 -14l10 -2q13 -51 36.5 -94.5t57.5 -74.5t78 -48t99 -14q43 2 87 13t78.5 31.5t56.5 51t22 71.5q0 31 -20 51.5t-52.5 34t-73.5 21t-84 12.5t-83.5 8.5t-71.5 9.5q-35 6 -55 16t-29.5 22t-11.5 25t0 25q3 20 22 34.5t46.5 25t59 16.5t60.5 8q-54 6 -99.5 22.5t-78 44
t-50.5 66.5t-18 89q0 60 26 102.5t67.5 70.5t93.5 41t104 13q26 0 54.5 -5t54.5 -11q40 49 88 79.5t107 30.5q19 0 44 -5l-40 -137h-7q-5 30 -31 50t-60 20q-22 0 -44.5 -10t-42.5 -32q33 -11 64 -29.5t54.5 -44t37.5 -59t14 -73.5q0 -63 -25 -106t-68 -70.5t-101.5 -41
t-124.5 -16.5q-101 -6 -101 -40q0 -19 35 -27.5t87.5 -14t113.5 -13.5t113.5 -26t87.5 -51.5t35 -90.5q0 -59 -32 -99.5t-82 -65.5t-111.5 -35.5t-121.5 -10.5q-40 0 -83 6t-84 18t-79 29t-69 39zM357 665q-41 0 -74 -16t-57 -44.5t-37 -68t-13 -86.5q0 -46 10 -85.5
t32.5 -68t58 -44.5t86.5 -16q47 0 79 19.5t51.5 51.5t28 73t8.5 84q0 44 -11 81t-33 63.5t-54.5 41.5t-74.5 15z" />
    <glyph glyph-name="h" unicode="h" horiz-adv-x="908" 
d="M36 10q49 0 63.5 25.5t15.5 79.5v596q0 31 -0.5 55t-6 40.5t-18.5 25.5t-38 11v10q21 2 46.5 6t51 10t50.5 13.5t45 16.5v-463q9 48 26 91.5t43 76.5t62.5 53.5t84.5 21.5q77 3 138 -20.5t103.5 -69t65.5 -110.5t25 -144v-221q1 -53 15.5 -78.5t63.5 -25.5v-10
q-35 2 -69.5 3t-66.5 1t-59.5 -0.5t-47.5 -1.5q-24 -1 -43 -2v10q27 0 42.5 6t23.5 18.5t10.5 32.5t2.5 47v210q0 67 -9 130t-32 111.5t-62.5 76.5t-101.5 27q-55 -2 -95 -32.5t-66 -78.5t-39.5 -107t-14.5 -117v-225q1 -51 16.5 -75t62.5 -24v-10q-21 2 -54 2.5t-73 0.5
q-39 0 -81 -0.5t-80 -2.5v10v0z" />
    <glyph glyph-name="i" unicode="i" horiz-adv-x="360" 
d="M36 10q49 0 63.5 25.5t15.5 79.5v376q0 31 -0.5 55t-6 40.5t-18.5 25.5t-38 11v10q21 2 46.5 6t51 10t50.5 13.5t45 16.5v-570q1 -51 16.5 -75t62.5 -24v-10q-30 2 -71 3t-87 1q-32 0 -65 -1t-65 -3v10zM103 800q0 33 20 56t52 23q34 0 53.5 -23.5t19.5 -55.5
q0 -31 -20.5 -54t-52.5 -23q-31 0 -51.5 20.5t-20.5 56.5z" />
    <glyph glyph-name="j" unicode="j" horiz-adv-x="351" 
d="M-9 -189q-38 -2 -78 4.5t-79 15.5l42 161h8q6 -29 14.5 -59t22.5 -54t34.5 -39.5t49.5 -15.5q41 0 63 19.5t32 51.5t11.5 74.5t1.5 89.5v438q0 30 -1 52.5t-7.5 38.5t-19.5 24.5t-37 10.5v10q21 2 46.5 6t51 10t50.5 13.5t45 16.5v-525q0 -177 -61.5 -258t-188.5 -85z
M105 800q0 33 20 56t53 23t53 -23.5t20 -55.5q0 -31 -20.5 -54t-52.5 -23t-52.5 20.5t-20.5 56.5z" />
    <glyph glyph-name="k" unicode="k" horiz-adv-x="750" 
d="M36 10q49 0 63.5 25.5t15.5 79.5v596q0 31 -0.5 55t-6 40.5t-18.5 25.5t-38 11v10q21 2 46.5 6t51 10t50.5 13.5t45 16.5v-620q12 44 35.5 73.5t52.5 52.5t61.5 42t63 41.5t56.5 51.5t43 72q6 21 -1 36.5t-35 21.5l1 9q27 -2 45.5 -3t37.5 -1q16 0 34.5 1t45.5 3h3v-9
q-29 -3 -48.5 -9t-33.5 -16.5t-26.5 -28t-28.5 -42.5q-20 -36 -46.5 -60.5t-55.5 -44.5t-58.5 -37.5t-55.5 -38.5q23 5 41 5q27 0 50.5 -7.5t40.5 -18.5q28 -17 50 -45t41 -61.5t37.5 -70t39.5 -71t46.5 -64.5t58.5 -50v-10q-30 1 -49.5 1h-37.5t-37.5 -0.5t-49.5 -0.5
q-15 26 -30.5 62.5t-31.5 77t-32.5 80.5t-33.5 73.5t-34.5 56.5t-35.5 29q-11 4 -22 4q-21 0 -40 -17q-26 -27 -42.5 -64.5t-18.5 -93.5v-99q1 -51 16.5 -75t62.5 -24v-10q-75 3 -146 3q-70 0 -142 -3v10z" />
    <glyph glyph-name="l" unicode="l" horiz-adv-x="360" 
d="M180 4q-36 0 -72 -1t-72 -3v10q49 0 63.5 25.5t15.5 79.5v596q0 31 -0.5 55t-6 40.5t-18.5 25.5t-38 11v10q21 2 46.5 6t51 10t50.5 13.5t45 16.5v-790q1 -51 16.5 -75t62.5 -24v-10q-36 2 -72 3t-72 1z" />
    <glyph glyph-name="m" unicode="m" horiz-adv-x="1455" 
d="M36 10q49 0 63.5 25.5t15.5 79.5v422q0 31 -0.5 55t-6 40.5t-18.5 25.5t-38 11v10q21 2 46.5 6t51 10t50.5 13.5t45 16.5v-289q9 48 26 91.5t43 76.5t62.5 53.5t84.5 21.5q68 3 124 -15.5t97.5 -55t68 -88.5t36.5 -117q6 52 22 101.5t43 88t66 62t90 24.5q77 3 138 -20.5
t103.5 -69t65.5 -110.5t25 -144v-221q1 -53 15.5 -78.5t63.5 -25.5v-10q-35 2 -69.5 3t-66.5 1t-59.5 -0.5t-47.5 -1.5q-24 -1 -43 -2v10q27 0 42.5 6t23.5 18.5t10.5 32.5t2.5 47v210q0 67 -9 130t-32 111.5t-62.5 76.5t-101.5 27q-53 -2 -92 -30.5t-65.5 -74t-40.5 -102
t-16 -113.5v-235q1 -53 15.5 -78.5t63.5 -25.5v-10q-35 2 -69.5 3t-66.5 1t-59.5 -0.5t-47.5 -1.5q-24 -1 -43 -2v10q27 0 42.5 6t23.5 18.5t10.5 32.5t2.5 47v211q0 67 -9 130t-32 111t-62.5 76t-101.5 27q-55 -2 -95 -32.5t-66 -78.5t-39.5 -107t-14.5 -117v-225
q1 -51 16.5 -75t62.5 -24v-10q-47 2 -79 3t-61 1t-61.5 -1t-80.5 -3h-6v10z" />
    <glyph glyph-name="n" unicode="n" horiz-adv-x="908" 
d="M36 10q49 0 63.5 25.5t15.5 79.5v422q0 31 -0.5 55t-6 40.5t-18.5 25.5t-38 11v10q21 2 46.5 6t51 10t50.5 13.5t45 16.5v-289q9 48 26 91.5t43 76.5t62.5 53.5t84.5 21.5q77 3 138 -20t103.5 -67.5t65.5 -108t25 -142.5v-227q1 -53 15.5 -78.5t63.5 -25.5v-10
q-35 2 -69.5 3t-66.5 1t-59.5 -0.5t-47.5 -1.5q-24 -1 -43 -2v10q27 0 42.5 6t23.5 18.5t10.5 32.5t2.5 47v216q0 67 -9 129t-32 109.5t-62.5 74.5t-101.5 26q-55 -2 -95 -32.5t-66 -78.5t-39.5 -107t-14.5 -117v-225q1 -51 16.5 -75t62.5 -24v-10q-50 2 -81 3.5t-58 1.5
q-29 0 -60 -1.5t-83 -3.5h-6v10z" />
    <glyph glyph-name="o" unicode="o" horiz-adv-x="747" 
d="M371 0q-77 0 -139 27t-105.5 74t-67 110t-23.5 136q0 70 24 130.5t68 105.5t106.5 70.5t139.5 25.5q78 0 140 -26t106 -71.5t67.5 -107t23.5 -133.5q0 -73 -23.5 -135.5t-68 -108t-107.5 -71.5t-141 -26zM167 346q0 -32 3.5 -69.5t12.5 -74.5t24 -71.5t38.5 -61t55 -42.5
t74.5 -16q64 0 104 34t62.5 84t30.5 108.5t8 106.5q0 32 -3.5 68.5t-12.5 72.5t-24 69.5t-38 59t-55 40.5t-74 15t-74 -15t-54.5 -40.5t-37.5 -58.5t-24 -69t-12.5 -72.5t-3.5 -67.5z" />
    <glyph glyph-name="p" unicode="p" horiz-adv-x="817" 
d="M36 -247q21 0 34 9.5t20.5 25.5t10 38t3.5 48v709q-1 20 -3.5 35.5t-9.5 26t-19 16.5t-32 8v10q44 4 98 16t95 30v-289q8 49 28.5 93t53 77.5t75.5 53t97 19.5q72 0 127 -24.5t92 -69.5t56 -108.5t19 -141.5q0 -79 -22 -141.5t-61 -105.5t-93 -65.5t-117 -22.5
q-47 -1 -89.5 17t-76.5 48.5t-57 72t-32 88.5v-354q1 -25 3.5 -47t10 -38t20.5 -25t34 -9v-11q-44 3 -72 4.5t-54 1.5q-28 0 -58.5 -1.5t-80.5 -4.5v11zM234 339q-1 -32 2.5 -75t21.5 -86q14 -36 37 -67t53 -53.5t65.5 -35t74.5 -11.5q46 0 77.5 25t51 68.5t28 103
t8.5 127.5q0 54 -5.5 113t-23 108t-50.5 80.5t-87 31.5q-38 0 -74 -12t-67 -36t-55 -59t-37 -81q-6 -16 -9.5 -35t-6 -38t-3.5 -37t-1 -31z" />
    <glyph glyph-name="q" unicode="q" horiz-adv-x="817" 
d="M329 0q-63 0 -116.5 22.5t-93 65.5t-61.5 105.5t-22 141.5q0 78 19 141.5t56 108.5t92 69.5t128 24.5q52 0 95.5 -20t76 -53.5t53.5 -77.5t28 -92v289q20 -9 45 -16.5t50.5 -13.5t51 -10t46.5 -6v-10q-40 -3 -51 -24t-12 -62v-709q0 -26 2.5 -48t10 -38t20.5 -25.5
t34 -9.5v-11q-41 3 -69.5 5t-56.5 2q-27 0 -58.5 -2t-79.5 -5v11q21 0 34 9t20 25t10 38t3 47v354q-9 -47 -32 -88.5t-57 -72.5t-76.5 -48.5t-89.5 -16.5zM164 335q0 -68 8.5 -127.5t28 -103t51 -68.5t77.5 -25q39 -1 74.5 11.5t65.5 35t53 53.5t37 67q19 43 22 86t3 75
q0 13 -1.5 31t-4 37t-6 38t-9.5 35q-14 46 -37.5 81t-54.5 59t-67 36t-73 12q-54 0 -87 -31.5t-51 -80.5t-23.5 -108t-5.5 -113z" />
    <glyph glyph-name="r" unicode="r" horiz-adv-x="551" 
d="M36 10q49 0 63.5 25.5t15.5 79.5v422q0 31 -0.5 55t-6 40.5t-18.5 25.5t-38 11v10q21 2 46.5 6t51 10t50.5 13.5t45 16.5v-277q6 49 26.5 93t57 76t89 49t123.5 13l-2 -130q-23 5 -46 7.5t-45 2.5q-44 0 -81 -11t-64 -33t-42.5 -56t-15.5 -80v-270q1 -51 16.5 -75
t62.5 -24v-10q-50 2 -81 3.5t-58 1.5q-29 0 -60 -1.5t-83 -3.5h-6v10z" />
    <glyph glyph-name="s" unicode="s" horiz-adv-x="651" 
d="M119 370q-30 23 -44.5 55t-13.5 66.5t18.5 68t51.5 60t85.5 43t121.5 16.5q37 0 67.5 -3.5t58 -9t52.5 -13.5t51 -17l-37 -145h-8q-5 39 -19.5 72t-37 56.5t-52.5 37t-67 13.5q-67 0 -109.5 -24t-61 -56.5t-13.5 -67t34 -55.5q25 -18 71.5 -29.5t98.5 -23t102.5 -27
t83.5 -40.5q31 -24 47.5 -59t15.5 -73.5t-20 -77t-58.5 -69t-100.5 -49.5t-145 -19q-71 0 -131 14.5t-124 47.5l41 147h5q5 -45 23 -81.5t46.5 -62.5t67 -40.5t83.5 -14.5q75 0 120 28.5t64.5 67t15 77.5t-29.5 61q-23 20 -67.5 31.5t-95.5 22.5t-102 27t-88 45z" />
    <glyph glyph-name="t" unicode="t" horiz-adv-x="333" 
d="M36 679q173 0 182 166h11v-166h68v-10h-68v-472v-69.5t6 -59.5t20 -41.5t42 -15.5v-11q-52 0 -89 8t-61 26.5t-35.5 50.5t-11.5 80v372q0 30 -0.5 53.5t-6 40t-19 26.5t-38.5 12v10v0z" />
    <glyph glyph-name="u" unicode="u" horiz-adv-x="897" 
d="M36 679q57 -3 111 -2t96 3v-331q0 -63 7.5 -124.5t29 -109.5t60.5 -77.5t103 -27.5q55 1 96 32t68 79t41 107t15 117v225q-1 51 -16 75t-63 24v10q34 -2 59 -2.5t45 -0.5q27 0 50.5 0.5t54.5 2.5v-537q0 -19 0.5 -42t6.5 -42.5t20 -33t41 -13.5v-11q-52 0 -89.5 8
t-61.5 26.5t-35.5 50.5t-11.5 80v78q-9 -45 -26.5 -88t-45 -77t-65 -55.5t-84.5 -22.5q-77 -3 -137.5 20t-102 67.5t-64 108.5t-23.5 143v226q-1 53 -15.5 78.5t-63.5 25.5v10v0z" />
    <glyph glyph-name="v" unicode="v" horiz-adv-x="664" 
d="M11 679q39 -2 70 -3.5t60 -1.5q27 0 56.5 1.5t67.5 3.5q63 6 95.5 -24t32.5 -92q0 -35 3 -65t10 -52t19.5 -34.5t30.5 -12.5q17 0 40 12q15 38 30 75.5l29 72.5q20 51 1.5 78.5t-84.5 34.5v7q24 -2 45.5 -3t41.5 -1q24 0 47.5 1t47.5 3v-7q-29 -17 -48.5 -42t-35.5 -62
q-16 -41 -34.5 -87t-37.5 -93.5t-37.5 -95t-35.5 -90.5l-80 -202h-8q-2 5 -14 33t-31 72t-43.5 101t-51.5 120t-55 128t-54 126q-22 47 -40 66t-38 25zM270 668q-18 -3 -28.5 -12.5t-14.5 -24t-2 -32t9 -35.5q26 -62 56 -130.5t55 -126.5q29 -68 57 -134q13 31 27 67
q12 31 28 71l34 85q-19 -8 -35 -8q-28 0 -43 20.5t-22 48.5t-8 58t-1 48q0 114 -112 105z" />
    <glyph glyph-name="w" unicode="w" horiz-adv-x="1068" 
d="M11 679q40 -2 71 -3.5t62 -1.5q29 0 59.5 1.5t70.5 3.5v-8q-42 -17 -48 -43t8 -64q39 -90 73 -169q15 -34 29.5 -68.5t28 -66t24.5 -57.5t18 -42q36 60 80 115t89 106q-20 48 -42.5 100.5t-41.5 97.5q-22 47 -40.5 66t-37.5 25v8q40 -2 71 -3.5t61 -1.5q28 0 58 1.5
t68 3.5q60 4 84 -8.5t20 -39t-31.5 -65.5t-69.5 -88q19 -45 31.5 -74t25.5 -59t30 -69t44 -103q26 65 52 132q23 57 49.5 124.5t51.5 129.5q20 51 1.5 78.5t-84.5 34.5v7q24 -2 45.5 -3t41.5 -1q24 0 47.5 1t47.5 3v-7q-29 -17 -48.5 -42t-35.5 -62q-17 -41 -35 -87
t-37 -93.5t-37.5 -95t-35.5 -90.5l-80 -202h-8q-2 5 -16 37.5t-36 83t-50 115.5t-58 136q-36 -42 -72.5 -86.5t-68 -92t-56.5 -96t-39 -97.5h-8q-2 5 -14 33t-31 72t-43.5 101t-51.5 120t-55 128t-54 126q-22 47 -40 66t-38 25zM679 668q-22 -2 -33.5 -11t-15.5 -23.5
t-1.5 -32.5t9.5 -37q9 -22 17 -40.5t15 -34.5q42 48 67 84.5t29 60.5q2 14 -6 21.5t-21.5 10.5t-29.5 3t-30 -1z" />
    <glyph glyph-name="x" unicode="x" horiz-adv-x="705" 
d="M11 679q38 -2 68 -3t59 -1t59.5 1t71.5 3q30 2 51 -9.5t36.5 -29.5t27 -39.5t22 -40t20.5 -31t23 -12.5q14 0 27 12q9 11 17 21l16 20q32 38 24 65.5t-68 32.5v11q4 0 24.5 -2t58.5 -2q20 0 43 1t52 3v-7q-35 -13 -62.5 -39t-50.5 -55q-35 -43 -71 -87t-71 -88
q57 -84 110.5 -163t93.5 -139q1 -2 9 -13.5t21.5 -27t32 -30.5t40.5 -22l-1 -8q-38 3 -68.5 4t-59.5 1t-61 -1t-74 -4v8q34 9 32.5 31t-21.5 53q-23 35 -60.5 90t-79.5 116q-55 -68 -96 -118t-56 -69t-21 -36t0 -31t24 -23.5t51 -12.5v-8q-24 2 -45.5 3t-41.5 1
q-24 0 -47.5 -1t-47.5 -3v8q30 13 50 31.5t43 45.5q35 44 82.5 102t98.5 121q-35 50 -67.5 98.5t-58.5 86.5q-30 45 -57 85q-1 1 -9 13t-21.5 27.5t-32 30.5t-40.5 23zM273 668q-18 -2 -25.5 -11.5t-5.5 -22.5q2 -11 8 -24t17 -29q3 -5 20 -30t37 -54t37 -54t20 -30
q20 25 39.5 48t37.5 46q-17 -4 -31 7q-12 8 -21.5 24t-18.5 33q-13 26 -28.5 50t-38.5 37q-19 11 -47 10z" />
    <glyph glyph-name="y" unicode="y" horiz-adv-x="664" 
d="M88 580q-22 47 -40 66t-38 25l1 8q39 -2 70 -3.5t61 -1.5q28 0 58 1.5t68 3.5q35 3 57.5 -17t37.5 -51t24.5 -68t18.5 -69t20.5 -53.5t29.5 -21.5q19 0 46 27q14 34 27.5 67.5t25.5 65.5q20 51 -4 78.5t-90 34.5v7q24 -2 46.5 -3t44.5 -1q27 0 52.5 1t49.5 3v-7
q-29 -17 -48.5 -42t-35.5 -62q-21 -54 -46 -117l-50 -126t-48 -121.5t-41 -103.5q-23 -57 -40.5 -101.5t-35 -80.5t-37 -64.5t-46.5 -53.5q-38 -35 -83 -45t-83 -6l47 142h7q9 -26 30 -39t45 -13q23 0 45 10.5t38 30.5q13 17 24.5 40t16 51.5t0 63t-22.5 76.5
q-20 44 -44 100.5t-51 118.5t-54.5 126t-52.5 124zM275 668q-20 -2 -31.5 -11.5t-16 -23.5t-2.5 -32t9 -37q26 -62 56 -130.5t55 -126.5q29 -68 57 -134q13 32 28 70q13 32 29 73.5t35 87.5q-19 -16 -38 -16q-16 0 -28 13q-15 14 -24 43t-17 61q-7 26 -15.5 55t-21 53
t-30.5 39.5t-45 15.5z" />
    <glyph glyph-name="z" unicode="z" horiz-adv-x="664" 
d="M70 677v2h552q-9 -15 -31.5 -51.5t-53.5 -86t-67.5 -108t-73.5 -117.5q-86 -138 -190 -305h49q70 0 122.5 8.5t94 29.5t76.5 55.5t72 85.5l2 -1q2 -2 6 -2l-28 -184l-1 -1v-2h-554q105 170 192 310q37 60 74 118.5t67.5 108t53 84.5t30.5 47h-53q-71 0 -123 -8.5
t-93.5 -29.5t-77 -55.5t-71.5 -85.5q-1 0 -3 1q-4 2 -5 3z" />
    <glyph glyph-name="braceleft" unicode="{" horiz-adv-x="425" 
d="M36 415q45 4 73.5 16.5t45 34t23 53t6.5 75.5v123q0 58 10 96.5t33 61.5t61 33t95 10h6v-16q-32 0 -47.5 -9.5t-22 -29t-6.5 -50v-71.5v-89q0 -110 -52.5 -167t-152.5 -78q49 -11 87.5 -29t64.5 -47t39.5 -70.5t13.5 -97.5v-83v-72.5t6.5 -50.5t22.5 -30t47 -10v-19h-6
q-57 0 -95.5 10.5t-61.5 34t-32.5 62t-9.5 94.5v123q0 45 -7 77t-23.5 53.5t-45.5 33t-72 15.5v13v0z" />
    <glyph glyph-name="bar" unicode="|" horiz-adv-x="96" 
d="M36 -103v1030h24v-1030h-24z" />
    <glyph glyph-name="braceright" unicode="}" horiz-adv-x="425" 
d="M36 -101v19q31 0 46.5 10t22 30t7 50.5t0.5 72.5v83q0 56 13.5 97.5t39.5 70.5t64 47t88 29q-101 21 -153 78t-52 167v89v71.5t-6.5 50t-22.5 29t-47 9.5v16h5q57 0 95.5 -10t61.5 -33t33 -61.5t10 -96.5v-123q0 -44 6.5 -75.5t23 -53t45 -34t73.5 -16.5v-13
q-44 -4 -72.5 -15.5t-45 -33t-23.5 -53.5t-7 -77v-123q0 -56 -9.5 -94.5t-32.5 -62t-61.5 -34t-96.5 -10.5h-5z" />
    <glyph glyph-name="asciitilde" unicode="~" horiz-adv-x="784" 
d="M36 394q44 34 96 59t108 25q42 0 82 -12.5t77.5 -27t73.5 -27t72 -12.5q28 0 55 7.5t52.5 20.5t49 29t46.5 33v-22q-45 -35 -96 -59t-108 -24q-36 0 -74.5 12.5t-77.5 27t-77.5 27t-75.5 12.5q-28 0 -56.5 -8.5t-54.5 -22t-49.5 -30t-42.5 -31.5v23v0z" />
    <glyph glyph-name="uni00A0" unicode="&#xa0;" horiz-adv-x="364" 
 />
    <glyph glyph-name="yen" unicode="&#xa5;" horiz-adv-x="790" 
d="M109 759q-8 10 -19.5 23t-25 26t-27.5 22.5t-27 12.5l1 8q39 -3 70 -4t61 -1q28 0 58 1t68 3q39 3 67.5 -13t51 -41t39.5 -55.5t33 -56.5t31.5 -43.5t35.5 -17.5t45 22l95 122q25 32 -1.5 52.5t-91.5 20.5v11q23 -2 46 -3t52 -1q22 0 48.5 1t60.5 3v-8q-6 -2 -8 -2
q-15 -6 -27 -12.5t-22.5 -15t-20.5 -19.5t-22 -27q-50 -63 -106 -135.5t-108 -138.5v-379q1 -53 15.5 -78.5t63.5 -25.5v-10q-49 2 -81 3.5t-61 1.5q-30 0 -62.5 -1t-82.5 -4v10q25 0 41 7t24.5 21t11.5 35.5t3 50.5v342l-10 12q-64 81 -121 155t-98 126zM274 840
q-37 -3 -39 -24t22 -53l203 -261l90 116q-16 -8 -31 -5q-14 2 -25.5 11.5t-22 22.5t-19.5 28t-17 30q-15 26 -31 50.5t-35 43.5t-42 30.5t-53 10.5zM710 327v-16h-631v16h631zM710 497v-16h-631v16h631z" />
    <glyph glyph-name="dieresis" unicode="&#xa8;" horiz-adv-x="301" 
d="M169 755q0 20 13.5 35.5t33.5 15.5t33 -16t13 -35q0 -20 -12.5 -35.5t-33.5 -15.5q-20 0 -33.5 15.5t-13.5 35.5zM36 755q0 19 13 35t33 16t33.5 -15.5t13.5 -35.5t-13 -36q-14 -15 -34 -15q-21 0 -33.5 15.5t-12.5 35.5z" />
    <glyph glyph-name="copyright" unicode="&#xa9;" horiz-adv-x="812" 
d="M406 16q-79 0 -147 33t-117.5 89t-77.5 129.5t-28 155.5q0 81 28 155t77.5 130.5t117.5 89.5t148 33q77 0 144 -32.5t117 -88t79 -129.5t29 -158q0 -81 -28 -154.5t-77.5 -130t-117.5 -89.5t-147 -33zM52 423q0 -78 27 -148.5t74 -124.5t112 -86t141 -32q77 0 142 32
t112 86t73.5 125t26.5 148q0 79 -27 150.5t-74.5 125t-112 85t-139.5 31.5q-77 0 -142 -32t-112.5 -86t-74 -125t-26.5 -149zM177 425q0 52 17.5 96t49 75.5t75.5 49t98 17.5q93 0 169 -52l-23 -84l-5 1q-7 28 -18 51.5t-27.5 41t-38.5 27.5t-51 10q-45 0 -78 -20t-54 -53.5
t-31 -77t-10 -89.5q0 -44 11.5 -85t33.5 -73t54.5 -51.5t74.5 -19.5q30 0 54.5 11.5t42.5 31.5t29.5 46.5t16.5 56.5l6 1l25 -89q-79 -63 -182 -63q-50 0 -93.5 17t-76 48.5t-51 76t-18.5 99.5z" />
    <glyph glyph-name="logicalnot" unicode="&#xac;" horiz-adv-x="703" 
d="M667 577v-290h-29v265h-602v25h631z" />
    <glyph glyph-name="uni00AD" unicode="&#xad;" horiz-adv-x="0" 
 />
    <glyph glyph-name="registered" unicode="&#xae;" horiz-adv-x="617" 
d="M306 251q-52 0 -101 22t-86.5 62t-60 95t-22.5 120q0 60 20.5 114.5t57 96t86.5 66t109 24.5q56 0 105.5 -23t86.5 -63.5t58.5 -95.5t21.5 -119q0 -57 -20 -110.5t-56 -95.5t-87 -67.5t-112 -25.5zM309 835q-56 0 -103.5 -23.5t-81.5 -63t-53 -91t-19 -107.5
q0 -62 21.5 -114t57 -89.5t81 -58.5t94.5 -21q57 0 104.5 23.5t82 63t53.5 90.5t19 106q0 62 -21 114t-56 90t-81.5 59.5t-97.5 21.5zM199 691q0 23 -5.5 34.5t-26.5 11.5v4h152q54 0 88 -17.5t34 -66.5q0 -27 -11 -41t-28.5 -21t-39 -10t-42.5 -8q20 0 43 -14t45 -51
q23 -42 46 -72t36 -38v-4q-5 0 -15.5 0.5t-21.5 0.5t-21.5 -0.5t-15.5 -0.5l-22.5 36t-27.5 46q-8 15 -16.5 29.5t-19.5 28.5q-18 23 -39 23q-9 0 -18 -7q-8 -8 -14 -20.5t-8 -29.5v-67q0 -16 4.5 -25.5t21.5 -9.5v-4q-18 1 -29.5 1.5t-22 0.5t-22.5 -0.5t-30 -1.5v4
q17 0 21.5 11t4.5 28v250zM251 525q7 23 20 35.5t28 20t30.5 12t28.5 11.5t21.5 19t9.5 34q1 46 -25 63t-60 17h-53v-212z" />
    <glyph glyph-name="plusminus" unicode="&#xb1;" horiz-adv-x="584" 
d="M36 458v13h250v256h12v-256h250v-13h-250v-243h-12v243h-250zM40 139h507v-16h-507v16z" />
    <glyph glyph-name="acute" unicode="&#xb4;" horiz-adv-x="234" 
d="M198 896l-145 -191h-17l133 202z" />
    <glyph glyph-name="cedilla" unicode="&#xb8;" horiz-adv-x="263" 
d="M140 -224q-29 0 -58 10t-46 19l5 13q12 -6 33.5 -14.5t42.5 -8.5t36.5 14t15.5 53q0 26 -13.5 37t-30.5 14t-32 1t-17 -2l32 109h19l-28 -92q19 3 36 3q47 0 70 -21t21 -52q-3 -48 -28.5 -65.5t-57.5 -17.5z" />
    <glyph glyph-name="onequarter" unicode="&#xbc;" horiz-adv-x="682" 
d="M322 121l268 345h5v-342q19 6 30.5 23t17.5 49h3v-81h-51v-54q0 -29 8 -43t35 -14v-6q-29 2 -61 2.5t-60 -0.5q-33 -1 -64 -2v6q38 0 55 13.5t17 43.5v54h-203v6zM43 399q26 0 34.5 14t8.5 43v369l-35 7v6l99 25h7v-410q1 -24 7 -37t24 -16q4 -1 13 -1v-6q-29 2 -72 2.5
t-86 -2.5v6zM525 372q-29 -38 -63.5 -81.5t-63.5 -81.5l-68 -88h195v251zM36 12l566 892h13v-9l-566 -892h-13v9z" />
    <glyph glyph-name="onehalf" unicode="&#xbd;" horiz-adv-x="783" 
d="M412 -1q13 61 45.5 100.5t86.5 71.5q24 15 47.5 31.5t42 36.5t30.5 44t12 53q0 25 -7 47.5t-20.5 39.5t-33 27t-44.5 10q-51 0 -81 -34t-42 -85h-4l-22 85q68 40 146 40q44 0 77.5 -11t56 -29.5t34 -44t11.5 -54.5q0 -43 -19.5 -69.5t-50 -44t-66.5 -30.5t-69 -28.5
t-58.5 -37.5t-34.5 -58h189q20 0 33.5 1.5t25 7t21.5 15.5t22 28l5 -2l-22 -112q-28 2 -58 2h-41h-212zM194 393q-28 2 -71 2.5t-87 -2.5v6q27 0 35 14t9 43v369l-35 7v6l99 25h7v-410q1 -24 6.5 -37t23.5 -16q4 -1 13 -1v-6zM45 -27l566 892h13v-9l-565 -892h-14v9z" />
    <glyph glyph-name="threequarters" unicode="&#xbe;" horiz-adv-x="844" 
d="M483 114v6l268 344h5v-341q19 6 30.5 23t17.5 49h4v-81h-52v-54q1 -29 9 -43t35 -14v-6q-29 2 -61 2.5t-60 -0.5q-33 -1 -64 -2v6q38 0 54.5 13.5t16.5 43.5v54h-203zM63 518h4q6 -28 17.5 -52.5t28.5 -42.5t40 -28t52 -10t51.5 10.5t38.5 28.5t24 41t8 48q0 59 -33.5 88
t-92.5 29v5q55 0 80.5 25t25.5 79q0 42 -25 71.5t-73 29.5q-50 0 -80.5 -32.5t-41.5 -83.5h-4l-19 85q35 20 72 28.5t77 8.5q28 0 57.5 -5.5t52.5 -18.5t38 -33t15 -48q0 -26 -12.5 -45t-32.5 -32t-45.5 -21t-50.5 -11q30 -3 59 -10t52 -20.5t37.5 -34t14.5 -50.5
q0 -36 -16.5 -62.5t-44 -43t-62.5 -24.5t-71 -8q-45 0 -88 12.5t-80 35.5zM686 120v251q-29 -38 -63.5 -81.5t-63.5 -81.5l-68 -88h195zM781 843h13v-9l-565 -892h-14v9z" />
    <glyph glyph-name="Agrave" unicode="&#xc0;" 
d="M10 8q29 16 48.5 41.5t35.5 61.5q78 194 140 352q27 67 52.5 132.5t46.5 119t35.5 89.5t17.5 45q1 1 1 2h8l319 -741q23 -53 42.5 -74t39.5 -28v-8q-39 3 -69.5 4t-59.5 1t-61 -1t-74 -4q-50 0 -82.5 25.5t-56 63t-41.5 81t-39 79.5t-50 58.5t-73 19.5
q-13 -34 -25.5 -65.5t-23 -58.5t-19 -48t-13.5 -34q-14 -37 -4.5 -68.5t52.5 -44.5v-8q-22 2 -38 3t-30 1q-19 0 -37 -1t-42 -3v8zM330 678q-8 -19 -22 -55.5t-32.5 -83t-39.5 -98.5t-41 -103q38 1 70 -18q33 -22 54.5 -60.5t40.5 -80.5q13 -29 27.5 -59t34.5 -54t47 -39.5
t63 -15.5q21 0 32.5 10t15.5 25.5t0.5 35t-11.5 40.5q-1 2 -1 3t-1 2t-1 2q-46 107 -78 182t-54.5 126.5t-36.5 85t-25 59t-20.5 47t-21.5 49.5zM477 878h-17l-131 165l29 11z" />
    <glyph glyph-name="Aacute" unicode="&#xc1;" 
d="M10 8q29 16 48.5 41.5t35.5 61.5q78 194 140 352q27 67 52.5 132.5t46.5 119t35.5 89.5t17.5 45q1 1 1 2h8l319 -741q23 -53 42.5 -74t39.5 -28v-8q-39 3 -69.5 4t-59.5 1t-61 -1t-74 -4q-50 0 -82.5 25.5t-56 63t-41.5 81t-39 79.5t-50 58.5t-73 19.5
q-13 -34 -25.5 -65.5t-23 -58.5t-19 -48t-13.5 -34q-14 -37 -4.5 -68.5t52.5 -44.5v-8q-22 2 -38 3t-30 1q-19 0 -37 -1t-42 -3v8zM330 678q-8 -19 -22 -55.5t-32.5 -83t-39.5 -98.5t-41 -103q38 1 70 -18q33 -22 54.5 -60.5t40.5 -80.5q13 -29 27.5 -59t34.5 -54t47 -39.5
t63 -15.5q21 0 32.5 10t15.5 25.5t0.5 35t-11.5 40.5q-1 2 -1 3t-1 2t-1 2q-46 107 -78 182t-54.5 126.5t-36.5 85t-25 59t-20.5 47t-21.5 49.5zM484 1068l-145 -191h-17l133 202z" />
    <glyph glyph-name="Acircumflex" unicode="&#xc2;" 
d="M10 8q29 16 48.5 41.5t35.5 61.5q78 194 140 352q27 67 52.5 132.5t46.5 119t35.5 89.5t17.5 45q1 1 1 2h8l319 -741q23 -53 42.5 -74t39.5 -28v-8q-39 3 -69.5 4t-59.5 1t-61 -1t-74 -4q-50 0 -82.5 25.5t-56 63t-41.5 81t-39 79.5t-50 58.5t-73 19.5
q-13 -34 -25.5 -65.5t-23 -58.5t-19 -48t-13.5 -34q-14 -37 -4.5 -68.5t52.5 -44.5v-8q-22 2 -38 3t-30 1q-19 0 -37 -1t-42 -3v8zM330 678q-8 -19 -22 -55.5t-32.5 -83t-39.5 -98.5t-41 -103q38 1 70 -18q33 -22 54.5 -60.5t40.5 -80.5q13 -29 27.5 -59t34.5 -54t47 -39.5
t63 -15.5q21 0 32.5 10t15.5 25.5t0.5 35t-11.5 40.5q-1 2 -1 3t-1 2t-1 2q-46 107 -78 182t-54.5 126.5t-36.5 85t-25 59t-20.5 47t-21.5 49.5zM532 890l-12 -10l-117 134l-118 -134l-12 10l130 165z" />
    <glyph glyph-name="Atilde" unicode="&#xc3;" 
d="M10 8q29 16 48.5 41.5t35.5 61.5q78 194 140 352q27 67 52.5 132.5t46.5 119t35.5 89.5t17.5 45q1 1 1 2h8l319 -741q23 -53 42.5 -74t39.5 -28v-8q-39 3 -69.5 4t-59.5 1t-61 -1t-74 -4q-50 0 -82.5 25.5t-56 63t-41.5 81t-39 79.5t-50 58.5t-73 19.5
q-13 -34 -25.5 -65.5t-23 -58.5t-19 -48t-13.5 -34q-14 -37 -4.5 -68.5t52.5 -44.5v-8q-22 2 -38 3t-30 1q-19 0 -37 -1t-42 -3v8zM330 678q-8 -19 -22 -55.5t-32.5 -83t-39.5 -98.5t-41 -103q38 1 70 -18q33 -22 54.5 -60.5t40.5 -80.5q13 -29 27.5 -59t34.5 -54t47 -39.5
t63 -15.5q21 0 32.5 10t15.5 25.5t0.5 35t-11.5 40.5q-1 2 -1 3t-1 2t-1 2q-46 107 -78 182t-54.5 126.5t-36.5 85t-25 59t-20.5 47t-21.5 49.5zM253 864q3 20 9 38.5t16 32t24.5 21.5t34.5 8q18 0 37 -8t37 -17l34 -17t30 -8q15 0 25.5 7t17.5 18t11.5 24t6.5 24h17
q-4 -21 -10 -39t-16 -32t-24.5 -22t-35.5 -8q-16 0 -35 8t-38 18t-36 18t-29 8q-14 0 -23.5 -7.5t-16.5 -18.5t-11.5 -24t-7.5 -24h-17z" />
    <glyph glyph-name="Adieresis" unicode="&#xc4;" 
d="M10 8q29 16 48.5 41.5t35.5 61.5q78 194 140 352q27 67 52.5 132.5t46.5 119t35.5 89.5t17.5 45q1 1 1 2h8l319 -741q23 -53 42.5 -74t39.5 -28v-8q-39 3 -69.5 4t-59.5 1t-61 -1t-74 -4q-50 0 -82.5 25.5t-56 63t-41.5 81t-39 79.5t-50 58.5t-73 19.5
q-13 -34 -25.5 -65.5t-23 -58.5t-19 -48t-13.5 -34q-14 -37 -4.5 -68.5t52.5 -44.5v-8q-22 2 -38 3t-30 1q-19 0 -37 -1t-42 -3v8zM330 678q-8 -19 -22 -55.5t-32.5 -83t-39.5 -98.5t-41 -103q38 1 70 -18q33 -22 54.5 -60.5t40.5 -80.5q13 -29 27.5 -59t34.5 -54t47 -39.5
t63 -15.5q21 0 32.5 10t15.5 25.5t0.5 35t-11.5 40.5q-1 2 -1 3t-1 2t-1 2q-46 107 -78 182t-54.5 126.5t-36.5 85t-25 59t-20.5 47t-21.5 49.5zM423 927q0 20 13.5 35.5t33.5 15.5t33 -16t13 -35q0 -20 -12.5 -35.5t-33.5 -15.5q-20 0 -33.5 15.5t-13.5 35.5zM290 927
q0 19 13 35t33 16t33.5 -15.5t13.5 -35.5t-13 -36q-14 -15 -34 -15q-21 0 -33.5 15.5t-12.5 35.5z" />
    <glyph glyph-name="Aring" unicode="&#xc5;" 
d="M10 8q29 16 48.5 41.5t35.5 61.5q78 194 140 352q27 67 52.5 132.5t46.5 119t35.5 89.5t17.5 45q1 1 1 2h8l319 -741q23 -53 42.5 -74t39.5 -28v-8q-39 3 -69.5 4t-59.5 1t-61 -1t-74 -4q-50 0 -82.5 25.5t-56 63t-41.5 81t-39 79.5t-50 58.5t-73 19.5
q-13 -34 -25.5 -65.5t-23 -58.5t-19 -48t-13.5 -34q-14 -37 -4.5 -68.5t52.5 -44.5v-8q-22 2 -38 3t-30 1q-19 0 -37 -1t-42 -3v8zM330 678q-8 -19 -22 -55.5t-32.5 -83t-39.5 -98.5t-41 -103q38 1 70 -18q33 -22 54.5 -60.5t40.5 -80.5q13 -29 27.5 -59t34.5 -54t47 -39.5
t63 -15.5q21 0 32.5 10t15.5 25.5t0.5 35t-11.5 40.5q-1 2 -1 3t-1 2t-1 2q-46 107 -78 182t-54.5 126.5t-36.5 85t-25 59t-20.5 47t-21.5 49.5zM403 849q-27 0 -49.5 11t-39 29t-25.5 42t-9 51q0 26 9 50t25 42t39 29t50 11q26 0 48.5 -10.5t39 -28.5t25.5 -42t9 -51
q0 -28 -9 -52t-25.5 -42t-39 -28.5t-48.5 -10.5zM296 982q0 -24 8 -45t22.5 -37t34 -25.5t42.5 -9.5q21 0 40.5 8.5t34 24t23 37t8.5 47.5q0 23 -8 44t-22 37t-33.5 25.5t-42.5 9.5t-43 -9.5t-34 -25.5t-22 -37t-8 -44z" />
    <glyph glyph-name="AE" unicode="&#xc6;" horiz-adv-x="1564" 
d="M10 8q29 16 48.5 41.5t35.5 61.5q78 194 140 352q27 67 52.5 132.5t46.5 119t35.5 89.5t17.5 45q1 1 1 2h8l319 -741q23 -53 42.5 -74t39.5 -28v-8q-39 3 -69.5 4t-59.5 1t-61 -1t-74 -4q-50 0 -82.5 25.5t-56 63t-41.5 81t-39 79.5t-50 58.5t-73 19.5
q-13 -34 -25.5 -65.5t-23 -58.5t-19 -48t-13.5 -34q-14 -37 -4.5 -68.5t52.5 -44.5v-8q-22 2 -38 3t-30 1q-19 0 -37 -1t-42 -3v8zM330 678q-8 -19 -22 -55.5t-32.5 -83t-39.5 -98.5t-41 -103q38 1 70 -18q33 -22 54.5 -60.5t40.5 -80.5q13 -29 27.5 -59t34.5 -54t47 -39.5
t63 -15.5q21 0 32.5 10t15.5 25.5t0.5 35t-11.5 40.5q-1 2 -1 3t-1 2t-1 2q-46 107 -78 182t-54.5 126.5t-36.5 85t-25 59t-20.5 47t-21.5 49.5zM842 10q25 0 41 7t24 21t11 35.5t3 50.5v621q0 22 -2 39.5t-9 30t-20 19.5t-35 7v10h665v-3l34 -184l-8 -3q-37 51 -72 85.5
t-76.5 55.5t-94 29.5t-122.5 8.5h-132v-351h41q68 0 113 7t74.5 22.5t46.5 42t29 65.5h6v-284h-6q-18 37 -36 63t-45.5 42.5t-70.5 24t-111 7.5h-41v-468h108q68 0 123.5 8.5t102 30t86.5 58.5t78 93l7 -2l-34 -199h-678v10z" />
    <glyph glyph-name="Ccedilla" unicode="&#xc7;" horiz-adv-x="822" 
d="M36 429q0 93 31 171t87.5 134t135 87.5t174.5 31.5q81 0 157 -22t144 -70l-40 -150l-10 2q-13 49 -33 91.5t-49 73.5t-68 48.5t-90 17.5q-81 0 -139.5 -36t-96 -95t-55 -136.5t-17.5 -159.5q0 -78 20 -151.5t59 -131t96.5 -92t133.5 -34.5q54 0 97.5 21t75.5 56.5
t53 82.5t30 100l10 2l44 -159q-72 -58 -151.5 -85t-173.5 -27q-89 0 -166 30.5t-135 86.5t-91 135.5t-33 177.5zM393 -221q-29 0 -58 10t-46 19l5 13q12 -6 33.5 -14.5t42.5 -8.5t36.5 14t15.5 53q0 26 -13.5 37t-30.5 14t-32 1t-17 -2l32 109h19l-28 -92q19 3 36 3
q47 0 70 -21t21 -52q-3 -48 -28.5 -65.5t-57.5 -17.5z" />
    <glyph glyph-name="Egrave" unicode="&#xc8;" horiz-adv-x="758" 
d="M36 10q25 0 41 7t24 21t11 35.5t3 50.5v621q0 22 -2 39.5t-9 30t-20 19.5t-35 7v10h665v-3l34 -184l-8 -3q-37 51 -72 85.5t-76.5 55.5t-94 29.5t-122.5 8.5h-132v-351h41q68 0 113 7t74.5 22.5t46.5 42t29 65.5h6v-284h-6q-18 37 -36 63t-45.5 42.5t-70.5 24t-111 7.5
h-41v-468h108q68 0 123.5 8.5t102 30t86.5 58.5t78 93l7 -2l-34 -199h-678v10zM453 878h-17l-131 165l29 11z" />
    <glyph glyph-name="Eacute" unicode="&#xc9;" horiz-adv-x="758" 
d="M36 10q25 0 41 7t24 21t11 35.5t3 50.5v621q0 22 -2 39.5t-9 30t-20 19.5t-35 7v10h665v-3l34 -184l-8 -3q-37 51 -72 85.5t-76.5 55.5t-94 29.5t-122.5 8.5h-132v-351h41q68 0 113 7t74.5 22.5t46.5 42t29 65.5h6v-284h-6q-18 37 -36 63t-45.5 42.5t-70.5 24t-111 7.5
h-41v-468h108q68 0 123.5 8.5t102 30t86.5 58.5t78 93l7 -2l-34 -199h-678v10zM460 1068l-145 -191h-17l133 202z" />
    <glyph glyph-name="Ecircumflex" unicode="&#xca;" horiz-adv-x="758" 
d="M36 10q25 0 41 7t24 21t11 35.5t3 50.5v621q0 22 -2 39.5t-9 30t-20 19.5t-35 7v10h665v-3l34 -184l-8 -3q-37 51 -72 85.5t-76.5 55.5t-94 29.5t-122.5 8.5h-132v-351h41q68 0 113 7t74.5 22.5t46.5 42t29 65.5h6v-284h-6q-18 37 -36 63t-45.5 42.5t-70.5 24t-111 7.5
h-41v-468h108q68 0 123.5 8.5t102 30t86.5 58.5t78 93l7 -2l-34 -199h-678v10zM508 890l-12 -10l-117 134l-118 -134l-12 10l130 165z" />
    <glyph glyph-name="Edieresis" unicode="&#xcb;" horiz-adv-x="758" 
d="M36 10q25 0 41 7t24 21t11 35.5t3 50.5v621q0 22 -2 39.5t-9 30t-20 19.5t-35 7v10h665v-3l34 -184l-8 -3q-37 51 -72 85.5t-76.5 55.5t-94 29.5t-122.5 8.5h-132v-351h41q68 0 113 7t74.5 22.5t46.5 42t29 65.5h6v-284h-6q-18 37 -36 63t-45.5 42.5t-70.5 24t-111 7.5
h-41v-468h108q68 0 123.5 8.5t102 30t86.5 58.5t78 93l7 -2l-34 -199h-678v10zM399 927q0 20 13.5 35.5t33.5 15.5t33 -16t13 -35q0 -20 -12.5 -35.5t-33.5 -15.5q-20 0 -33.5 15.5t-13.5 35.5zM266 927q0 19 13 35t33 16t33.5 -15.5t13.5 -35.5t-13 -36q-14 -15 -34 -15
q-21 0 -33.5 15.5t-12.5 35.5z" />
    <glyph glyph-name="Igrave" unicode="&#xcc;" horiz-adv-x="359" 
d="M186 4q-32 0 -59.5 -0.5t-47.5 -1.5q-24 -1 -43 -2v10q27 0 42.5 6t23.5 18.5t10.5 32.5t2.5 47v631q0 22 -2 39.5t-9 30t-20 19.5t-35 7v10q43 -3 71.5 -4.5t54.5 -1.5q28 0 58 1.5t76 4.5v-10q-22 0 -35 -6.5t-20 -18.5t-9 -29.5t-2 -38.5v-634q0 -27 3.5 -46.5t12 -32
t24 -19t40.5 -6.5v-10q-35 2 -70 3t-67 1zM253 878h-17l-131 165l29 11z" />
    <glyph glyph-name="Iacute" unicode="&#xcd;" horiz-adv-x="359" 
d="M186 4q-32 0 -59.5 -0.5t-47.5 -1.5q-24 -1 -43 -2v10q27 0 42.5 6t23.5 18.5t10.5 32.5t2.5 47v631q0 22 -2 39.5t-9 30t-20 19.5t-35 7v10q43 -3 71.5 -4.5t54.5 -1.5q28 0 58 1.5t76 4.5v-10q-22 0 -35 -6.5t-20 -18.5t-9 -29.5t-2 -38.5v-634q0 -27 3.5 -46.5t12 -32
t24 -19t40.5 -6.5v-10q-35 2 -70 3t-67 1zM260 1068l-145 -191h-17l133 202z" />
    <glyph glyph-name="Icircumflex" unicode="&#xce;" horiz-adv-x="359" 
d="M186 4q-32 0 -59.5 -0.5t-47.5 -1.5q-24 -1 -43 -2v10q27 0 42.5 6t23.5 18.5t10.5 32.5t2.5 47v631q0 22 -2 39.5t-9 30t-20 19.5t-35 7v10q43 -3 71.5 -4.5t54.5 -1.5q28 0 58 1.5t76 4.5v-10q-22 0 -35 -6.5t-20 -18.5t-9 -29.5t-2 -38.5v-634q0 -27 3.5 -46.5t12 -32
t24 -19t40.5 -6.5v-10q-35 2 -70 3t-67 1zM309 890l-12 -10l-117 134l-118 -134l-12 10l130 165z" />
    <glyph glyph-name="Idieresis" unicode="&#xcf;" horiz-adv-x="359" 
d="M186 4q-32 0 -59.5 -0.5t-47.5 -1.5q-24 -1 -43 -2v10q27 0 42.5 6t23.5 18.5t10.5 32.5t2.5 47v631q0 22 -2 39.5t-9 30t-20 19.5t-35 7v10q43 -3 71.5 -4.5t54.5 -1.5q28 0 58 1.5t76 4.5v-10q-22 0 -35 -6.5t-20 -18.5t-9 -29.5t-2 -38.5v-634q0 -27 3.5 -46.5t12 -32
t24 -19t40.5 -6.5v-10q-35 2 -70 3t-67 1zM199 927q0 20 13.5 35.5t33.5 15.5t33 -16t13 -35q0 -20 -12.5 -35.5t-33.5 -15.5q-20 0 -33.5 15.5t-13.5 35.5zM66 927q0 19 13 35t33 16t33.5 -15.5t13.5 -35.5t-13 -36q-14 -15 -34 -15q-21 0 -33.5 15.5t-12.5 35.5z" />
    <glyph glyph-name="Ntilde" unicode="&#xd1;" horiz-adv-x="753" 
d="M36 10q27 0 42.5 6t23.5 18.5t10.5 32.5t2.5 47v652q-11 20 -19.5 35.5t-14.5 26.5q-7 13 -13 23h147q8 -15 33.5 -61t61.5 -111t79 -142.5l86 -155t82.5 -149.5t69.5 -125v630q0 27 -2.5 47t-10.5 32.5t-23.5 18.5t-42.5 6v10q30 -1 50.5 -1.5t38 -0.5t36 0.5t44.5 1.5
v-10q-27 0 -42.5 -5t-23.5 -17t-10.5 -32.5t-2.5 -50.5v-649q11 -20 20 -36t15 -27q7 -13 13 -24h-146q-12 22 -39.5 71.5t-64 115t-78.5 142t-84 152t-80.5 145t-67.5 121.5v-636q0 -29 2.5 -48.5t10.5 -31t23.5 -16.5t42.5 -5v-10q-26 1 -44.5 1.5t-36 0.5t-38 -0.5
t-50.5 -1.5v10zM226 864q3 20 9 38.5t16 32t24.5 21.5t34.5 8q18 0 37 -8t37 -17l34 -17t30 -8q15 0 25.5 7t17.5 18t11.5 24t6.5 24h17q-4 -21 -10 -39t-16 -32t-24.5 -22t-35.5 -8q-16 0 -35 8t-38 18t-36 18t-29 8q-14 0 -23.5 -7.5t-16.5 -18.5t-11.5 -24t-7.5 -24h-17z
" />
    <glyph glyph-name="Ograve" unicode="&#xd2;" horiz-adv-x="911" 
d="M36 428q0 91 31.5 169t87.5 134t132.5 88t166.5 32q91 0 168.5 -32.5t133.5 -89t87.5 -134t31.5 -167.5q0 -89 -32.5 -167t-89 -136t-133 -91.5t-164.5 -33.5q-91 0 -168 33t-133 90.5t-87.5 136t-31.5 168.5zM455 840q-80 0 -135 -34.5t-90 -91.5t-50.5 -131.5
t-15.5 -155.5q0 -79 16.5 -154t51.5 -133t90.5 -93.5t133.5 -35.5q77 0 132 36t90.5 94.5t52 133t16.5 151.5q0 79 -16 153.5t-51 132.5t-90.5 93t-134.5 35zM529 878h-17l-131 165l29 11z" />
    <glyph glyph-name="Oacute" unicode="&#xd3;" horiz-adv-x="911" 
d="M36 428q0 91 31.5 169t87.5 134t132.5 88t166.5 32q91 0 168.5 -32.5t133.5 -89t87.5 -134t31.5 -167.5q0 -89 -32.5 -167t-89 -136t-133 -91.5t-164.5 -33.5q-91 0 -168 33t-133 90.5t-87.5 136t-31.5 168.5zM455 840q-80 0 -135 -34.5t-90 -91.5t-50.5 -131.5
t-15.5 -155.5q0 -79 16.5 -154t51.5 -133t90.5 -93.5t133.5 -35.5q77 0 132 36t90.5 94.5t52 133t16.5 151.5q0 79 -16 153.5t-51 132.5t-90.5 93t-134.5 35zM536 1068l-145 -191h-17l133 202z" />
    <glyph glyph-name="Ocircumflex" unicode="&#xd4;" horiz-adv-x="911" 
d="M36 428q0 91 31.5 169t87.5 134t132.5 88t166.5 32q91 0 168.5 -32.5t133.5 -89t87.5 -134t31.5 -167.5q0 -89 -32.5 -167t-89 -136t-133 -91.5t-164.5 -33.5q-91 0 -168 33t-133 90.5t-87.5 136t-31.5 168.5zM455 840q-80 0 -135 -34.5t-90 -91.5t-50.5 -131.5
t-15.5 -155.5q0 -79 16.5 -154t51.5 -133t90.5 -93.5t133.5 -35.5q77 0 132 36t90.5 94.5t52 133t16.5 151.5q0 79 -16 153.5t-51 132.5t-90.5 93t-134.5 35zM585 890l-12 -10l-117 134l-118 -134l-12 10l130 165z" />
    <glyph glyph-name="Otilde" unicode="&#xd5;" horiz-adv-x="911" 
d="M36 428q0 91 31.5 169t87.5 134t132.5 88t166.5 32q91 0 168.5 -32.5t133.5 -89t87.5 -134t31.5 -167.5q0 -89 -32.5 -167t-89 -136t-133 -91.5t-164.5 -33.5q-91 0 -168 33t-133 90.5t-87.5 136t-31.5 168.5zM455 840q-80 0 -135 -34.5t-90 -91.5t-50.5 -131.5
t-15.5 -155.5q0 -79 16.5 -154t51.5 -133t90.5 -93.5t133.5 -35.5q77 0 132 36t90.5 94.5t52 133t16.5 151.5q0 79 -16 153.5t-51 132.5t-90.5 93t-134.5 35zM305 864q3 20 9 38.5t16 32t24.5 21.5t34.5 8q18 0 37 -8t37 -17l34 -17t30 -8q15 0 25.5 7t17.5 18t11.5 24
t6.5 24h17q-4 -21 -10 -39t-16 -32t-24.5 -22t-35.5 -8q-16 0 -35 8t-38 18t-36 18t-29 8q-14 0 -23.5 -7.5t-16.5 -18.5t-11.5 -24t-7.5 -24h-17z" />
    <glyph glyph-name="Odieresis" unicode="&#xd6;" horiz-adv-x="911" 
d="M36 428q0 91 31.5 169t87.5 134t132.5 88t166.5 32q91 0 168.5 -32.5t133.5 -89t87.5 -134t31.5 -167.5q0 -89 -32.5 -167t-89 -136t-133 -91.5t-164.5 -33.5q-91 0 -168 33t-133 90.5t-87.5 136t-31.5 168.5zM455 840q-80 0 -135 -34.5t-90 -91.5t-50.5 -131.5
t-15.5 -155.5q0 -79 16.5 -154t51.5 -133t90.5 -93.5t133.5 -35.5q77 0 132 36t90.5 94.5t52 133t16.5 151.5q0 79 -16 153.5t-51 132.5t-90.5 93t-134.5 35zM475 927q0 20 13.5 35.5t33.5 15.5t33 -16t13 -35q0 -20 -12.5 -35.5t-33.5 -15.5q-20 0 -33.5 15.5t-13.5 35.5z
M342 927q0 19 13 35t33 16t33.5 -15.5t13.5 -35.5t-13 -36q-14 -15 -34 -15q-21 0 -33.5 15.5t-12.5 35.5z" />
    <glyph glyph-name="multiply" unicode="&#xd7;" horiz-adv-x="447" 
d="M45 652l181 -181l176 176l9 -8l-176 -177l172 -172l-9 -9l-172 172l-177 -176l-9 9l177 176l-181 181z" />
    <glyph glyph-name="Oslash" unicode="&#xd8;" horiz-adv-x="911" 
d="M36 428q0 91 31.5 169t87.5 134t132.5 88t166.5 32q91 0 168.5 -32.5t133.5 -89t87.5 -134t31.5 -167.5q0 -89 -32.5 -167t-89 -136t-133 -91.5t-164.5 -33.5q-91 0 -168 33t-133 90.5t-87.5 136t-31.5 168.5zM455 840q-80 0 -135 -34.5t-90 -91.5t-50.5 -131.5
t-15.5 -155.5q0 -79 16.5 -154t51.5 -133t90.5 -93.5t133.5 -35.5q77 0 132 36t90.5 94.5t52 133t16.5 151.5q0 79 -16 153.5t-51 132.5t-90.5 93t-134.5 35zM745 872v-10l-566 -892h-13v10l566 892h13z" />
    <glyph glyph-name="Ugrave" unicode="&#xd9;" horiz-adv-x="863" 
d="M36 851q43 -3 71.5 -4.5t54.5 -1.5t52 1.5t62 3.5h8t8 1q56 3 98.5 -5.5t70.5 -36t40 -78t8 -130.5q-3 -70 7 -117.5t28.5 -76.5t43 -41.5t50.5 -12.5q18 0 37 5.5t34.5 17t26.5 29.5t14 44v296q0 22 -2 39.5t-9 30t-20 19.5t-35 7v10q31 -3 77 -3q34 0 66 3v-10
q-22 0 -35 -7t-20 -19.5t-9 -30t-2 -39.5v-468q0 -61 -17 -105t-45 -74.5t-63.5 -49.5t-72 -29.5t-71.5 -14t-61 -4.5q-64 -2 -123.5 13t-105 47t-73 81.5t-27.5 116.5v487q0 22 -2 39.5t-9 30t-20 19.5t-35 7v10zM230 258q0 -53 17.5 -97.5t48.5 -76.5t74.5 -50.5
t95.5 -18.5q11 0 23 1t24 3q107 18 171 78t66 170v143q-15 -33 -45.5 -50t-65.5 -18q-44 0 -72 23.5t-44 60.5t-21 83.5t-3 91.5q4 103 -16 154q-12 30 -31 47.5t-44 26.5t-55 11t-62 1q-40 -2 -50.5 -26.5t-10.5 -66.5v-490zM505 878h-17l-131 165l29 11z" />
    <glyph glyph-name="Uacute" unicode="&#xda;" horiz-adv-x="863" 
d="M36 851q43 -3 71.5 -4.5t54.5 -1.5t52 1.5t62 3.5h8t8 1q56 3 98.5 -5.5t70.5 -36t40 -78t8 -130.5q-3 -70 7 -117.5t28.5 -76.5t43 -41.5t50.5 -12.5q18 0 37 5.5t34.5 17t26.5 29.5t14 44v296q0 22 -2 39.5t-9 30t-20 19.5t-35 7v10q31 -3 77 -3q34 0 66 3v-10
q-22 0 -35 -7t-20 -19.5t-9 -30t-2 -39.5v-468q0 -61 -17 -105t-45 -74.5t-63.5 -49.5t-72 -29.5t-71.5 -14t-61 -4.5q-64 -2 -123.5 13t-105 47t-73 81.5t-27.5 116.5v487q0 22 -2 39.5t-9 30t-20 19.5t-35 7v10zM230 258q0 -53 17.5 -97.5t48.5 -76.5t74.5 -50.5
t95.5 -18.5q11 0 23 1t24 3q107 18 171 78t66 170v143q-15 -33 -45.5 -50t-65.5 -18q-44 0 -72 23.5t-44 60.5t-21 83.5t-3 91.5q4 103 -16 154q-12 30 -31 47.5t-44 26.5t-55 11t-62 1q-40 -2 -50.5 -26.5t-10.5 -66.5v-490zM512 1068l-145 -191h-17l133 202z" />
    <glyph glyph-name="Ucircumflex" unicode="&#xdb;" horiz-adv-x="863" 
d="M36 851q43 -3 71.5 -4.5t54.5 -1.5t52 1.5t62 3.5h8t8 1q56 3 98.5 -5.5t70.5 -36t40 -78t8 -130.5q-3 -70 7 -117.5t28.5 -76.5t43 -41.5t50.5 -12.5q18 0 37 5.5t34.5 17t26.5 29.5t14 44v296q0 22 -2 39.5t-9 30t-20 19.5t-35 7v10q31 -3 77 -3q34 0 66 3v-10
q-22 0 -35 -7t-20 -19.5t-9 -30t-2 -39.5v-468q0 -61 -17 -105t-45 -74.5t-63.5 -49.5t-72 -29.5t-71.5 -14t-61 -4.5q-64 -2 -123.5 13t-105 47t-73 81.5t-27.5 116.5v487q0 22 -2 39.5t-9 30t-20 19.5t-35 7v10zM230 258q0 -53 17.5 -97.5t48.5 -76.5t74.5 -50.5
t95.5 -18.5q11 0 23 1t24 3q107 18 171 78t66 170v143q-15 -33 -45.5 -50t-65.5 -18q-44 0 -72 23.5t-44 60.5t-21 83.5t-3 91.5q4 103 -16 154q-12 30 -31 47.5t-44 26.5t-55 11t-62 1q-40 -2 -50.5 -26.5t-10.5 -66.5v-490zM561 890l-12 -10l-117 134l-118 -134l-12 10
l130 165z" />
    <glyph glyph-name="Udieresis" unicode="&#xdc;" horiz-adv-x="863" 
d="M36 851q43 -3 71.5 -4.5t54.5 -1.5t52 1.5t62 3.5h8t8 1q56 3 98.5 -5.5t70.5 -36t40 -78t8 -130.5q-3 -70 7 -117.5t28.5 -76.5t43 -41.5t50.5 -12.5q18 0 37 5.5t34.5 17t26.5 29.5t14 44v296q0 22 -2 39.5t-9 30t-20 19.5t-35 7v10q31 -3 77 -3q34 0 66 3v-10
q-22 0 -35 -7t-20 -19.5t-9 -30t-2 -39.5v-468q0 -61 -17 -105t-45 -74.5t-63.5 -49.5t-72 -29.5t-71.5 -14t-61 -4.5q-64 -2 -123.5 13t-105 47t-73 81.5t-27.5 116.5v487q0 22 -2 39.5t-9 30t-20 19.5t-35 7v10zM230 258q0 -53 17.5 -97.5t48.5 -76.5t74.5 -50.5
t95.5 -18.5q11 0 23 1t24 3q107 18 171 78t66 170v143q-15 -33 -45.5 -50t-65.5 -18q-44 0 -72 23.5t-44 60.5t-21 83.5t-3 91.5q4 103 -16 154q-12 30 -31 47.5t-44 26.5t-55 11t-62 1q-40 -2 -50.5 -26.5t-10.5 -66.5v-490zM451 927q0 20 13.5 35.5t33.5 15.5t33 -16
t13 -35q0 -20 -12.5 -35.5t-33.5 -15.5q-20 0 -33.5 15.5t-13.5 35.5zM318 927q0 19 13 35t33 16t33.5 -15.5t13.5 -35.5t-13 -36q-14 -15 -34 -15q-21 0 -33.5 15.5t-12.5 35.5z" />
    <glyph glyph-name="agrave" unicode="&#xe0;" horiz-adv-x="751" 
d="M36 197q0 47 20 81.5t54 58.5t79 38.5t95 23.5q-46 9 -75.5 33t-41.5 55.5t-7.5 65t25.5 62t57.5 46.5t88.5 18q62 0 116.5 -11.5t96.5 -37.5t68.5 -68.5t31.5 -104.5q2 -17 2 -34.5v-35.5v-189q0 -36 0.5 -69.5t6.5 -59.5t20 -42t42 -16v-11q-52 0 -89 8t-61 26.5
t-35.5 50.5t-11.5 80q-28 -79 -88 -122t-152 -44q-119 -2 -180.5 52t-61.5 146zM165 188q0 -76 34 -119.5t110 -43.5q43 0 81.5 13.5t66.5 43.5t44.5 78t16.5 118v124q-31 0 -69 -0.5t-77.5 -6.5t-76.5 -19t-66 -37t-46.5 -61t-17.5 -90zM169 530q1 -22 11 -46
q21 -43 61.5 -61t86.5 -18q42 5 82 6.5t78 1.5h30q-1 55 -10.5 101.5t-31.5 80t-57.5 53t-89.5 20.5q-31 0 -60 -8.5t-51 -26t-35.5 -43.5t-13.5 -60zM449 706h-17l-131 165l29 11z" />
    <glyph glyph-name="aacute" unicode="&#xe1;" horiz-adv-x="751" 
d="M36 197q0 47 20 81.5t54 58.5t79 38.5t95 23.5q-46 9 -75.5 33t-41.5 55.5t-7.5 65t25.5 62t57.5 46.5t88.5 18q62 0 116.5 -11.5t96.5 -37.5t68.5 -68.5t31.5 -104.5q2 -17 2 -34.5v-35.5v-189q0 -36 0.5 -69.5t6.5 -59.5t20 -42t42 -16v-11q-52 0 -89 8t-61 26.5
t-35.5 50.5t-11.5 80q-28 -79 -88 -122t-152 -44q-119 -2 -180.5 52t-61.5 146zM165 188q0 -76 34 -119.5t110 -43.5q43 0 81.5 13.5t66.5 43.5t44.5 78t16.5 118v124q-31 0 -69 -0.5t-77.5 -6.5t-76.5 -19t-66 -37t-46.5 -61t-17.5 -90zM169 530q1 -22 11 -46
q21 -43 61.5 -61t86.5 -18q42 5 82 6.5t78 1.5h30q-1 55 -10.5 101.5t-31.5 80t-57.5 53t-89.5 20.5q-31 0 -60 -8.5t-51 -26t-35.5 -43.5t-13.5 -60zM456 896l-145 -191h-17l133 202z" />
    <glyph glyph-name="acircumflex" unicode="&#xe2;" horiz-adv-x="751" 
d="M36 197q0 47 20 81.5t54 58.5t79 38.5t95 23.5q-46 9 -75.5 33t-41.5 55.5t-7.5 65t25.5 62t57.5 46.5t88.5 18q62 0 116.5 -11.5t96.5 -37.5t68.5 -68.5t31.5 -104.5q2 -17 2 -34.5v-35.5v-189q0 -36 0.5 -69.5t6.5 -59.5t20 -42t42 -16v-11q-52 0 -89 8t-61 26.5
t-35.5 50.5t-11.5 80q-28 -79 -88 -122t-152 -44q-119 -2 -180.5 52t-61.5 146zM165 188q0 -76 34 -119.5t110 -43.5q43 0 81.5 13.5t66.5 43.5t44.5 78t16.5 118v124q-31 0 -69 -0.5t-77.5 -6.5t-76.5 -19t-66 -37t-46.5 -61t-17.5 -90zM169 530q1 -22 11 -46
q21 -43 61.5 -61t86.5 -18q42 5 82 6.5t78 1.5h30q-1 55 -10.5 101.5t-31.5 80t-57.5 53t-89.5 20.5q-31 0 -60 -8.5t-51 -26t-35.5 -43.5t-13.5 -60zM505 718l-12 -10l-117 134l-118 -134l-12 10l130 165z" />
    <glyph glyph-name="atilde" unicode="&#xe3;" horiz-adv-x="751" 
d="M36 197q0 47 20 81.5t54 58.5t79 38.5t95 23.5q-46 9 -75.5 33t-41.5 55.5t-7.5 65t25.5 62t57.5 46.5t88.5 18q62 0 116.5 -11.5t96.5 -37.5t68.5 -68.5t31.5 -104.5q2 -17 2 -34.5v-35.5v-189q0 -36 0.5 -69.5t6.5 -59.5t20 -42t42 -16v-11q-52 0 -89 8t-61 26.5
t-35.5 50.5t-11.5 80q-28 -79 -88 -122t-152 -44q-119 -2 -180.5 52t-61.5 146zM165 188q0 -76 34 -119.5t110 -43.5q43 0 81.5 13.5t66.5 43.5t44.5 78t16.5 118v124q-31 0 -69 -0.5t-77.5 -6.5t-76.5 -19t-66 -37t-46.5 -61t-17.5 -90zM169 530q1 -22 11 -46
q21 -43 61.5 -61t86.5 -18q42 5 82 6.5t78 1.5h30q-1 55 -10.5 101.5t-31.5 80t-57.5 53t-89.5 20.5q-31 0 -60 -8.5t-51 -26t-35.5 -43.5t-13.5 -60zM225 692q3 20 9 38.5t16 32t24.5 21.5t34.5 8q18 0 37 -8t37 -17l34 -17t30 -8q15 0 25.5 7t17.5 18t11.5 24t6.5 24h17
q-4 -21 -10 -39t-16 -32t-24.5 -22t-35.5 -8q-16 0 -35 8t-38 18t-36 18t-29 8q-14 0 -23.5 -7.5t-16.5 -18.5t-11.5 -24t-7.5 -24h-17z" />
    <glyph glyph-name="adieresis" unicode="&#xe4;" horiz-adv-x="751" 
d="M36 197q0 47 20 81.5t54 58.5t79 38.5t95 23.5q-46 9 -75.5 33t-41.5 55.5t-7.5 65t25.5 62t57.5 46.5t88.5 18q62 0 116.5 -11.5t96.5 -37.5t68.5 -68.5t31.5 -104.5q2 -17 2 -34.5v-35.5v-189q0 -36 0.5 -69.5t6.5 -59.5t20 -42t42 -16v-11q-52 0 -89 8t-61 26.5
t-35.5 50.5t-11.5 80q-28 -79 -88 -122t-152 -44q-119 -2 -180.5 52t-61.5 146zM165 188q0 -76 34 -119.5t110 -43.5q43 0 81.5 13.5t66.5 43.5t44.5 78t16.5 118v124q-31 0 -69 -0.5t-77.5 -6.5t-76.5 -19t-66 -37t-46.5 -61t-17.5 -90zM169 530q1 -22 11 -46
q21 -43 61.5 -61t86.5 -18q42 5 82 6.5t78 1.5h30q-1 55 -10.5 101.5t-31.5 80t-57.5 53t-89.5 20.5q-31 0 -60 -8.5t-51 -26t-35.5 -43.5t-13.5 -60zM395 755q0 20 13.5 35.5t33.5 15.5t33 -16t13 -35q0 -20 -12.5 -35.5t-33.5 -15.5q-20 0 -33.5 15.5t-13.5 35.5zM262 755
q0 19 13 35t33 16t33.5 -15.5t13.5 -35.5t-13 -36q-14 -15 -34 -15q-21 0 -33.5 15.5t-12.5 35.5z" />
    <glyph glyph-name="aring" unicode="&#xe5;" horiz-adv-x="751" 
d="M36 197q0 47 20 81.5t54 58.5t79 38.5t95 23.5q-46 9 -75.5 33t-41.5 55.5t-7.5 65t25.5 62t57.5 46.5t88.5 18q62 0 116.5 -11.5t96.5 -37.5t68.5 -68.5t31.5 -104.5q2 -17 2 -34.5v-35.5v-189q0 -36 0.5 -69.5t6.5 -59.5t20 -42t42 -16v-11q-52 0 -89 8t-61 26.5
t-35.5 50.5t-11.5 80q-28 -79 -88 -122t-152 -44q-119 -2 -180.5 52t-61.5 146zM165 188q0 -76 34 -119.5t110 -43.5q43 0 81.5 13.5t66.5 43.5t44.5 78t16.5 118v124q-31 0 -69 -0.5t-77.5 -6.5t-76.5 -19t-66 -37t-46.5 -61t-17.5 -90zM169 530q1 -22 11 -46
q21 -43 61.5 -61t86.5 -18q42 5 82 6.5t78 1.5h30q-1 55 -10.5 101.5t-31.5 80t-57.5 53t-89.5 20.5q-31 0 -60 -8.5t-51 -26t-35.5 -43.5t-13.5 -60zM376 677q-27 0 -49.5 11t-39 29t-25.5 42t-9 51q0 26 9 50t25 42t39 29t50 11q26 0 48.5 -10.5t39 -28.5t25.5 -42t9 -51
q0 -28 -9 -52t-25.5 -42t-39 -28.5t-48.5 -10.5zM269 810q0 -24 8 -45t22.5 -37t34 -25.5t42.5 -9.5q21 0 40.5 8.5t34 24t23 37t8.5 47.5q0 23 -8 44t-22 37t-33.5 25.5t-42.5 9.5t-43 -9.5t-34 -25.5t-22 -37t-8 -44z" />
    <glyph glyph-name="ae" unicode="&#xe6;" horiz-adv-x="1475" 
d="M36 197q0 47 20 81.5t54 58.5t79 38.5t95 23.5q-46 9 -75.5 33t-41.5 55.5t-7.5 65t25.5 62t57.5 46.5t88.5 18q62 0 116.5 -11.5t96.5 -37.5t68.5 -68.5t31.5 -104.5q2 -17 2 -34.5v-35.5v-189q0 -36 0.5 -69.5t6.5 -59.5t20 -42t42 -16v-11q-52 0 -89 8t-61 26.5
t-35.5 50.5t-11.5 80q-28 -79 -88 -122t-152 -44q-119 -2 -180.5 52t-61.5 146zM165 188q0 -76 34 -119.5t110 -43.5q43 0 81.5 13.5t66.5 43.5t44.5 78t16.5 118v124q-31 0 -69 -0.5t-77.5 -6.5t-76.5 -19t-66 -37t-46.5 -61t-17.5 -90zM169 530q1 -22 11 -46
q21 -43 61.5 -61t86.5 -18q42 5 82 6.5t78 1.5h30q-1 55 -10.5 101.5t-31.5 80t-57.5 53t-89.5 20.5q-31 0 -60 -8.5t-51 -26t-35.5 -43.5t-13.5 -60zM1123 -1q-83 0 -145 29t-104.5 77t-64 109t-22 125t20 125t63 109t106 77t149.5 29q58 0 107.5 -15t89.5 -42t69 -64.5
t47 -82.5q-12 -2 -37 -6.5t-58.5 -10.5t-74.5 -13t-85 -15q66 -1 113.5 -19.5t78 -47t44 -65t11 -74t-20 -74t-49.5 -64.5q-45 -40 -104 -63.5t-134 -23.5zM921 383q-4 -61 4 -126.5t32 -120t65 -90t104 -36.5q72 1 128.5 23.5t99.5 60.5q49 44 62 103t-13 112
q-16 32 -40 53t-53.5 33.5t-63.5 17.5t-69 5q-36 0 -71.5 -4t-69 -9.5t-63 -11.5t-52.5 -10zM921 394q35 6 74.5 13t81.5 15q65 11 128.5 22.5t115.5 20.5q-8 39 -22.5 75.5t-38 65t-57 45.5t-78.5 17q-56 0 -93.5 -25.5t-61 -65.5t-35 -88.5t-14.5 -94.5z" />
    <glyph glyph-name="ccedilla" unicode="&#xe7;" horiz-adv-x="649" 
d="M36 338q0 74 23.5 136.5t67 108t105 71t136.5 25.5q132 0 241 -74l-38 -133h-5q-8 40 -24.5 75.5t-41.5 62.5t-57.5 43t-72.5 16q-59 0 -98.5 -27t-64 -71t-35 -100.5t-10.5 -114.5q0 -62 11 -123.5t37 -110.5t68.5 -79.5t104.5 -30.5q81 6 135 53t85 121l10 -4
q-35 -85 -98 -133.5t-154 -48.5q-71 0 -131 26t-103 71.5t-67 107t-24 133.5zM332 -224q-29 0 -58 10t-46 19l5 13q12 -6 33.5 -14.5t42.5 -8.5t36.5 14t15.5 53q0 26 -13.5 37t-30.5 14t-32 1t-17 -2l32 109h19l-28 -92q19 3 36 3q47 0 70 -21t21 -52q-3 -48 -28.5 -65.5
t-57.5 -17.5z" />
    <glyph glyph-name="egrave" unicode="&#xe8;" horiz-adv-x="724" 
d="M372 -1q-83 0 -145 29t-104.5 77t-64 109t-22 125t20 125t63 109t106 77t149.5 29q58 0 107.5 -15t89.5 -42t69 -64.5t47 -82.5q-12 -2 -37 -6.5t-58.5 -10.5t-74.5 -13t-85 -15q66 -1 113.5 -19.5t78 -47t44 -65t11 -74t-20 -74t-49.5 -64.5q-45 -40 -104 -63.5
t-134 -23.5zM170 383q-4 -61 4 -126.5t32 -120t65 -90t104 -36.5q72 1 128.5 23.5t99.5 60.5q49 44 62 103t-13 112q-16 32 -40 53t-53.5 33.5t-63.5 17.5t-69 5q-36 0 -71.5 -4t-69 -9.5t-63 -11.5t-52.5 -10zM170 394q35 6 74.5 13t81.5 15q65 11 128.5 22.5t115.5 20.5
q-8 39 -22.5 75.5t-38 65t-57 45.5t-78.5 17q-56 0 -93.5 -25.5t-61 -65.5t-35 -88.5t-14.5 -94.5zM436 706h-17l-131 165l29 11z" />
    <glyph glyph-name="eacute" unicode="&#xe9;" horiz-adv-x="724" 
d="M372 -1q-83 0 -145 29t-104.5 77t-64 109t-22 125t20 125t63 109t106 77t149.5 29q58 0 107.5 -15t89.5 -42t69 -64.5t47 -82.5q-12 -2 -37 -6.5t-58.5 -10.5t-74.5 -13t-85 -15q66 -1 113.5 -19.5t78 -47t44 -65t11 -74t-20 -74t-49.5 -64.5q-45 -40 -104 -63.5
t-134 -23.5zM170 383q-4 -61 4 -126.5t32 -120t65 -90t104 -36.5q72 1 128.5 23.5t99.5 60.5q49 44 62 103t-13 112q-16 32 -40 53t-53.5 33.5t-63.5 17.5t-69 5q-36 0 -71.5 -4t-69 -9.5t-63 -11.5t-52.5 -10zM170 394q35 6 74.5 13t81.5 15q65 11 128.5 22.5t115.5 20.5
q-8 39 -22.5 75.5t-38 65t-57 45.5t-78.5 17q-56 0 -93.5 -25.5t-61 -65.5t-35 -88.5t-14.5 -94.5zM443 896l-145 -191h-17l133 202z" />
    <glyph glyph-name="ecircumflex" unicode="&#xea;" horiz-adv-x="724" 
d="M372 -1q-83 0 -145 29t-104.5 77t-64 109t-22 125t20 125t63 109t106 77t149.5 29q58 0 107.5 -15t89.5 -42t69 -64.5t47 -82.5q-12 -2 -37 -6.5t-58.5 -10.5t-74.5 -13t-85 -15q66 -1 113.5 -19.5t78 -47t44 -65t11 -74t-20 -74t-49.5 -64.5q-45 -40 -104 -63.5
t-134 -23.5zM170 383q-4 -61 4 -126.5t32 -120t65 -90t104 -36.5q72 1 128.5 23.5t99.5 60.5q49 44 62 103t-13 112q-16 32 -40 53t-53.5 33.5t-63.5 17.5t-69 5q-36 0 -71.5 -4t-69 -9.5t-63 -11.5t-52.5 -10zM170 394q35 6 74.5 13t81.5 15q65 11 128.5 22.5t115.5 20.5
q-8 39 -22.5 75.5t-38 65t-57 45.5t-78.5 17q-56 0 -93.5 -25.5t-61 -65.5t-35 -88.5t-14.5 -94.5zM491 718l-12 -10l-117 134l-118 -134l-12 10l130 165z" />
    <glyph glyph-name="edieresis" unicode="&#xeb;" horiz-adv-x="724" 
d="M372 -1q-83 0 -145 29t-104.5 77t-64 109t-22 125t20 125t63 109t106 77t149.5 29q58 0 107.5 -15t89.5 -42t69 -64.5t47 -82.5q-12 -2 -37 -6.5t-58.5 -10.5t-74.5 -13t-85 -15q66 -1 113.5 -19.5t78 -47t44 -65t11 -74t-20 -74t-49.5 -64.5q-45 -40 -104 -63.5
t-134 -23.5zM170 383q-4 -61 4 -126.5t32 -120t65 -90t104 -36.5q72 1 128.5 23.5t99.5 60.5q49 44 62 103t-13 112q-16 32 -40 53t-53.5 33.5t-63.5 17.5t-69 5q-36 0 -71.5 -4t-69 -9.5t-63 -11.5t-52.5 -10zM170 394q35 6 74.5 13t81.5 15q65 11 128.5 22.5t115.5 20.5
q-8 39 -22.5 75.5t-38 65t-57 45.5t-78.5 17q-56 0 -93.5 -25.5t-61 -65.5t-35 -88.5t-14.5 -94.5zM382 755q0 20 13.5 35.5t33.5 15.5t33 -16t13 -35q0 -20 -12.5 -35.5t-33.5 -15.5q-20 0 -33.5 15.5t-13.5 35.5zM249 755q0 19 13 35t33 16t33.5 -15.5t13.5 -35.5t-13 -36
q-14 -15 -34 -15q-21 0 -33.5 15.5t-12.5 35.5z" />
    <glyph glyph-name="igrave" unicode="&#xec;" horiz-adv-x="360" 
d="M36 10q49 0 63.5 25.5t15.5 79.5v376q0 31 -0.5 55t-6 40.5t-18.5 25.5t-38 11v10q21 2 46.5 6t51 10t50.5 13.5t45 16.5v-570q1 -51 16.5 -75t62.5 -24v-10q-30 2 -71 3t-87 1q-32 0 -65 -1t-65 -3v10zM254 706h-17l-131 165l29 11z" />
    <glyph glyph-name="iacute" unicode="&#xed;" horiz-adv-x="360" 
d="M36 10q49 0 63.5 25.5t15.5 79.5v376q0 31 -0.5 55t-6 40.5t-18.5 25.5t-38 11v10q21 2 46.5 6t51 10t50.5 13.5t45 16.5v-570q1 -51 16.5 -75t62.5 -24v-10q-30 2 -71 3t-87 1q-32 0 -65 -1t-65 -3v10zM261 896l-145 -191h-17l133 202z" />
    <glyph glyph-name="icircumflex" unicode="&#xee;" horiz-adv-x="360" 
d="M36 10q49 0 63.5 25.5t15.5 79.5v376q0 31 -0.5 55t-6 40.5t-18.5 25.5t-38 11v10q21 2 46.5 6t51 10t50.5 13.5t45 16.5v-570q1 -51 16.5 -75t62.5 -24v-10q-30 2 -71 3t-87 1q-32 0 -65 -1t-65 -3v10zM309 718l-12 -10l-117 134l-118 -134l-12 10l130 165z" />
    <glyph glyph-name="idieresis" unicode="&#xef;" horiz-adv-x="360" 
d="M36 10q49 0 63.5 25.5t15.5 79.5v376q0 31 -0.5 55t-6 40.5t-18.5 25.5t-38 11v10q21 2 46.5 6t51 10t50.5 13.5t45 16.5v-570q1 -51 16.5 -75t62.5 -24v-10q-30 2 -71 3t-87 1q-32 0 -65 -1t-65 -3v10zM200 755q0 20 13.5 35.5t33.5 15.5t33 -16t13 -35
q0 -20 -12.5 -35.5t-33.5 -15.5q-20 0 -33.5 15.5t-13.5 35.5zM67 755q0 19 13 35t33 16t33.5 -15.5t13.5 -35.5t-13 -36q-14 -15 -34 -15q-21 0 -33.5 15.5t-12.5 35.5z" />
    <glyph glyph-name="ntilde" unicode="&#xf1;" horiz-adv-x="908" 
d="M36 10q49 0 63.5 25.5t15.5 79.5v422q0 31 -0.5 55t-6 40.5t-18.5 25.5t-38 11v10q21 2 46.5 6t51 10t50.5 13.5t45 16.5v-289q9 48 26 91.5t43 76.5t62.5 53.5t84.5 21.5q77 3 138 -20t103.5 -67.5t65.5 -108t25 -142.5v-227q1 -53 15.5 -78.5t63.5 -25.5v-10
q-35 2 -69.5 3t-66.5 1t-59.5 -0.5t-47.5 -1.5q-24 -1 -43 -2v10q27 0 42.5 6t23.5 18.5t10.5 32.5t2.5 47v216q0 67 -9 129t-32 109.5t-62.5 74.5t-101.5 26q-55 -2 -95 -32.5t-66 -78.5t-39.5 -107t-14.5 -117v-225q1 -51 16.5 -75t62.5 -24v-10q-50 2 -81 3.5t-58 1.5
q-29 0 -60 -1.5t-83 -3.5h-6v10zM304 692q3 20 9 38.5t16 32t24.5 21.5t34.5 8q18 0 37 -8t37 -17l34 -17t30 -8q15 0 25.5 7t17.5 18t11.5 24t6.5 24h17q-4 -21 -10 -39t-16 -32t-24.5 -22t-35.5 -8q-16 0 -35 8t-38 18t-36 18t-29 8q-14 0 -23.5 -7.5t-16.5 -18.5
t-11.5 -24t-7.5 -24h-17z" />
    <glyph glyph-name="ograve" unicode="&#xf2;" horiz-adv-x="747" 
d="M371 0q-77 0 -139 27t-105.5 74t-67 110t-23.5 136q0 70 24 130.5t68 105.5t106.5 70.5t139.5 25.5q78 0 140 -26t106 -71.5t67.5 -107t23.5 -133.5q0 -73 -23.5 -135.5t-68 -108t-107.5 -71.5t-141 -26zM167 346q0 -32 3.5 -69.5t12.5 -74.5t24 -71.5t38.5 -61t55 -42.5
t74.5 -16q64 0 104 34t62.5 84t30.5 108.5t8 106.5q0 32 -3.5 68.5t-12.5 72.5t-24 69.5t-38 59t-55 40.5t-74 15t-74 -15t-54.5 -40.5t-37.5 -58.5t-24 -69t-12.5 -72.5t-3.5 -67.5zM447 706h-17l-131 165l29 11z" />
    <glyph glyph-name="oacute" unicode="&#xf3;" horiz-adv-x="747" 
d="M371 0q-77 0 -139 27t-105.5 74t-67 110t-23.5 136q0 70 24 130.5t68 105.5t106.5 70.5t139.5 25.5q78 0 140 -26t106 -71.5t67.5 -107t23.5 -133.5q0 -73 -23.5 -135.5t-68 -108t-107.5 -71.5t-141 -26zM167 346q0 -32 3.5 -69.5t12.5 -74.5t24 -71.5t38.5 -61t55 -42.5
t74.5 -16q64 0 104 34t62.5 84t30.5 108.5t8 106.5q0 32 -3.5 68.5t-12.5 72.5t-24 69.5t-38 59t-55 40.5t-74 15t-74 -15t-54.5 -40.5t-37.5 -58.5t-24 -69t-12.5 -72.5t-3.5 -67.5zM454 896l-145 -191h-17l133 202z" />
    <glyph glyph-name="ocircumflex" unicode="&#xf4;" horiz-adv-x="747" 
d="M371 0q-77 0 -139 27t-105.5 74t-67 110t-23.5 136q0 70 24 130.5t68 105.5t106.5 70.5t139.5 25.5q78 0 140 -26t106 -71.5t67.5 -107t23.5 -133.5q0 -73 -23.5 -135.5t-68 -108t-107.5 -71.5t-141 -26zM167 346q0 -32 3.5 -69.5t12.5 -74.5t24 -71.5t38.5 -61t55 -42.5
t74.5 -16q64 0 104 34t62.5 84t30.5 108.5t8 106.5q0 32 -3.5 68.5t-12.5 72.5t-24 69.5t-38 59t-55 40.5t-74 15t-74 -15t-54.5 -40.5t-37.5 -58.5t-24 -69t-12.5 -72.5t-3.5 -67.5zM503 718l-12 -10l-117 134l-118 -134l-12 10l130 165z" />
    <glyph glyph-name="otilde" unicode="&#xf5;" horiz-adv-x="747" 
d="M371 0q-77 0 -139 27t-105.5 74t-67 110t-23.5 136q0 70 24 130.5t68 105.5t106.5 70.5t139.5 25.5q78 0 140 -26t106 -71.5t67.5 -107t23.5 -133.5q0 -73 -23.5 -135.5t-68 -108t-107.5 -71.5t-141 -26zM167 346q0 -32 3.5 -69.5t12.5 -74.5t24 -71.5t38.5 -61t55 -42.5
t74.5 -16q64 0 104 34t62.5 84t30.5 108.5t8 106.5q0 32 -3.5 68.5t-12.5 72.5t-24 69.5t-38 59t-55 40.5t-74 15t-74 -15t-54.5 -40.5t-37.5 -58.5t-24 -69t-12.5 -72.5t-3.5 -67.5zM223 692q3 20 9 38.5t16 32t24.5 21.5t34.5 8q18 0 37 -8t37 -17l34 -17t30 -8
q15 0 25.5 7t17.5 18t11.5 24t6.5 24h17q-4 -21 -10 -39t-16 -32t-24.5 -22t-35.5 -8q-16 0 -35 8t-38 18t-36 18t-29 8q-14 0 -23.5 -7.5t-16.5 -18.5t-11.5 -24t-7.5 -24h-17z" />
    <glyph glyph-name="odieresis" unicode="&#xf6;" horiz-adv-x="747" 
d="M371 0q-77 0 -139 27t-105.5 74t-67 110t-23.5 136q0 70 24 130.5t68 105.5t106.5 70.5t139.5 25.5q78 0 140 -26t106 -71.5t67.5 -107t23.5 -133.5q0 -73 -23.5 -135.5t-68 -108t-107.5 -71.5t-141 -26zM167 346q0 -32 3.5 -69.5t12.5 -74.5t24 -71.5t38.5 -61t55 -42.5
t74.5 -16q64 0 104 34t62.5 84t30.5 108.5t8 106.5q0 32 -3.5 68.5t-12.5 72.5t-24 69.5t-38 59t-55 40.5t-74 15t-74 -15t-54.5 -40.5t-37.5 -58.5t-24 -69t-12.5 -72.5t-3.5 -67.5zM393 755q0 20 13.5 35.5t33.5 15.5t33 -16t13 -35q0 -20 -12.5 -35.5t-33.5 -15.5
q-20 0 -33.5 15.5t-13.5 35.5zM260 755q0 19 13 35t33 16t33.5 -15.5t13.5 -35.5t-13 -36q-14 -15 -34 -15q-21 0 -33.5 15.5t-12.5 35.5z" />
    <glyph glyph-name="divide" unicode="&#xf7;" horiz-adv-x="702" 
d="M291 269q0 27 18 48q19 19 43 19q26 0 43 -21t17 -46t-17 -47q-18 -19 -43 -19q-27 0 -44 20t-17 46zM291 687q0 26 18 47q19 19 43 19t43 -19q17 -22 17 -47q0 -26 -16.5 -46.5t-43.5 -20.5t-44 20.5t-17 46.5zM36 480v16h630v-16h-630z" />
    <glyph glyph-name="oslash" unicode="&#xf8;" horiz-adv-x="747" 
d="M371 0q-77 0 -139 27t-105.5 74t-67 110t-23.5 136q0 70 24 130.5t68 105.5t106.5 70.5t139.5 25.5q78 0 140 -26t106 -71.5t67.5 -107t23.5 -133.5q0 -73 -23.5 -135.5t-68 -108t-107.5 -71.5t-141 -26zM167 346q0 -32 3.5 -69.5t12.5 -74.5t24 -71.5t38.5 -61t55 -42.5
t74.5 -16q64 0 104 34t62.5 84t30.5 108.5t8 106.5q0 32 -3.5 68.5t-12.5 72.5t-24 69.5t-38 59t-55 40.5t-74 15t-74 -15t-54.5 -40.5t-37.5 -58.5t-24 -69t-12.5 -72.5t-3.5 -67.5zM640 795v-10l-566 -892h-13v10l566 892h13z" />
    <glyph glyph-name="ugrave" unicode="&#xf9;" horiz-adv-x="897" 
d="M36 679q57 -3 111 -2t96 3v-331q0 -63 7.5 -124.5t29 -109.5t60.5 -77.5t103 -27.5q55 1 96 32t68 79t41 107t15 117v225q-1 51 -16 75t-63 24v10q34 -2 59 -2.5t45 -0.5q27 0 50.5 0.5t54.5 2.5v-537q0 -19 0.5 -42t6.5 -42.5t20 -33t41 -13.5v-11q-52 0 -89.5 8
t-61.5 26.5t-35.5 50.5t-11.5 80v78q-9 -45 -26.5 -88t-45 -77t-65 -55.5t-84.5 -22.5q-77 -3 -137.5 20t-102 67.5t-64 108.5t-23.5 143v226q-1 53 -15.5 78.5t-63.5 25.5v10zM522 706h-17l-131 165l29 11z" />
    <glyph glyph-name="uacute" unicode="&#xfa;" horiz-adv-x="897" 
d="M36 679q57 -3 111 -2t96 3v-331q0 -63 7.5 -124.5t29 -109.5t60.5 -77.5t103 -27.5q55 1 96 32t68 79t41 107t15 117v225q-1 51 -16 75t-63 24v10q34 -2 59 -2.5t45 -0.5q27 0 50.5 0.5t54.5 2.5v-537q0 -19 0.5 -42t6.5 -42.5t20 -33t41 -13.5v-11q-52 0 -89.5 8
t-61.5 26.5t-35.5 50.5t-11.5 80v78q-9 -45 -26.5 -88t-45 -77t-65 -55.5t-84.5 -22.5q-77 -3 -137.5 20t-102 67.5t-64 108.5t-23.5 143v226q-1 53 -15.5 78.5t-63.5 25.5v10zM529 896l-145 -191h-17l133 202z" />
    <glyph glyph-name="ucircumflex" unicode="&#xfb;" horiz-adv-x="897" 
d="M36 679q57 -3 111 -2t96 3v-331q0 -63 7.5 -124.5t29 -109.5t60.5 -77.5t103 -27.5q55 1 96 32t68 79t41 107t15 117v225q-1 51 -16 75t-63 24v10q34 -2 59 -2.5t45 -0.5q27 0 50.5 0.5t54.5 2.5v-537q0 -19 0.5 -42t6.5 -42.5t20 -33t41 -13.5v-11q-52 0 -89.5 8
t-61.5 26.5t-35.5 50.5t-11.5 80v78q-9 -45 -26.5 -88t-45 -77t-65 -55.5t-84.5 -22.5q-77 -3 -137.5 20t-102 67.5t-64 108.5t-23.5 143v226q-1 53 -15.5 78.5t-63.5 25.5v10zM578 718l-12 -10l-117 134l-118 -134l-12 10l130 165z" />
    <glyph glyph-name="udieresis" unicode="&#xfc;" horiz-adv-x="897" 
d="M36 679q57 -3 111 -2t96 3v-331q0 -63 7.5 -124.5t29 -109.5t60.5 -77.5t103 -27.5q55 1 96 32t68 79t41 107t15 117v225q-1 51 -16 75t-63 24v10q34 -2 59 -2.5t45 -0.5q27 0 50.5 0.5t54.5 2.5v-537q0 -19 0.5 -42t6.5 -42.5t20 -33t41 -13.5v-11q-52 0 -89.5 8
t-61.5 26.5t-35.5 50.5t-11.5 80v78q-9 -45 -26.5 -88t-45 -77t-65 -55.5t-84.5 -22.5q-77 -3 -137.5 20t-102 67.5t-64 108.5t-23.5 143v226q-1 53 -15.5 78.5t-63.5 25.5v10zM468 755q0 20 13.5 35.5t33.5 15.5t33 -16t13 -35q0 -20 -12.5 -35.5t-33.5 -15.5
q-20 0 -33.5 15.5t-13.5 35.5zM335 755q0 19 13 35t33 16t33.5 -15.5t13.5 -35.5t-13 -36q-14 -15 -34 -15q-21 0 -33.5 15.5t-12.5 35.5z" />
    <glyph glyph-name="ydieresis" unicode="&#xff;" horiz-adv-x="664" 
d="M88 580q-22 47 -40 66t-38 25l1 8q39 -2 70 -3.5t61 -1.5q28 0 58 1.5t68 3.5q35 3 57.5 -17t37.5 -51t24.5 -68t18.5 -69t20.5 -53.5t29.5 -21.5q19 0 46 27q14 34 27.5 67.5t25.5 65.5q20 51 -4 78.5t-90 34.5v7q24 -2 46.5 -3t44.5 -1q27 0 52.5 1t49.5 3v-7
q-29 -17 -48.5 -42t-35.5 -62q-21 -54 -46 -117l-50 -126t-48 -121.5t-41 -103.5q-23 -57 -40.5 -101.5t-35 -80.5t-37 -64.5t-46.5 -53.5q-38 -35 -83 -45t-83 -6l47 142h7q9 -26 30 -39t45 -13q23 0 45 10.5t38 30.5q13 17 24.5 40t16 51.5t0 63t-22.5 76.5
q-20 44 -44 100.5t-51 118.5t-54.5 126t-52.5 124zM275 668q-20 -2 -31.5 -11.5t-16 -23.5t-2.5 -32t9 -37q26 -62 56 -130.5t55 -126.5q29 -68 57 -134q13 32 28 70q13 32 29 73.5t35 87.5q-19 -16 -38 -16q-16 0 -28 13q-15 14 -24 43t-17 61q-7 26 -15.5 55t-21 53
t-30.5 39.5t-45 15.5zM352 755q0 20 13.5 35.5t33.5 15.5t33 -16t13 -35q0 -20 -12.5 -35.5t-33.5 -15.5q-20 0 -33.5 15.5t-13.5 35.5zM219 755q0 19 13 35t33 16t33.5 -15.5t13.5 -35.5t-13 -36q-14 -15 -34 -15q-21 0 -33.5 15.5t-12.5 35.5z" />
    <glyph glyph-name="OE" unicode="&#x152;" horiz-adv-x="1669" 
d="M36 428q0 91 31.5 169t87.5 134t132.5 88t166.5 32q91 0 168.5 -32.5t133.5 -89t87.5 -134t31.5 -167.5q0 -89 -32.5 -167t-89 -136t-133 -91.5t-164.5 -33.5q-91 0 -168 33t-133 90.5t-87.5 136t-31.5 168.5zM455 840q-80 0 -135 -34.5t-90 -91.5t-50.5 -131.5
t-15.5 -155.5q0 -79 16.5 -154t51.5 -133t90.5 -93.5t133.5 -35.5q77 0 132 36t90.5 94.5t52 133t16.5 151.5q0 79 -16 153.5t-51 132.5t-90.5 93t-134.5 35zM947 10q25 0 41 7t24 21t11 35.5t3 50.5v621q0 22 -2 39.5t-9 30t-20 19.5t-35 7v10h665v-3l34 -184l-8 -3
q-37 51 -72 85.5t-76.5 55.5t-94 29.5t-122.5 8.5h-132v-351h41q68 0 113 7t74.5 22.5t46.5 42t29 65.5h6v-284h-6q-18 37 -36 63t-45.5 42.5t-70.5 24t-111 7.5h-41v-468h108q68 0 123.5 8.5t102 30t86.5 58.5t78 93l7 -2l-34 -199h-678v10z" />
    <glyph glyph-name="oe" unicode="&#x153;" horiz-adv-x="1471" 
d="M371 0q-77 0 -139 27t-105.5 74t-67 110t-23.5 136q0 70 24 130.5t68 105.5t106.5 70.5t139.5 25.5q78 0 140 -26t106 -71.5t67.5 -107t23.5 -133.5q0 -73 -23.5 -135.5t-68 -108t-107.5 -71.5t-141 -26zM167 346q0 -32 3.5 -69.5t12.5 -74.5t24 -71.5t38.5 -61t55 -42.5
t74.5 -16q64 0 104 34t62.5 84t30.5 108.5t8 106.5q0 32 -3.5 68.5t-12.5 72.5t-24 69.5t-38 59t-55 40.5t-74 15t-74 -15t-54.5 -40.5t-37.5 -58.5t-24 -69t-12.5 -72.5t-3.5 -67.5zM1119 -1q-83 0 -145 29t-104.5 77t-64 109t-22 125t20 125t63 109t106 77t149.5 29
q58 0 107.5 -15t89.5 -42t69 -64.5t47 -82.5q-12 -2 -37 -6.5t-58.5 -10.5t-74.5 -13t-85 -15q66 -1 113.5 -19.5t78 -47t44 -65t11 -74t-20 -74t-49.5 -64.5q-45 -40 -104 -63.5t-134 -23.5zM917 383q-4 -61 4 -126.5t32 -120t65 -90t104 -36.5q72 1 128.5 23.5t99.5 60.5
q49 44 62 103t-13 112q-16 32 -40 53t-53.5 33.5t-63.5 17.5t-69 5q-36 0 -71.5 -4t-69 -9.5t-63 -11.5t-52.5 -10zM917 394q35 6 74.5 13t81.5 15q65 11 128.5 22.5t115.5 20.5q-8 39 -22.5 75.5t-38 65t-57 45.5t-78.5 17q-56 0 -93.5 -25.5t-61 -65.5t-35 -88.5
t-14.5 -94.5z" />
    <glyph glyph-name="Ydieresis" unicode="&#x178;" horiz-adv-x="790" 
d="M109 759q-8 10 -19.5 23t-25 26t-27.5 22.5t-27 12.5l1 8q39 -3 70 -4t61 -1q28 0 58 1t68 3q39 3 67.5 -13t51 -41t39.5 -55.5t33 -56.5t31.5 -43.5t35.5 -17.5t45 22l95 122q25 32 -1.5 52.5t-91.5 20.5v11q23 -2 46 -3t52 -1q22 0 48.5 1t60.5 3v-8q-6 -2 -8 -2
q-15 -6 -27 -12.5t-22.5 -15t-20.5 -19.5t-22 -27q-50 -63 -106 -135.5t-108 -138.5v-379q1 -53 15.5 -78.5t63.5 -25.5v-10q-49 2 -81 3.5t-61 1.5q-30 0 -62.5 -1t-82.5 -4v10q25 0 41 7t24.5 21t11.5 35.5t3 50.5v342l-10 12q-64 81 -121 155t-98 126zM274 840
q-37 -3 -39 -24t22 -53l203 -261l90 116q-16 -8 -31 -5q-14 2 -25.5 11.5t-22 22.5t-19.5 28t-17 30q-15 26 -31 50.5t-35 43.5t-42 30.5t-53 10.5zM415 927q0 20 13.5 35.5t33.5 15.5t33 -16t13 -35q0 -20 -12.5 -35.5t-33.5 -15.5q-20 0 -33.5 15.5t-13.5 35.5zM282 927
q0 19 13 35t33 16t33.5 -15.5t13.5 -35.5t-13 -36q-14 -15 -34 -15q-21 0 -33.5 15.5t-12.5 35.5z" />
    <glyph glyph-name="circumflex" unicode="&#x2c6;" horiz-adv-x="331" 
d="M295 718l-12 -10l-117 134l-118 -134l-12 10l130 165z" />
    <glyph glyph-name="caron" unicode="&#x2c7;" horiz-adv-x="331" 
d="M295 863l-130 -164l-129 164l12 11l117 -135l118 135z" />
    <glyph glyph-name="breve" unicode="&#x2d8;" horiz-adv-x="331" 
d="M295 873l-130 -164l-129 164l12 11l117 -135l118 135z" />
    <glyph glyph-name="dotaccent" unicode="&#x2d9;" horiz-adv-x="165" 
d="M36 759q0 19 13 35t33 16t33.5 -15.5t13.5 -35.5t-13 -36q-14 -15 -34 -15q-21 0 -33.5 15.5t-12.5 35.5z" />
    <glyph glyph-name="ring" unicode="&#x2da;" horiz-adv-x="317" 
d="M159 677q-27 0 -49.5 11t-39 29t-25.5 42t-9 51q0 26 9 50t25 42t39 29t50 11q26 0 48.5 -10.5t39 -28.5t25.5 -42t9 -51q0 -28 -9 -52t-25.5 -42t-39 -28.5t-48.5 -10.5zM52 810q0 -24 8 -45t22.5 -37t34 -25.5t42.5 -9.5q21 0 40.5 8.5t34 24t23 37t8.5 47.5
q0 23 -8 44t-22 37t-33.5 25.5t-42.5 9.5t-43 -9.5t-34 -25.5t-22 -37t-8 -44z" />
    <glyph glyph-name="ogonek" unicode="&#x2db;" horiz-adv-x="833" 
 />
    <glyph glyph-name="tilde" unicode="&#x2dc;" horiz-adv-x="372" 
d="M36 692q3 20 9 38.5t16 32t24.5 21.5t34.5 8q18 0 37 -8t37 -17l34 -17t30 -8q15 0 25.5 7t17.5 18t11.5 24t6.5 24h17q-4 -21 -10 -39t-16 -32t-24.5 -22t-35.5 -8q-16 0 -35 8t-38 18t-36 18t-29 8q-14 0 -23.5 -7.5t-16.5 -18.5t-11.5 -24t-7.5 -24h-17z" />
    <glyph glyph-name="hungarumlaut" unicode="&#x2dd;" horiz-adv-x="355" 
d="M162 708l133 202l29 -11l-145 -191h-17zM169 910l29 -11l-145 -191h-17z" />
    <glyph glyph-name="endash" unicode="&#x2013;" horiz-adv-x="504" 
d="M36 388v16h432v-16h-432z" />
    <glyph glyph-name="quoteleft" unicode="&#x2018;" horiz-adv-x="92" 
d="M2 588l35 264h17l34 -264q0 -3 1 -5q1 -7 1.5 -12t0.5 -7q0 -23 -10 -40.5t-36 -17.5q-22 0 -32 15q-12 15 -12 44q0 10 1 13v10z" />
    <glyph glyph-name="quoteright" unicode="&#x2019;" horiz-adv-x="92" 
d="M2 780q-1 3 -1 13q0 29 12 44q10 15 32 15q26 0 36 -17.5t10 -40.5q0 -2 -0.5 -7t-1.5 -12q-1 -2 -1 -5l-34 -264h-17l-35 264v10v0z" />
    <glyph glyph-name="quotedblleft" unicode="&#x201c;" horiz-adv-x="212" 
d="M2 588l35 264h17l34 -264q0 -3 1 -5q1 -7 1.5 -12t0.5 -7q0 -23 -10 -40.5t-36 -17.5q-22 0 -32 15q-12 15 -12 44q0 10 1 13v10zM122 588l35 264h17l34 -264q0 -3 1 -5q1 -7 1.5 -12t0.5 -7q0 -23 -10 -40.5t-36 -17.5q-22 0 -32 15q-12 15 -12 44q0 10 1 13v10z" />
    <glyph glyph-name="quotedblright" unicode="&#x201d;" horiz-adv-x="212" 
d="M2 780q-1 3 -1 13q0 29 12 44q10 15 32 15q26 0 36 -17.5t10 -40.5q0 -2 -0.5 -7t-1.5 -12q-1 -2 -1 -5l-34 -264h-17l-35 264v10zM122 780q-1 3 -1 13q0 29 12 44q10 15 32 15q26 0 36 -17.5t10 -40.5q0 -2 -0.5 -7t-1.5 -12q-1 -2 -1 -5l-34 -264h-17l-35 264v10z" />
    <glyph glyph-name="dagger" unicode="&#x2020;" horiz-adv-x="443" 
d="M209 -103v1030h24v-1030h-24zM38 367v16h366v-16h-366z" />
    <glyph glyph-name="trademark" unicode="&#x2122;" horiz-adv-x="896" 
d="M434 481q24 0 29.5 11t5.5 35v287l-16 39h61l139 -329q-2 13 0 27q3 29 17.5 53.5t32.5 50.5q21 32 40.5 68t24.5 84q0 19 -4.5 30.5t-24.5 11.5v4q19 -1 32 -1.5t25 -0.5t25 0.5t33 1.5v-4q-19 0 -24 -11t-5 -30v-281q0 -23 6.5 -34.5t28.5 -11.5v-4q-23 2 -46 1.5
t-41 -0.5q-21 -1 -40 -1v4q24 0 29.5 13t5.5 37v246q-7 -31 -20.5 -56.5t-28.5 -48l-29 -43.5t-23 -42.5t-10 -45t11 -51.5l5 -13h-61l-138 326v-276q0 -28 6 -37t29 -9v-4q-12 0 -20 0.5t-15.5 0.5t-17 -0.5t-22.5 -0.5v4zM36 771q4 25 7 41t5 25t2.5 12.5l0.5 3.5h377
q0 -1 1 -1l14 -81q-1 -1 -2 -1t-1 -1q-14 22 -27 37t-28.5 24.5t-35 13.5t-47.5 4h-35v-321q1 -23 7.5 -34.5t27.5 -11.5v-4q-21 1 -35.5 1.5t-26.5 0.5q-14 0 -28 -0.5t-36 -1.5v4q23 0 29 12t6 38v317h-34q-28 0 -47.5 -4t-35 -13.5t-28 -24.5t-26.5 -37q0 1 -1 1
q-2 0 -2 1h-1z" />
    <glyph glyph-name="fi" unicode="&#xfb01;" horiz-adv-x="714" 
d="M36 11q22 0 35 6.5t20 18.5t9 29t2 39v536q0 8 0.5 14.5t0.5 14.5h-67v11h69q7 57 32 98.5t62.5 68.5t85 40t100.5 13q39 0 81 -6.5t85 -20.5q4 -2 7 -3q20 -8 32 -27t12 -42q0 -32 -17.5 -54.5t-55.5 -22.5q-31 0 -51.5 20t-20.5 57q0 28 14 47.5t39 24.5
q-33 8 -65.5 12t-62.5 4q-49 0 -86 -9q-30 -7 -52 -24.5t-36 -39t-19 -45.5t-1 -43.5t18 -33t38 -14.5q31 1 48 -3.5t28 -13.5q15 -12 17 -27t-3 -30q-6 -20 -21 -41t-31.5 -44t-31.5 -48.5t-20 -53.5v-313q0 -21 2 -38.5t9 -30t20 -19.5t35 -7v-10q-44 2 -73 2.5t-54 0.5
q-29 0 -58 -0.5t-75 -2.5v10zM390 11q49 0 63.5 25.5t15.5 78.5v377q0 31 -0.5 55t-6.5 40t-19 25t-38 11v10q44 5 98 17t96 30v-571q1 -50 16 -74t63 -24v-10q-30 2 -71 3t-87 1q-32 0 -65 -1t-65 -3v10zM230 456q11 26 28 50t32.5 46t26.5 41t10 35t-9.5 24.5t-20.5 12
t-26.5 4t-27.5 0.5q-5 0 -13 2v-215z" />
    <glyph glyph-name="fl" unicode="&#xfb02;" horiz-adv-x="720" 
d="M36 680h69q6 46 27 86t53.5 68.5t74.5 45t89 16.5q30 0 64.5 -7.5t69 -22t66 -36.5t56.5 -50v-671q1 -50 16.5 -74t62.5 -24v-10q-72 3 -144 3t-144 -3v10q49 0 63.5 25.5t15.5 78.5v517q0 36 -4 80t-18 82t-42.5 64t-76.5 26q-38 0 -66.5 -14.5t-47.5 -37t-27.5 -48.5
t-6 -48.5t16.5 -38.5t41 -17q31 1 48.5 -2.5t27.5 -14.5q16 -16 17 -33t-7.5 -35.5t-23 -38.5t-30 -42t-28.5 -45.5t-18 -49.5v-313q0 -21 2 -38.5t9 -30t20 -19.5t35 -7v-10q-44 2 -73 2.5t-54 0.5q-29 0 -58 -0.5t-75 -2.5v10q22 0 35 6.5t20 18.5t9 29t2 39v536v14.5
t1 14.5h-67v11zM230 456q11 26 28 50t32.5 46t26.5 41t10 35t-9.5 24.5t-20.5 12t-26.5 4t-27.5 0.5q-5 0 -13 2v-215z" />
    </font>
</defs>
</svg>
